%
M48
M72
T01C0.0120
T02C0.0236
T03C0.0315
T04C0.0320
T05C0.0400
T06C0.0470
T07C0.0984
%
T01
X5611Y10890
T02
X2761Y19220
X4361Y8740
X13311Y19140
X2761Y16421
X2761Y13665
X2761Y10909
X2761Y7759
X2761Y5003
X14966Y19420
X14966Y15240
X14966Y12484
X14966Y9334
X14966Y5003
X8717Y3878
X7211Y11190
X10561Y11190
X5511Y21870
T03
X13366Y17945
X13366Y16945
X13366Y15945
X13366Y14945
X13366Y13945
X13366Y12945
X13366Y11945
X13366Y10945
X4366Y17945
X4366Y16945
X4366Y15945
X4366Y14945
X4366Y13945
X4366Y12945
X4366Y11945
X4366Y10945
T04
X8351Y1705
X7351Y1705
T05
X4611Y22540
X3611Y22540
X2611Y22540
X12111Y22540
X13111Y22540
X14111Y22540
X15111Y22540
X6611Y22540
X7611Y22540
X8611Y22540
X9611Y22540
X10611Y22540
T06
X3366Y2095
X5366Y2095
X10366Y2095
X12366Y2095
X14366Y2095
T07
X8851Y12101
M30
