G75*
%MOIN*%
%OFA0B0*%
%FSLAX25Y25*%
%IPPOS*%
%LPD*%
%AMOC8*
5,1,8,0,0,1.08239X$1,22.5*
%
%ADD10C,0.00400*%
%ADD11C,0.00000*%
%ADD12C,0.00600*%
%ADD13C,0.01000*%
%ADD14R,0.02000X0.10000*%
%ADD15C,0.00800*%
D10*
X0039732Y0010700D02*
X0039732Y0012168D01*
X0038998Y0012168D02*
X0038631Y0012168D01*
X0038998Y0012168D02*
X0039732Y0011434D01*
X0040658Y0011434D02*
X0042126Y0011434D01*
X0042126Y0011801D02*
X0041759Y0012168D01*
X0041025Y0012168D01*
X0040658Y0011801D01*
X0040658Y0011434D01*
X0041025Y0010700D02*
X0041759Y0010700D01*
X0042126Y0011067D01*
X0042126Y0011801D01*
X0043052Y0012168D02*
X0043052Y0011067D01*
X0043419Y0010700D01*
X0043786Y0011067D01*
X0044153Y0010700D01*
X0044520Y0011067D01*
X0044520Y0012168D01*
X0045446Y0011801D02*
X0045446Y0011067D01*
X0045813Y0010700D01*
X0046547Y0010700D01*
X0046914Y0011067D01*
X0046914Y0011801D01*
X0046547Y0012168D01*
X0045813Y0012168D01*
X0045446Y0011801D01*
X0047840Y0011801D02*
X0048207Y0011434D01*
X0049308Y0011434D01*
X0049308Y0010700D02*
X0049308Y0012902D01*
X0048207Y0012902D01*
X0047840Y0012535D01*
X0047840Y0011801D01*
X0040908Y0018578D02*
X0040174Y0017844D01*
X0038706Y0017844D01*
X0038706Y0019312D02*
X0040174Y0019312D01*
X0040908Y0018578D01*
X0040541Y0020238D02*
X0040908Y0020605D01*
X0040908Y0021339D01*
X0040541Y0021706D01*
X0039807Y0021706D02*
X0039440Y0020972D01*
X0039440Y0020605D01*
X0039807Y0020238D01*
X0040541Y0020238D01*
X0039807Y0021706D02*
X0038706Y0021706D01*
X0038706Y0020238D01*
X0039807Y0022632D02*
X0039807Y0024100D01*
X0039073Y0023366D02*
X0040541Y0023366D01*
X0058706Y0023733D02*
X0059073Y0024100D01*
X0060541Y0024100D01*
X0060908Y0023733D01*
X0060908Y0022999D01*
X0060541Y0022632D01*
X0059807Y0022632D01*
X0059807Y0023366D01*
X0059073Y0022632D02*
X0058706Y0022999D01*
X0058706Y0023733D01*
X0058706Y0021706D02*
X0060908Y0020238D01*
X0058706Y0020238D01*
X0058706Y0019312D02*
X0058706Y0018211D01*
X0059073Y0017844D01*
X0060541Y0017844D01*
X0060908Y0018211D01*
X0060908Y0019312D01*
X0058706Y0019312D01*
X0058706Y0021706D02*
X0060908Y0021706D01*
X0068602Y0033050D02*
X0068602Y0035252D01*
X0067134Y0035252D01*
X0067868Y0034151D02*
X0068602Y0034151D01*
X0069528Y0034518D02*
X0069528Y0033050D01*
X0070629Y0033050D01*
X0070996Y0033417D01*
X0070996Y0034518D01*
X0071922Y0034885D02*
X0073390Y0033417D01*
X0073023Y0033050D01*
X0072289Y0033050D01*
X0071922Y0033417D01*
X0071922Y0034885D01*
X0072289Y0035252D01*
X0073023Y0035252D01*
X0073390Y0034885D01*
X0073390Y0033417D01*
X0074316Y0033417D02*
X0074683Y0033050D01*
X0075417Y0033050D01*
X0075784Y0033417D01*
X0074316Y0034885D01*
X0074316Y0033417D01*
X0074316Y0034885D02*
X0074683Y0035252D01*
X0075417Y0035252D01*
X0075784Y0034885D01*
X0075784Y0033417D01*
X0076710Y0033417D02*
X0077077Y0033050D01*
X0077811Y0033050D01*
X0078178Y0033417D01*
X0076710Y0034885D01*
X0076710Y0033417D01*
X0076710Y0034885D02*
X0077077Y0035252D01*
X0077811Y0035252D01*
X0078178Y0034885D01*
X0078178Y0033417D01*
X0079104Y0033050D02*
X0080572Y0033050D01*
X0079838Y0033050D02*
X0079838Y0035252D01*
X0080572Y0034518D01*
X0081499Y0034151D02*
X0082966Y0034151D01*
X0083893Y0034885D02*
X0085360Y0033417D01*
X0084994Y0033050D01*
X0084260Y0033050D01*
X0083893Y0033417D01*
X0083893Y0034885D01*
X0084260Y0035252D01*
X0084994Y0035252D01*
X0085360Y0034885D01*
X0085360Y0033417D01*
X0086287Y0034885D02*
X0087755Y0033417D01*
X0087755Y0033050D01*
X0089048Y0033050D02*
X0089048Y0035252D01*
X0090149Y0034151D01*
X0088681Y0034151D01*
X0087755Y0035252D02*
X0086287Y0035252D01*
X0086287Y0034885D01*
X0087086Y0029352D02*
X0087086Y0026950D01*
X0087886Y0026950D02*
X0086285Y0026950D01*
X0087886Y0028551D02*
X0087086Y0029352D01*
X0088863Y0028952D02*
X0089264Y0029352D01*
X0090064Y0029352D01*
X0090465Y0028952D01*
X0090465Y0027350D01*
X0090064Y0026950D01*
X0089264Y0026950D01*
X0088863Y0027350D01*
X0108706Y0026600D02*
X0110174Y0026600D01*
X0110908Y0025866D01*
X0110174Y0025132D01*
X0108706Y0025132D01*
X0109073Y0024206D02*
X0108706Y0023839D01*
X0108706Y0023105D01*
X0109073Y0022738D01*
X0109073Y0021812D02*
X0108706Y0021445D01*
X0108706Y0020711D01*
X0109073Y0020344D01*
X0109440Y0019418D02*
X0108706Y0018684D01*
X0109440Y0019418D02*
X0110174Y0019418D01*
X0110908Y0018684D01*
X0109807Y0017822D02*
X0109807Y0016354D01*
X0109073Y0017088D02*
X0110541Y0017088D01*
X0110908Y0015428D02*
X0110174Y0014694D01*
X0109440Y0014694D01*
X0108706Y0015428D01*
X0110541Y0020344D02*
X0110908Y0020711D01*
X0110908Y0021445D01*
X0110541Y0021812D01*
X0109073Y0021812D01*
X0110541Y0022738D02*
X0110908Y0023105D01*
X0110908Y0023839D01*
X0110541Y0024206D01*
X0109073Y0024206D01*
X0114789Y0012168D02*
X0116257Y0010700D01*
X0117119Y0010700D02*
X0117853Y0010700D01*
X0117486Y0010700D02*
X0117486Y0012168D01*
X0117853Y0012168D01*
X0117486Y0012902D02*
X0117486Y0013269D01*
X0116257Y0012168D02*
X0114789Y0010700D01*
X0118747Y0012168D02*
X0119114Y0012168D01*
X0119848Y0011434D01*
X0119848Y0010700D02*
X0119848Y0012168D01*
X0120710Y0012168D02*
X0121444Y0012168D01*
X0121077Y0012535D02*
X0121077Y0011067D01*
X0120710Y0010700D01*
X0122370Y0010700D02*
X0122370Y0011801D01*
X0122737Y0012168D01*
X0123471Y0012168D01*
X0123471Y0011434D02*
X0122370Y0011434D01*
X0122370Y0010700D02*
X0123471Y0010700D01*
X0123838Y0011067D01*
X0123471Y0011434D01*
X0124764Y0010700D02*
X0124764Y0012902D01*
X0125498Y0012168D01*
X0126232Y0012902D01*
X0126232Y0010700D01*
X0129552Y0011067D02*
X0129552Y0012535D01*
X0129919Y0012902D01*
X0131020Y0012902D01*
X0131020Y0010700D01*
X0129919Y0010700D01*
X0129552Y0011067D01*
X0131946Y0010700D02*
X0133414Y0010700D01*
X0133414Y0012902D01*
X0131946Y0012902D01*
X0132680Y0011801D02*
X0133414Y0011801D01*
X0134340Y0010700D02*
X0135808Y0010700D01*
X0135808Y0012902D01*
X0130908Y0015950D02*
X0129440Y0015950D01*
X0128706Y0016684D01*
X0129440Y0017418D01*
X0130908Y0017418D01*
X0129807Y0017418D02*
X0129807Y0015950D01*
X0128706Y0018344D02*
X0128706Y0019812D01*
X0128706Y0019078D02*
X0130908Y0019078D01*
X0130908Y0020738D02*
X0129440Y0020738D01*
X0128706Y0021472D01*
X0129440Y0022206D01*
X0130908Y0022206D01*
X0130541Y0023132D02*
X0129073Y0023132D01*
X0128706Y0023499D01*
X0128706Y0024600D01*
X0130908Y0024600D01*
X0130908Y0023499D01*
X0130541Y0023132D01*
X0129807Y0022206D02*
X0129807Y0020738D01*
X0148706Y0020711D02*
X0148706Y0021812D01*
X0150908Y0021812D01*
X0150908Y0020711D01*
X0150541Y0020344D01*
X0149073Y0020344D01*
X0148706Y0020711D01*
X0149440Y0019418D02*
X0148706Y0018684D01*
X0149440Y0019418D02*
X0150174Y0019418D01*
X0150908Y0018684D01*
X0149807Y0017822D02*
X0149807Y0016354D01*
X0148706Y0015428D02*
X0149440Y0014694D01*
X0150174Y0014694D01*
X0150908Y0015428D01*
X0150908Y0022738D02*
X0148706Y0022738D01*
X0148706Y0024206D02*
X0150908Y0022738D01*
X0150908Y0024206D02*
X0148706Y0024206D01*
X0149073Y0025132D02*
X0148706Y0025499D01*
X0148706Y0026233D01*
X0149073Y0026600D01*
X0150541Y0026600D01*
X0150908Y0026233D01*
X0150908Y0025499D01*
X0150541Y0025132D01*
X0149807Y0025132D01*
X0149807Y0025866D01*
X0134157Y0231994D02*
X0133757Y0231994D01*
X0133357Y0232395D01*
X0133357Y0234396D01*
X0134558Y0234396D01*
X0134958Y0233996D01*
X0134958Y0233195D01*
X0134558Y0232795D01*
X0133357Y0232795D01*
X0132380Y0232795D02*
X0132380Y0234396D01*
X0131179Y0234396D01*
X0130778Y0233996D01*
X0130778Y0232795D01*
X0129802Y0233195D02*
X0129802Y0233996D01*
X0129401Y0234396D01*
X0128200Y0234396D01*
X0128200Y0235197D02*
X0128200Y0232795D01*
X0129401Y0232795D01*
X0129802Y0233195D01*
X0124645Y0234396D02*
X0123844Y0232795D01*
X0123044Y0234396D01*
X0122067Y0233996D02*
X0122067Y0233195D01*
X0121667Y0232795D01*
X0120466Y0232795D01*
X0119489Y0233195D02*
X0119489Y0233996D01*
X0119088Y0234396D01*
X0117887Y0234396D01*
X0117887Y0232795D02*
X0119088Y0232795D01*
X0119489Y0233195D01*
X0120466Y0234396D02*
X0121667Y0234396D01*
X0122067Y0233996D01*
X0108318Y0234396D02*
X0108318Y0232795D01*
X0107517Y0232795D02*
X0107517Y0233996D01*
X0107117Y0234396D01*
X0106717Y0233996D01*
X0106717Y0232795D01*
X0105740Y0233195D02*
X0105340Y0232795D01*
X0104539Y0232795D01*
X0104139Y0233195D01*
X0104139Y0233596D01*
X0104539Y0233996D01*
X0104939Y0233996D01*
X0104539Y0233996D02*
X0104139Y0234396D01*
X0104139Y0234797D01*
X0104539Y0235197D01*
X0105340Y0235197D01*
X0105740Y0234797D01*
X0107517Y0233996D02*
X0107918Y0234396D01*
X0108318Y0234396D01*
X0098005Y0234396D02*
X0098005Y0232795D01*
X0097205Y0232795D02*
X0097205Y0233996D01*
X0096804Y0234396D01*
X0096404Y0233996D01*
X0096404Y0232795D01*
X0095427Y0232795D02*
X0093826Y0234396D01*
X0093826Y0234797D01*
X0094226Y0235197D01*
X0095027Y0235197D01*
X0095427Y0234797D01*
X0097205Y0233996D02*
X0097605Y0234396D01*
X0098005Y0234396D01*
X0095427Y0232795D02*
X0093826Y0232795D01*
X0087693Y0232795D02*
X0087693Y0234396D01*
X0087292Y0234396D01*
X0086892Y0233996D01*
X0086492Y0234396D01*
X0086091Y0233996D01*
X0086091Y0232795D01*
X0086892Y0232795D02*
X0086892Y0233996D01*
X0085114Y0234396D02*
X0084314Y0235197D01*
X0084314Y0232795D01*
X0085114Y0232795D02*
X0083513Y0232795D01*
X0079958Y0233195D02*
X0079558Y0232795D01*
X0078357Y0232795D01*
X0078357Y0232395D02*
X0078357Y0234396D01*
X0079558Y0234396D01*
X0079958Y0233996D01*
X0079958Y0233195D01*
X0079157Y0231994D02*
X0078757Y0231994D01*
X0078357Y0232395D01*
X0077380Y0232795D02*
X0077380Y0234396D01*
X0076179Y0234396D01*
X0075778Y0233996D01*
X0075778Y0232795D01*
X0074802Y0233195D02*
X0074802Y0233996D01*
X0074401Y0234396D01*
X0073200Y0234396D01*
X0073200Y0235197D02*
X0073200Y0232795D01*
X0074401Y0232795D01*
X0074802Y0233195D01*
X0069645Y0234396D02*
X0068844Y0232795D01*
X0068044Y0234396D01*
X0067067Y0233996D02*
X0067067Y0233195D01*
X0066667Y0232795D01*
X0065466Y0232795D01*
X0064489Y0233195D02*
X0064088Y0232795D01*
X0062887Y0232795D01*
X0062887Y0234396D02*
X0064088Y0234396D01*
X0064489Y0233996D01*
X0064489Y0233195D01*
X0065466Y0234396D02*
X0066667Y0234396D01*
X0067067Y0233996D01*
X0049411Y0234396D02*
X0048611Y0232795D01*
X0047810Y0234396D01*
X0046833Y0233996D02*
X0046833Y0233195D01*
X0046433Y0232795D01*
X0045232Y0232795D01*
X0044255Y0233195D02*
X0044255Y0233996D01*
X0043855Y0234396D01*
X0042654Y0234396D01*
X0042654Y0232795D02*
X0043855Y0232795D01*
X0044255Y0233195D01*
X0045232Y0234396D02*
X0046433Y0234396D01*
X0046833Y0233996D01*
X0039099Y0234396D02*
X0037898Y0234396D01*
X0037497Y0233996D01*
X0037497Y0233195D01*
X0037898Y0232795D01*
X0039099Y0232795D01*
X0039099Y0235197D01*
X0036520Y0234396D02*
X0035720Y0234396D01*
X0036120Y0234797D02*
X0036120Y0233195D01*
X0035720Y0232795D01*
X0034802Y0232795D02*
X0034802Y0234396D01*
X0033601Y0234396D01*
X0033200Y0233996D01*
X0033200Y0232795D01*
X0029645Y0233195D02*
X0029245Y0232795D01*
X0028044Y0232795D01*
X0028044Y0232395D02*
X0028044Y0234396D01*
X0029245Y0234396D01*
X0029645Y0233996D01*
X0029645Y0233195D01*
X0028844Y0231994D02*
X0028444Y0231994D01*
X0028044Y0232395D01*
X0027067Y0232795D02*
X0027067Y0234396D01*
X0025866Y0234396D01*
X0025466Y0233996D01*
X0025466Y0232795D01*
X0024489Y0233195D02*
X0024489Y0233996D01*
X0024088Y0234396D01*
X0022887Y0234396D01*
X0022887Y0235197D02*
X0022887Y0232795D01*
X0024088Y0232795D01*
X0024489Y0233195D01*
X0138454Y0232795D02*
X0139255Y0232795D01*
X0138855Y0232795D02*
X0138855Y0235197D01*
X0139255Y0235197D01*
X0140232Y0234396D02*
X0141433Y0234396D01*
X0141833Y0233996D01*
X0141833Y0233195D01*
X0141433Y0232795D01*
X0140232Y0232795D01*
X0142810Y0233195D02*
X0143210Y0233596D01*
X0144011Y0233596D01*
X0144411Y0233996D01*
X0144011Y0234396D01*
X0142810Y0234396D01*
X0142810Y0233195D02*
X0143210Y0232795D01*
X0144411Y0232795D01*
X0147966Y0232795D02*
X0149167Y0232795D01*
X0149568Y0233195D01*
X0149167Y0233596D01*
X0147966Y0233596D01*
X0147966Y0233996D02*
X0147966Y0232795D01*
X0147966Y0233996D02*
X0148367Y0234396D01*
X0149167Y0234396D01*
X0150545Y0234396D02*
X0151746Y0234396D01*
X0152146Y0233996D01*
X0152146Y0233195D01*
X0151746Y0232795D01*
X0150545Y0232795D01*
X0150545Y0235197D01*
X0153123Y0234396D02*
X0154324Y0234396D01*
X0154724Y0233996D01*
X0154324Y0233596D01*
X0153523Y0233596D01*
X0153123Y0233195D01*
X0153523Y0232795D01*
X0154724Y0232795D01*
D11*
X0019610Y0057029D02*
X0019610Y0005895D01*
X0019612Y0005788D01*
X0019618Y0005681D01*
X0019627Y0005574D01*
X0019641Y0005468D01*
X0019658Y0005362D01*
X0019679Y0005257D01*
X0019703Y0005153D01*
X0019732Y0005050D01*
X0019764Y0004948D01*
X0019799Y0004847D01*
X0019838Y0004747D01*
X0019881Y0004649D01*
X0019927Y0004552D01*
X0019977Y0004457D01*
X0020030Y0004364D01*
X0020086Y0004273D01*
X0020146Y0004184D01*
X0020208Y0004097D01*
X0020274Y0004013D01*
X0020343Y0003930D01*
X0020414Y0003851D01*
X0020489Y0003774D01*
X0020566Y0003699D01*
X0020645Y0003628D01*
X0020728Y0003559D01*
X0020812Y0003493D01*
X0020899Y0003431D01*
X0020988Y0003371D01*
X0021079Y0003315D01*
X0021172Y0003262D01*
X0021267Y0003212D01*
X0021364Y0003166D01*
X0021462Y0003123D01*
X0021562Y0003084D01*
X0021663Y0003049D01*
X0021765Y0003017D01*
X0021868Y0002988D01*
X0021972Y0002964D01*
X0022077Y0002943D01*
X0022183Y0002926D01*
X0022289Y0002912D01*
X0022396Y0002903D01*
X0022503Y0002897D01*
X0022610Y0002895D01*
X0154406Y0002895D01*
X0154513Y0002897D01*
X0154620Y0002903D01*
X0154727Y0002912D01*
X0154833Y0002926D01*
X0154939Y0002943D01*
X0155044Y0002964D01*
X0155148Y0002988D01*
X0155251Y0003017D01*
X0155353Y0003049D01*
X0155454Y0003084D01*
X0155554Y0003123D01*
X0155652Y0003166D01*
X0155749Y0003212D01*
X0155844Y0003262D01*
X0155937Y0003315D01*
X0156028Y0003371D01*
X0156117Y0003431D01*
X0156204Y0003493D01*
X0156288Y0003559D01*
X0156371Y0003628D01*
X0156450Y0003699D01*
X0156527Y0003774D01*
X0156602Y0003851D01*
X0156673Y0003930D01*
X0156742Y0004013D01*
X0156808Y0004097D01*
X0156870Y0004184D01*
X0156930Y0004273D01*
X0156986Y0004364D01*
X0157039Y0004457D01*
X0157089Y0004552D01*
X0157135Y0004649D01*
X0157178Y0004747D01*
X0157217Y0004847D01*
X0157252Y0004948D01*
X0157284Y0005050D01*
X0157313Y0005153D01*
X0157337Y0005257D01*
X0157358Y0005362D01*
X0157375Y0005468D01*
X0157389Y0005574D01*
X0157398Y0005681D01*
X0157404Y0005788D01*
X0157406Y0005895D01*
X0157406Y0057029D01*
X0152485Y0057029D01*
X0152361Y0057031D01*
X0152238Y0057037D01*
X0152114Y0057046D01*
X0151992Y0057060D01*
X0151869Y0057077D01*
X0151747Y0057099D01*
X0151626Y0057124D01*
X0151506Y0057153D01*
X0151387Y0057185D01*
X0151268Y0057222D01*
X0151151Y0057262D01*
X0151036Y0057305D01*
X0150921Y0057353D01*
X0150809Y0057404D01*
X0150698Y0057458D01*
X0150588Y0057516D01*
X0150481Y0057577D01*
X0150375Y0057642D01*
X0150272Y0057710D01*
X0150171Y0057781D01*
X0150072Y0057855D01*
X0149975Y0057932D01*
X0149881Y0058013D01*
X0149790Y0058096D01*
X0149701Y0058182D01*
X0149615Y0058271D01*
X0149532Y0058362D01*
X0149451Y0058456D01*
X0149374Y0058553D01*
X0149300Y0058652D01*
X0149229Y0058753D01*
X0149161Y0058856D01*
X0149096Y0058962D01*
X0149035Y0059069D01*
X0148977Y0059179D01*
X0148923Y0059290D01*
X0148872Y0059402D01*
X0148824Y0059517D01*
X0148781Y0059632D01*
X0148741Y0059749D01*
X0148704Y0059868D01*
X0148672Y0059987D01*
X0148643Y0060107D01*
X0148618Y0060228D01*
X0148596Y0060350D01*
X0148579Y0060473D01*
X0148565Y0060595D01*
X0148556Y0060719D01*
X0148550Y0060842D01*
X0148548Y0060966D01*
X0148548Y0062934D01*
X0148550Y0063058D01*
X0148556Y0063181D01*
X0148565Y0063305D01*
X0148579Y0063427D01*
X0148596Y0063550D01*
X0148618Y0063672D01*
X0148643Y0063793D01*
X0148672Y0063913D01*
X0148704Y0064032D01*
X0148741Y0064151D01*
X0148781Y0064268D01*
X0148824Y0064383D01*
X0148872Y0064498D01*
X0148923Y0064610D01*
X0148977Y0064721D01*
X0149035Y0064831D01*
X0149096Y0064938D01*
X0149161Y0065044D01*
X0149229Y0065147D01*
X0149300Y0065248D01*
X0149374Y0065347D01*
X0149451Y0065444D01*
X0149532Y0065538D01*
X0149615Y0065629D01*
X0149701Y0065718D01*
X0149790Y0065804D01*
X0149881Y0065887D01*
X0149975Y0065968D01*
X0150072Y0066045D01*
X0150171Y0066119D01*
X0150272Y0066190D01*
X0150375Y0066258D01*
X0150481Y0066323D01*
X0150588Y0066384D01*
X0150698Y0066442D01*
X0150809Y0066496D01*
X0150921Y0066547D01*
X0151036Y0066595D01*
X0151151Y0066638D01*
X0151268Y0066678D01*
X0151387Y0066715D01*
X0151506Y0066747D01*
X0151626Y0066776D01*
X0151747Y0066801D01*
X0151869Y0066823D01*
X0151992Y0066840D01*
X0152114Y0066854D01*
X0152238Y0066863D01*
X0152361Y0066869D01*
X0152485Y0066871D01*
X0157406Y0066871D01*
X0157406Y0175139D01*
X0152485Y0175139D01*
X0152361Y0175141D01*
X0152238Y0175147D01*
X0152114Y0175156D01*
X0151992Y0175170D01*
X0151869Y0175187D01*
X0151747Y0175209D01*
X0151626Y0175234D01*
X0151506Y0175263D01*
X0151387Y0175295D01*
X0151268Y0175332D01*
X0151151Y0175372D01*
X0151036Y0175415D01*
X0150921Y0175463D01*
X0150809Y0175514D01*
X0150698Y0175568D01*
X0150588Y0175626D01*
X0150481Y0175687D01*
X0150375Y0175752D01*
X0150272Y0175820D01*
X0150171Y0175891D01*
X0150072Y0175965D01*
X0149975Y0176042D01*
X0149881Y0176123D01*
X0149790Y0176206D01*
X0149701Y0176292D01*
X0149615Y0176381D01*
X0149532Y0176472D01*
X0149451Y0176566D01*
X0149374Y0176663D01*
X0149300Y0176762D01*
X0149229Y0176863D01*
X0149161Y0176966D01*
X0149096Y0177072D01*
X0149035Y0177179D01*
X0148977Y0177289D01*
X0148923Y0177400D01*
X0148872Y0177512D01*
X0148824Y0177627D01*
X0148781Y0177742D01*
X0148741Y0177859D01*
X0148704Y0177978D01*
X0148672Y0178097D01*
X0148643Y0178217D01*
X0148618Y0178338D01*
X0148596Y0178460D01*
X0148579Y0178583D01*
X0148565Y0178705D01*
X0148556Y0178829D01*
X0148550Y0178952D01*
X0148548Y0179076D01*
X0148548Y0181045D01*
X0148550Y0181169D01*
X0148556Y0181292D01*
X0148565Y0181416D01*
X0148579Y0181538D01*
X0148596Y0181661D01*
X0148618Y0181783D01*
X0148643Y0181904D01*
X0148672Y0182024D01*
X0148704Y0182143D01*
X0148741Y0182262D01*
X0148781Y0182379D01*
X0148824Y0182494D01*
X0148872Y0182609D01*
X0148923Y0182721D01*
X0148977Y0182832D01*
X0149035Y0182942D01*
X0149096Y0183049D01*
X0149161Y0183155D01*
X0149229Y0183258D01*
X0149300Y0183359D01*
X0149374Y0183458D01*
X0149451Y0183555D01*
X0149532Y0183649D01*
X0149615Y0183740D01*
X0149701Y0183829D01*
X0149790Y0183915D01*
X0149881Y0183998D01*
X0149975Y0184079D01*
X0150072Y0184156D01*
X0150171Y0184230D01*
X0150272Y0184301D01*
X0150375Y0184369D01*
X0150481Y0184434D01*
X0150588Y0184495D01*
X0150698Y0184553D01*
X0150809Y0184607D01*
X0150921Y0184658D01*
X0151036Y0184706D01*
X0151151Y0184749D01*
X0151268Y0184789D01*
X0151387Y0184826D01*
X0151506Y0184858D01*
X0151626Y0184887D01*
X0151747Y0184912D01*
X0151869Y0184934D01*
X0151992Y0184951D01*
X0152114Y0184965D01*
X0152238Y0184974D01*
X0152361Y0184980D01*
X0152485Y0184982D01*
X0157406Y0184982D01*
X0157406Y0236130D01*
X0157404Y0236237D01*
X0157398Y0236344D01*
X0157388Y0236450D01*
X0157374Y0236556D01*
X0157357Y0236662D01*
X0157336Y0236766D01*
X0157311Y0236870D01*
X0157283Y0236973D01*
X0157251Y0237075D01*
X0157215Y0237176D01*
X0157175Y0237275D01*
X0157133Y0237373D01*
X0157086Y0237469D01*
X0157036Y0237564D01*
X0156983Y0237656D01*
X0156927Y0237747D01*
X0156867Y0237836D01*
X0156805Y0237922D01*
X0156739Y0238007D01*
X0156670Y0238088D01*
X0156599Y0238168D01*
X0156524Y0238244D01*
X0156447Y0238319D01*
X0156368Y0238390D01*
X0156285Y0238458D01*
X0156201Y0238523D01*
X0156114Y0238586D01*
X0156025Y0238645D01*
X0155934Y0238701D01*
X0155841Y0238753D01*
X0155746Y0238803D01*
X0155650Y0238849D01*
X0155552Y0238891D01*
X0155452Y0238930D01*
X0155351Y0238965D01*
X0155249Y0238997D01*
X0155146Y0239025D01*
X0155042Y0239049D01*
X0154937Y0239070D01*
X0154832Y0239087D01*
X0154726Y0239100D01*
X0154619Y0239109D01*
X0154513Y0239114D01*
X0154406Y0239116D01*
X0154406Y0239115D02*
X0022610Y0239115D01*
X0022610Y0239116D02*
X0022503Y0239114D01*
X0022397Y0239109D01*
X0022290Y0239100D01*
X0022184Y0239087D01*
X0022079Y0239070D01*
X0021974Y0239049D01*
X0021870Y0239025D01*
X0021767Y0238997D01*
X0021665Y0238965D01*
X0021564Y0238930D01*
X0021464Y0238891D01*
X0021366Y0238849D01*
X0021270Y0238803D01*
X0021175Y0238753D01*
X0021082Y0238701D01*
X0020991Y0238645D01*
X0020902Y0238586D01*
X0020815Y0238523D01*
X0020731Y0238458D01*
X0020648Y0238390D01*
X0020569Y0238319D01*
X0020492Y0238244D01*
X0020417Y0238168D01*
X0020346Y0238088D01*
X0020277Y0238007D01*
X0020211Y0237922D01*
X0020149Y0237836D01*
X0020089Y0237747D01*
X0020033Y0237656D01*
X0019980Y0237564D01*
X0019930Y0237469D01*
X0019883Y0237373D01*
X0019841Y0237275D01*
X0019801Y0237176D01*
X0019765Y0237075D01*
X0019733Y0236973D01*
X0019705Y0236870D01*
X0019680Y0236766D01*
X0019659Y0236662D01*
X0019642Y0236556D01*
X0019628Y0236450D01*
X0019618Y0236344D01*
X0019612Y0236237D01*
X0019610Y0236130D01*
X0019610Y0184982D01*
X0024532Y0184982D01*
X0024656Y0184980D01*
X0024779Y0184974D01*
X0024903Y0184965D01*
X0025025Y0184951D01*
X0025148Y0184934D01*
X0025270Y0184912D01*
X0025391Y0184887D01*
X0025511Y0184858D01*
X0025630Y0184826D01*
X0025749Y0184789D01*
X0025866Y0184749D01*
X0025981Y0184706D01*
X0026096Y0184658D01*
X0026208Y0184607D01*
X0026319Y0184553D01*
X0026429Y0184495D01*
X0026536Y0184434D01*
X0026642Y0184369D01*
X0026745Y0184301D01*
X0026846Y0184230D01*
X0026945Y0184156D01*
X0027042Y0184079D01*
X0027136Y0183998D01*
X0027227Y0183915D01*
X0027316Y0183829D01*
X0027402Y0183740D01*
X0027485Y0183649D01*
X0027566Y0183555D01*
X0027643Y0183458D01*
X0027717Y0183359D01*
X0027788Y0183258D01*
X0027856Y0183155D01*
X0027921Y0183049D01*
X0027982Y0182942D01*
X0028040Y0182832D01*
X0028094Y0182721D01*
X0028145Y0182609D01*
X0028193Y0182494D01*
X0028236Y0182379D01*
X0028276Y0182262D01*
X0028313Y0182143D01*
X0028345Y0182024D01*
X0028374Y0181904D01*
X0028399Y0181783D01*
X0028421Y0181661D01*
X0028438Y0181538D01*
X0028452Y0181416D01*
X0028461Y0181292D01*
X0028467Y0181169D01*
X0028469Y0181045D01*
X0028469Y0179076D01*
X0028467Y0178952D01*
X0028461Y0178829D01*
X0028452Y0178705D01*
X0028438Y0178583D01*
X0028421Y0178460D01*
X0028399Y0178338D01*
X0028374Y0178217D01*
X0028345Y0178097D01*
X0028313Y0177978D01*
X0028276Y0177859D01*
X0028236Y0177742D01*
X0028193Y0177627D01*
X0028145Y0177512D01*
X0028094Y0177400D01*
X0028040Y0177289D01*
X0027982Y0177179D01*
X0027921Y0177072D01*
X0027856Y0176966D01*
X0027788Y0176863D01*
X0027717Y0176762D01*
X0027643Y0176663D01*
X0027566Y0176566D01*
X0027485Y0176472D01*
X0027402Y0176381D01*
X0027316Y0176292D01*
X0027227Y0176206D01*
X0027136Y0176123D01*
X0027042Y0176042D01*
X0026945Y0175965D01*
X0026846Y0175891D01*
X0026745Y0175820D01*
X0026642Y0175752D01*
X0026536Y0175687D01*
X0026429Y0175626D01*
X0026319Y0175568D01*
X0026208Y0175514D01*
X0026096Y0175463D01*
X0025981Y0175415D01*
X0025866Y0175372D01*
X0025749Y0175332D01*
X0025630Y0175295D01*
X0025511Y0175263D01*
X0025391Y0175234D01*
X0025270Y0175209D01*
X0025148Y0175187D01*
X0025025Y0175170D01*
X0024903Y0175156D01*
X0024779Y0175147D01*
X0024656Y0175141D01*
X0024532Y0175139D01*
X0019610Y0175139D01*
X0019610Y0066871D01*
X0024532Y0066871D01*
X0024656Y0066869D01*
X0024779Y0066863D01*
X0024903Y0066854D01*
X0025025Y0066840D01*
X0025148Y0066823D01*
X0025270Y0066801D01*
X0025391Y0066776D01*
X0025511Y0066747D01*
X0025630Y0066715D01*
X0025749Y0066678D01*
X0025866Y0066638D01*
X0025981Y0066595D01*
X0026096Y0066547D01*
X0026208Y0066496D01*
X0026319Y0066442D01*
X0026429Y0066384D01*
X0026536Y0066323D01*
X0026642Y0066258D01*
X0026745Y0066190D01*
X0026846Y0066119D01*
X0026945Y0066045D01*
X0027042Y0065968D01*
X0027136Y0065887D01*
X0027227Y0065804D01*
X0027316Y0065718D01*
X0027402Y0065629D01*
X0027485Y0065538D01*
X0027566Y0065444D01*
X0027643Y0065347D01*
X0027717Y0065248D01*
X0027788Y0065147D01*
X0027856Y0065044D01*
X0027921Y0064938D01*
X0027982Y0064831D01*
X0028040Y0064721D01*
X0028094Y0064610D01*
X0028145Y0064498D01*
X0028193Y0064383D01*
X0028236Y0064268D01*
X0028276Y0064151D01*
X0028313Y0064032D01*
X0028345Y0063913D01*
X0028374Y0063793D01*
X0028399Y0063672D01*
X0028421Y0063550D01*
X0028438Y0063427D01*
X0028452Y0063305D01*
X0028461Y0063181D01*
X0028467Y0063058D01*
X0028469Y0062934D01*
X0028469Y0060966D01*
X0028467Y0060842D01*
X0028461Y0060719D01*
X0028452Y0060595D01*
X0028438Y0060473D01*
X0028421Y0060350D01*
X0028399Y0060228D01*
X0028374Y0060107D01*
X0028345Y0059987D01*
X0028313Y0059868D01*
X0028276Y0059749D01*
X0028236Y0059632D01*
X0028193Y0059517D01*
X0028145Y0059402D01*
X0028094Y0059290D01*
X0028040Y0059179D01*
X0027982Y0059069D01*
X0027921Y0058962D01*
X0027856Y0058856D01*
X0027788Y0058753D01*
X0027717Y0058652D01*
X0027643Y0058553D01*
X0027566Y0058456D01*
X0027485Y0058362D01*
X0027402Y0058271D01*
X0027316Y0058182D01*
X0027227Y0058096D01*
X0027136Y0058013D01*
X0027042Y0057932D01*
X0026945Y0057855D01*
X0026846Y0057781D01*
X0026745Y0057710D01*
X0026642Y0057642D01*
X0026536Y0057577D01*
X0026429Y0057516D01*
X0026319Y0057458D01*
X0026208Y0057404D01*
X0026096Y0057353D01*
X0025981Y0057305D01*
X0025866Y0057262D01*
X0025749Y0057222D01*
X0025630Y0057185D01*
X0025511Y0057153D01*
X0025391Y0057124D01*
X0025270Y0057099D01*
X0025148Y0057077D01*
X0025025Y0057060D01*
X0024903Y0057046D01*
X0024779Y0057037D01*
X0024656Y0057031D01*
X0024532Y0057029D01*
X0019610Y0057029D01*
X0083587Y0121005D02*
X0083589Y0121145D01*
X0083595Y0121285D01*
X0083605Y0121424D01*
X0083619Y0121563D01*
X0083637Y0121702D01*
X0083658Y0121840D01*
X0083684Y0121978D01*
X0083714Y0122115D01*
X0083747Y0122250D01*
X0083785Y0122385D01*
X0083826Y0122519D01*
X0083871Y0122652D01*
X0083919Y0122783D01*
X0083972Y0122912D01*
X0084028Y0123041D01*
X0084087Y0123167D01*
X0084151Y0123292D01*
X0084217Y0123415D01*
X0084288Y0123536D01*
X0084361Y0123655D01*
X0084438Y0123772D01*
X0084519Y0123886D01*
X0084602Y0123998D01*
X0084689Y0124108D01*
X0084779Y0124216D01*
X0084871Y0124320D01*
X0084967Y0124422D01*
X0085066Y0124522D01*
X0085167Y0124618D01*
X0085271Y0124712D01*
X0085378Y0124802D01*
X0085487Y0124889D01*
X0085599Y0124974D01*
X0085713Y0125055D01*
X0085829Y0125133D01*
X0085947Y0125207D01*
X0086068Y0125278D01*
X0086190Y0125346D01*
X0086315Y0125410D01*
X0086441Y0125471D01*
X0086568Y0125528D01*
X0086698Y0125581D01*
X0086829Y0125631D01*
X0086961Y0125676D01*
X0087094Y0125719D01*
X0087229Y0125757D01*
X0087364Y0125791D01*
X0087501Y0125822D01*
X0087638Y0125849D01*
X0087776Y0125871D01*
X0087915Y0125890D01*
X0088054Y0125905D01*
X0088193Y0125916D01*
X0088333Y0125923D01*
X0088473Y0125926D01*
X0088613Y0125925D01*
X0088753Y0125920D01*
X0088892Y0125911D01*
X0089032Y0125898D01*
X0089171Y0125881D01*
X0089309Y0125860D01*
X0089447Y0125836D01*
X0089584Y0125807D01*
X0089720Y0125775D01*
X0089855Y0125738D01*
X0089989Y0125698D01*
X0090122Y0125654D01*
X0090253Y0125606D01*
X0090383Y0125555D01*
X0090512Y0125500D01*
X0090639Y0125441D01*
X0090764Y0125378D01*
X0090887Y0125313D01*
X0091009Y0125243D01*
X0091128Y0125170D01*
X0091246Y0125094D01*
X0091361Y0125015D01*
X0091474Y0124932D01*
X0091584Y0124846D01*
X0091692Y0124757D01*
X0091797Y0124665D01*
X0091900Y0124570D01*
X0092000Y0124472D01*
X0092097Y0124372D01*
X0092191Y0124268D01*
X0092283Y0124162D01*
X0092371Y0124054D01*
X0092456Y0123943D01*
X0092538Y0123829D01*
X0092617Y0123713D01*
X0092692Y0123596D01*
X0092764Y0123476D01*
X0092832Y0123354D01*
X0092897Y0123230D01*
X0092959Y0123104D01*
X0093017Y0122977D01*
X0093071Y0122848D01*
X0093122Y0122717D01*
X0093168Y0122585D01*
X0093211Y0122452D01*
X0093251Y0122318D01*
X0093286Y0122183D01*
X0093318Y0122046D01*
X0093345Y0121909D01*
X0093369Y0121771D01*
X0093389Y0121633D01*
X0093405Y0121494D01*
X0093417Y0121354D01*
X0093425Y0121215D01*
X0093429Y0121075D01*
X0093429Y0120935D01*
X0093425Y0120795D01*
X0093417Y0120656D01*
X0093405Y0120516D01*
X0093389Y0120377D01*
X0093369Y0120239D01*
X0093345Y0120101D01*
X0093318Y0119964D01*
X0093286Y0119827D01*
X0093251Y0119692D01*
X0093211Y0119558D01*
X0093168Y0119425D01*
X0093122Y0119293D01*
X0093071Y0119162D01*
X0093017Y0119033D01*
X0092959Y0118906D01*
X0092897Y0118780D01*
X0092832Y0118656D01*
X0092764Y0118534D01*
X0092692Y0118414D01*
X0092617Y0118297D01*
X0092538Y0118181D01*
X0092456Y0118067D01*
X0092371Y0117956D01*
X0092283Y0117848D01*
X0092191Y0117742D01*
X0092097Y0117638D01*
X0092000Y0117538D01*
X0091900Y0117440D01*
X0091797Y0117345D01*
X0091692Y0117253D01*
X0091584Y0117164D01*
X0091474Y0117078D01*
X0091361Y0116995D01*
X0091246Y0116916D01*
X0091128Y0116840D01*
X0091009Y0116767D01*
X0090887Y0116697D01*
X0090764Y0116632D01*
X0090639Y0116569D01*
X0090512Y0116510D01*
X0090383Y0116455D01*
X0090253Y0116404D01*
X0090122Y0116356D01*
X0089989Y0116312D01*
X0089855Y0116272D01*
X0089720Y0116235D01*
X0089584Y0116203D01*
X0089447Y0116174D01*
X0089309Y0116150D01*
X0089171Y0116129D01*
X0089032Y0116112D01*
X0088892Y0116099D01*
X0088753Y0116090D01*
X0088613Y0116085D01*
X0088473Y0116084D01*
X0088333Y0116087D01*
X0088193Y0116094D01*
X0088054Y0116105D01*
X0087915Y0116120D01*
X0087776Y0116139D01*
X0087638Y0116161D01*
X0087501Y0116188D01*
X0087364Y0116219D01*
X0087229Y0116253D01*
X0087094Y0116291D01*
X0086961Y0116334D01*
X0086829Y0116379D01*
X0086698Y0116429D01*
X0086568Y0116482D01*
X0086441Y0116539D01*
X0086315Y0116600D01*
X0086190Y0116664D01*
X0086068Y0116732D01*
X0085947Y0116803D01*
X0085829Y0116877D01*
X0085713Y0116955D01*
X0085599Y0117036D01*
X0085487Y0117121D01*
X0085378Y0117208D01*
X0085271Y0117298D01*
X0085167Y0117392D01*
X0085066Y0117488D01*
X0084967Y0117588D01*
X0084871Y0117690D01*
X0084779Y0117794D01*
X0084689Y0117902D01*
X0084602Y0118012D01*
X0084519Y0118124D01*
X0084438Y0118238D01*
X0084361Y0118355D01*
X0084288Y0118474D01*
X0084217Y0118595D01*
X0084151Y0118718D01*
X0084087Y0118843D01*
X0084028Y0118969D01*
X0083972Y0119098D01*
X0083919Y0119227D01*
X0083871Y0119358D01*
X0083826Y0119491D01*
X0083785Y0119625D01*
X0083747Y0119760D01*
X0083714Y0119895D01*
X0083684Y0120032D01*
X0083658Y0120170D01*
X0083637Y0120308D01*
X0083619Y0120447D01*
X0083605Y0120586D01*
X0083595Y0120725D01*
X0083589Y0120865D01*
X0083587Y0121005D01*
D12*
X0098708Y0184500D02*
X0099842Y0184500D01*
X0100409Y0185067D01*
X0100409Y0186201D01*
X0099842Y0186769D01*
X0098708Y0186769D01*
X0098140Y0186201D01*
X0098140Y0185634D01*
X0100409Y0185634D01*
X0101824Y0184500D02*
X0103525Y0184500D01*
X0104092Y0185067D01*
X0104092Y0186201D01*
X0103525Y0186769D01*
X0101824Y0186769D01*
X0101824Y0187903D02*
X0101824Y0184500D01*
X0105367Y0184500D02*
X0105934Y0184500D01*
X0105934Y0185067D01*
X0105367Y0185067D01*
X0105367Y0184500D01*
X0107348Y0184500D02*
X0109617Y0184500D01*
X0107348Y0186769D01*
X0109617Y0186769D01*
X0111031Y0187903D02*
X0112166Y0187336D01*
X0113300Y0186201D01*
X0111599Y0186201D01*
X0111031Y0185634D01*
X0111031Y0185067D01*
X0111599Y0184500D01*
X0112733Y0184500D01*
X0113300Y0185067D01*
X0113300Y0186201D01*
X0114715Y0186769D02*
X0116416Y0186769D01*
X0116983Y0186201D01*
X0116416Y0185634D01*
X0115282Y0185634D01*
X0114715Y0185067D01*
X0115282Y0184500D01*
X0116983Y0184500D01*
X0116983Y0190500D02*
X0116983Y0193903D01*
X0115282Y0193903D01*
X0114715Y0193336D01*
X0114715Y0192201D01*
X0115282Y0191634D01*
X0116983Y0191634D01*
X0115849Y0191634D02*
X0114715Y0190500D01*
X0113300Y0190500D02*
X0111031Y0190500D01*
X0112166Y0190500D02*
X0112166Y0193903D01*
X0113300Y0192769D01*
X0112826Y0196500D02*
X0112259Y0197067D01*
X0112259Y0198201D01*
X0112826Y0198769D01*
X0113961Y0198769D01*
X0114528Y0198201D01*
X0114528Y0197067D01*
X0113961Y0196500D01*
X0112826Y0196500D01*
X0110845Y0196500D02*
X0110845Y0198769D01*
X0110845Y0197634D02*
X0109710Y0198769D01*
X0109143Y0198769D01*
X0109617Y0202500D02*
X0109617Y0204769D01*
X0109050Y0204769D01*
X0108483Y0204201D01*
X0107915Y0204769D01*
X0107348Y0204201D01*
X0107348Y0202500D01*
X0108483Y0202500D02*
X0108483Y0204201D01*
X0111031Y0204201D02*
X0111031Y0203634D01*
X0113300Y0203634D01*
X0113300Y0203067D02*
X0113300Y0204201D01*
X0112733Y0204769D01*
X0111599Y0204769D01*
X0111031Y0204201D01*
X0111599Y0202500D02*
X0112733Y0202500D01*
X0113300Y0203067D01*
X0114715Y0202500D02*
X0114715Y0205903D01*
X0116983Y0205903D02*
X0116983Y0202500D01*
X0115849Y0203634D01*
X0114715Y0202500D01*
X0115849Y0199903D02*
X0116416Y0199336D01*
X0116416Y0196500D01*
X0116983Y0198201D02*
X0115849Y0198201D01*
X0109617Y0191067D02*
X0109050Y0191067D01*
X0109050Y0190500D01*
X0109617Y0190500D01*
X0109617Y0191067D01*
X0107775Y0191067D02*
X0107775Y0193336D01*
X0107208Y0193903D01*
X0106074Y0193903D01*
X0105507Y0193336D01*
X0107775Y0191067D01*
X0107208Y0190500D01*
X0106074Y0190500D01*
X0105507Y0191067D01*
X0105507Y0193336D01*
X0103525Y0196500D02*
X0102391Y0196500D01*
X0101824Y0197067D01*
X0101824Y0198201D01*
X0102958Y0198201D01*
X0104092Y0197067D02*
X0104092Y0199336D01*
X0103525Y0199903D01*
X0102391Y0199903D01*
X0101824Y0199336D01*
X0100409Y0198769D02*
X0099842Y0198769D01*
X0099842Y0196500D01*
X0100409Y0196500D02*
X0099275Y0196500D01*
X0096819Y0196500D02*
X0097954Y0198769D01*
X0099842Y0199903D02*
X0099842Y0200470D01*
X0100549Y0202500D02*
X0099982Y0203067D01*
X0100549Y0203634D01*
X0101683Y0203634D01*
X0102251Y0204201D01*
X0101683Y0204769D01*
X0099982Y0204769D01*
X0100549Y0202500D02*
X0102251Y0202500D01*
X0103665Y0203067D02*
X0103665Y0204201D01*
X0104232Y0204769D01*
X0105367Y0204769D01*
X0105934Y0204201D01*
X0105934Y0203067D01*
X0105367Y0202500D01*
X0104232Y0202500D01*
X0103665Y0203067D01*
X0104092Y0197067D02*
X0103525Y0196500D01*
X0098140Y0193903D02*
X0100409Y0190500D01*
X0096819Y0196500D02*
X0095685Y0198769D01*
X0094270Y0198201D02*
X0093703Y0198769D01*
X0092569Y0198769D01*
X0092002Y0198201D01*
X0092002Y0197634D01*
X0094270Y0197634D01*
X0094270Y0197067D02*
X0094270Y0198201D01*
X0094270Y0197067D02*
X0093703Y0196500D01*
X0092569Y0196500D01*
X0090587Y0196500D02*
X0090587Y0198769D01*
X0089453Y0198769D02*
X0090587Y0197634D01*
X0089453Y0198769D02*
X0088886Y0198769D01*
X0087518Y0199903D02*
X0087518Y0196500D01*
X0085249Y0196500D01*
X0083835Y0197067D02*
X0083268Y0197634D01*
X0081566Y0197634D01*
X0081566Y0198201D02*
X0081566Y0196500D01*
X0083268Y0196500D01*
X0083835Y0197067D01*
X0083268Y0198769D02*
X0082133Y0198769D01*
X0081566Y0198201D01*
X0080152Y0198769D02*
X0080152Y0196500D01*
X0079017Y0196500D02*
X0079017Y0198201D01*
X0078450Y0198769D01*
X0077883Y0198201D01*
X0077883Y0196500D01*
X0076469Y0196500D02*
X0074767Y0196500D01*
X0074200Y0197067D01*
X0074200Y0198201D01*
X0074767Y0198769D01*
X0076469Y0198769D01*
X0076469Y0195366D01*
X0078450Y0193903D02*
X0080152Y0192201D01*
X0077883Y0192201D01*
X0078450Y0190500D02*
X0078450Y0193903D01*
X0076469Y0191067D02*
X0075901Y0191067D01*
X0075901Y0190500D01*
X0076469Y0190500D01*
X0076469Y0191067D01*
X0074627Y0190500D02*
X0072358Y0192769D01*
X0072358Y0193336D01*
X0072926Y0193903D01*
X0074060Y0193903D01*
X0074627Y0193336D01*
X0074627Y0190500D02*
X0072358Y0190500D01*
X0070944Y0191067D02*
X0068675Y0193336D01*
X0068675Y0191067D01*
X0069242Y0190500D01*
X0070377Y0190500D01*
X0070944Y0191067D01*
X0070944Y0193336D01*
X0070377Y0193903D01*
X0069242Y0193903D01*
X0068675Y0193336D01*
X0067261Y0193336D02*
X0066694Y0193903D01*
X0065559Y0193903D01*
X0064992Y0193336D01*
X0064992Y0192769D01*
X0067261Y0190500D01*
X0064992Y0190500D01*
X0063578Y0191067D02*
X0063578Y0193336D01*
X0063010Y0193903D01*
X0061876Y0193903D01*
X0061309Y0193336D01*
X0063578Y0191067D01*
X0063010Y0190500D01*
X0061876Y0190500D01*
X0061309Y0191067D01*
X0061309Y0193336D01*
X0061169Y0196500D02*
X0059467Y0196500D01*
X0059467Y0199903D01*
X0059467Y0198769D02*
X0061169Y0198769D01*
X0061736Y0198201D01*
X0061736Y0197067D01*
X0061169Y0196500D01*
X0063151Y0197067D02*
X0063151Y0198201D01*
X0063718Y0198769D01*
X0064852Y0198769D01*
X0065419Y0198201D01*
X0065419Y0197067D01*
X0064852Y0196500D01*
X0063718Y0196500D01*
X0063151Y0197067D01*
X0066834Y0196500D02*
X0066834Y0199903D01*
X0067968Y0198769D01*
X0069102Y0199903D01*
X0069102Y0196500D01*
X0070517Y0198201D02*
X0072785Y0198201D01*
X0076655Y0202500D02*
X0078357Y0202500D01*
X0078924Y0203067D01*
X0078924Y0204201D01*
X0078357Y0204769D01*
X0076655Y0204769D01*
X0076655Y0205903D02*
X0076655Y0202500D01*
X0079585Y0198769D02*
X0079017Y0198201D01*
X0079585Y0198769D02*
X0080152Y0198769D01*
X0080245Y0202500D02*
X0081379Y0202500D01*
X0080812Y0202500D02*
X0080812Y0205903D01*
X0081379Y0205903D01*
X0082794Y0204201D02*
X0082794Y0203634D01*
X0085063Y0203634D01*
X0085063Y0203067D02*
X0085063Y0204201D01*
X0084495Y0204769D01*
X0083361Y0204769D01*
X0082794Y0204201D01*
X0083361Y0202500D02*
X0084495Y0202500D01*
X0085063Y0203067D01*
X0086384Y0202500D02*
X0087518Y0202500D01*
X0086951Y0202500D02*
X0086951Y0204769D01*
X0087518Y0204769D01*
X0086951Y0205903D02*
X0086951Y0206470D01*
X0088933Y0204201D02*
X0088933Y0202500D01*
X0088933Y0204201D02*
X0089500Y0204769D01*
X0090634Y0204769D01*
X0091201Y0204201D01*
X0092616Y0203634D02*
X0092616Y0203067D01*
X0093183Y0202500D01*
X0094317Y0202500D01*
X0094884Y0203067D01*
X0094317Y0204201D02*
X0093183Y0204201D01*
X0092616Y0203634D01*
X0092616Y0205336D02*
X0093183Y0205903D01*
X0094317Y0205903D01*
X0094884Y0205336D01*
X0094884Y0204769D01*
X0094317Y0204201D01*
X0091201Y0205903D02*
X0091201Y0202500D01*
X0091908Y0193903D02*
X0091908Y0190500D01*
X0090774Y0190500D02*
X0093043Y0190500D01*
X0093043Y0192769D02*
X0091908Y0193903D01*
X0089360Y0193336D02*
X0088792Y0193903D01*
X0087658Y0193903D01*
X0087091Y0193336D01*
X0087091Y0192769D01*
X0089360Y0190500D01*
X0087091Y0190500D01*
X0085676Y0190500D02*
X0085109Y0190500D01*
X0085109Y0191067D01*
X0085676Y0191067D01*
X0085676Y0190500D01*
X0083835Y0191067D02*
X0083835Y0193336D01*
X0083268Y0193903D01*
X0082133Y0193903D01*
X0081566Y0193336D01*
X0083835Y0191067D01*
X0083268Y0190500D01*
X0082133Y0190500D01*
X0081566Y0191067D01*
X0081566Y0193336D01*
X0146433Y0044924D02*
X0146133Y0043324D01*
X0144933Y0042824D01*
X0143533Y0043724D01*
X0142633Y0042824D01*
X0143533Y0041524D01*
X0143033Y0040324D01*
X0141533Y0040024D01*
X0141533Y0038724D01*
X0142933Y0038424D01*
X0143533Y0037124D01*
X0142633Y0035824D01*
X0143533Y0034924D01*
X0144733Y0035724D01*
X0145333Y0035424D01*
X0146233Y0037724D01*
X0145633Y0037424D02*
X0144633Y0039424D01*
X0145633Y0040924D01*
X0147133Y0041424D01*
X0148633Y0040924D01*
X0149133Y0039424D01*
X0148633Y0037924D01*
X0148133Y0037424D01*
X0149133Y0035924D01*
X0150633Y0035424D01*
X0151133Y0035924D01*
X0150133Y0037424D01*
X0151133Y0038924D01*
X0152133Y0038924D01*
X0152133Y0039924D01*
X0150633Y0039924D01*
X0150133Y0041424D01*
X0151133Y0042924D01*
X0150633Y0043424D01*
X0149133Y0042424D01*
X0147633Y0043424D01*
X0147633Y0044424D01*
X0146633Y0044424D01*
X0146133Y0042924D01*
X0144633Y0042424D01*
X0143633Y0043424D01*
X0143133Y0042924D01*
X0143633Y0041424D01*
X0143133Y0039924D01*
X0141633Y0039924D01*
X0142133Y0038924D01*
X0143633Y0038424D01*
X0143633Y0036924D01*
X0143133Y0035924D01*
X0143633Y0035424D01*
X0144633Y0035924D01*
X0145133Y0035924D01*
X0145633Y0037424D01*
X0145540Y0037609D02*
X0143633Y0037609D01*
X0143633Y0038207D02*
X0145241Y0038207D01*
X0144942Y0038806D02*
X0142489Y0038806D01*
X0141893Y0039404D02*
X0144643Y0039404D01*
X0145018Y0040003D02*
X0143159Y0040003D01*
X0143358Y0040601D02*
X0145417Y0040601D01*
X0146459Y0041200D02*
X0143558Y0041200D01*
X0143508Y0041798D02*
X0150382Y0041798D01*
X0150533Y0041524D02*
X0151433Y0042824D01*
X0150533Y0043724D01*
X0149233Y0042824D01*
X0148033Y0043324D01*
X0147733Y0044924D01*
X0146433Y0044924D01*
X0146555Y0044192D02*
X0147633Y0044192D01*
X0147633Y0043594D02*
X0146356Y0043594D01*
X0146156Y0042995D02*
X0148276Y0042995D01*
X0149989Y0042995D02*
X0151062Y0042995D01*
X0150781Y0042397D02*
X0143308Y0042397D01*
X0143203Y0042995D02*
X0144062Y0042995D01*
X0146233Y0037724D02*
X0146159Y0037763D01*
X0146086Y0037806D01*
X0146016Y0037852D01*
X0145948Y0037902D01*
X0145882Y0037954D01*
X0145819Y0038010D01*
X0145759Y0038068D01*
X0145701Y0038129D01*
X0145647Y0038193D01*
X0145595Y0038259D01*
X0145547Y0038328D01*
X0145502Y0038399D01*
X0145460Y0038472D01*
X0145422Y0038547D01*
X0145387Y0038623D01*
X0145356Y0038701D01*
X0145328Y0038781D01*
X0145305Y0038862D01*
X0145285Y0038943D01*
X0145269Y0039026D01*
X0145257Y0039109D01*
X0145249Y0039193D01*
X0145245Y0039276D01*
X0145244Y0039361D01*
X0145248Y0039444D01*
X0145256Y0039528D01*
X0145267Y0039611D01*
X0145283Y0039694D01*
X0145302Y0039776D01*
X0145325Y0039857D01*
X0145352Y0039936D01*
X0145383Y0040015D01*
X0145417Y0040091D01*
X0145455Y0040166D01*
X0145496Y0040239D01*
X0145541Y0040311D01*
X0145589Y0040380D01*
X0145640Y0040446D01*
X0145694Y0040511D01*
X0145751Y0040572D01*
X0145811Y0040631D01*
X0145874Y0040687D01*
X0145939Y0040740D01*
X0146007Y0040790D01*
X0146077Y0040836D01*
X0146149Y0040879D01*
X0146223Y0040919D01*
X0146299Y0040955D01*
X0146376Y0040988D01*
X0146455Y0041017D01*
X0146535Y0041042D01*
X0146617Y0041064D01*
X0146699Y0041082D01*
X0146782Y0041095D01*
X0146865Y0041105D01*
X0146949Y0041111D01*
X0147033Y0041113D01*
X0147117Y0041111D01*
X0147201Y0041105D01*
X0147284Y0041095D01*
X0147367Y0041082D01*
X0147449Y0041064D01*
X0147531Y0041042D01*
X0147611Y0041017D01*
X0147690Y0040988D01*
X0147767Y0040955D01*
X0147843Y0040919D01*
X0147917Y0040879D01*
X0147989Y0040836D01*
X0148059Y0040790D01*
X0148127Y0040740D01*
X0148192Y0040687D01*
X0148255Y0040631D01*
X0148315Y0040572D01*
X0148372Y0040511D01*
X0148426Y0040446D01*
X0148477Y0040380D01*
X0148525Y0040311D01*
X0148570Y0040239D01*
X0148611Y0040166D01*
X0148649Y0040091D01*
X0148683Y0040015D01*
X0148714Y0039936D01*
X0148741Y0039857D01*
X0148764Y0039776D01*
X0148783Y0039694D01*
X0148799Y0039611D01*
X0148810Y0039528D01*
X0148818Y0039444D01*
X0148822Y0039361D01*
X0148821Y0039276D01*
X0148817Y0039193D01*
X0148809Y0039109D01*
X0148797Y0039026D01*
X0148781Y0038943D01*
X0148761Y0038862D01*
X0148738Y0038781D01*
X0148710Y0038701D01*
X0148679Y0038623D01*
X0148644Y0038547D01*
X0148606Y0038472D01*
X0148564Y0038399D01*
X0148519Y0038328D01*
X0148471Y0038259D01*
X0148419Y0038193D01*
X0148365Y0038129D01*
X0148307Y0038068D01*
X0148247Y0038010D01*
X0148184Y0037954D01*
X0148118Y0037902D01*
X0148050Y0037852D01*
X0147980Y0037806D01*
X0147907Y0037763D01*
X0147833Y0037724D01*
X0148833Y0035424D01*
X0149333Y0035724D01*
X0150533Y0034924D01*
X0151433Y0035824D01*
X0150633Y0037124D01*
X0151133Y0038424D01*
X0152633Y0038724D01*
X0152633Y0040024D01*
X0151133Y0040224D01*
X0150533Y0041524D01*
X0150207Y0041200D02*
X0147807Y0041200D01*
X0148740Y0040601D02*
X0150407Y0040601D01*
X0150606Y0040003D02*
X0148940Y0040003D01*
X0149126Y0039404D02*
X0152133Y0039404D01*
X0151053Y0038806D02*
X0148926Y0038806D01*
X0148727Y0038207D02*
X0150654Y0038207D01*
X0150255Y0037609D02*
X0148317Y0037609D01*
X0148409Y0037010D02*
X0150409Y0037010D01*
X0150808Y0036412D02*
X0148808Y0036412D01*
X0149466Y0035813D02*
X0151021Y0035813D01*
X0145494Y0037010D02*
X0143633Y0037010D01*
X0143376Y0036412D02*
X0145295Y0036412D01*
X0144410Y0035813D02*
X0143244Y0035813D01*
X0085008Y0017050D02*
X0081008Y0017050D01*
X0067508Y0017050D02*
X0067511Y0017320D01*
X0067521Y0017590D01*
X0067538Y0017859D01*
X0067561Y0018128D01*
X0067591Y0018397D01*
X0067627Y0018664D01*
X0067670Y0018931D01*
X0067719Y0019196D01*
X0067775Y0019460D01*
X0067838Y0019723D01*
X0067906Y0019984D01*
X0067982Y0020243D01*
X0068063Y0020500D01*
X0068151Y0020756D01*
X0068245Y0021009D01*
X0068345Y0021260D01*
X0068452Y0021508D01*
X0068564Y0021753D01*
X0068683Y0021996D01*
X0068807Y0022235D01*
X0068937Y0022472D01*
X0069073Y0022705D01*
X0069215Y0022935D01*
X0069362Y0023161D01*
X0069515Y0023384D01*
X0069673Y0023603D01*
X0069836Y0023818D01*
X0070005Y0024028D01*
X0070179Y0024235D01*
X0070358Y0024437D01*
X0070541Y0024635D01*
X0070730Y0024828D01*
X0070923Y0025017D01*
X0071121Y0025200D01*
X0071323Y0025379D01*
X0071530Y0025553D01*
X0071740Y0025722D01*
X0071955Y0025885D01*
X0072174Y0026043D01*
X0072397Y0026196D01*
X0072623Y0026343D01*
X0072853Y0026485D01*
X0073086Y0026621D01*
X0073323Y0026751D01*
X0073562Y0026875D01*
X0073805Y0026994D01*
X0074050Y0027106D01*
X0074298Y0027213D01*
X0074549Y0027313D01*
X0074802Y0027407D01*
X0075058Y0027495D01*
X0075315Y0027576D01*
X0075574Y0027652D01*
X0075835Y0027720D01*
X0076098Y0027783D01*
X0076362Y0027839D01*
X0076627Y0027888D01*
X0076894Y0027931D01*
X0077161Y0027967D01*
X0077430Y0027997D01*
X0077699Y0028020D01*
X0077968Y0028037D01*
X0078238Y0028047D01*
X0078508Y0028050D01*
X0078778Y0028047D01*
X0079048Y0028037D01*
X0079317Y0028020D01*
X0079586Y0027997D01*
X0079855Y0027967D01*
X0080122Y0027931D01*
X0080389Y0027888D01*
X0080654Y0027839D01*
X0080918Y0027783D01*
X0081181Y0027720D01*
X0081442Y0027652D01*
X0081701Y0027576D01*
X0081958Y0027495D01*
X0082214Y0027407D01*
X0082467Y0027313D01*
X0082718Y0027213D01*
X0082966Y0027106D01*
X0083211Y0026994D01*
X0083454Y0026875D01*
X0083693Y0026751D01*
X0083930Y0026621D01*
X0084163Y0026485D01*
X0084393Y0026343D01*
X0084619Y0026196D01*
X0084842Y0026043D01*
X0085061Y0025885D01*
X0085276Y0025722D01*
X0085486Y0025553D01*
X0085693Y0025379D01*
X0085895Y0025200D01*
X0086093Y0025017D01*
X0086286Y0024828D01*
X0086475Y0024635D01*
X0086658Y0024437D01*
X0086837Y0024235D01*
X0087011Y0024028D01*
X0087180Y0023818D01*
X0087343Y0023603D01*
X0087501Y0023384D01*
X0087654Y0023161D01*
X0087801Y0022935D01*
X0087943Y0022705D01*
X0088079Y0022472D01*
X0088209Y0022235D01*
X0088333Y0021996D01*
X0088452Y0021753D01*
X0088564Y0021508D01*
X0088671Y0021260D01*
X0088771Y0021009D01*
X0088865Y0020756D01*
X0088953Y0020500D01*
X0089034Y0020243D01*
X0089110Y0019984D01*
X0089178Y0019723D01*
X0089241Y0019460D01*
X0089297Y0019196D01*
X0089346Y0018931D01*
X0089389Y0018664D01*
X0089425Y0018397D01*
X0089455Y0018128D01*
X0089478Y0017859D01*
X0089495Y0017590D01*
X0089505Y0017320D01*
X0089508Y0017050D01*
X0089505Y0016780D01*
X0089495Y0016510D01*
X0089478Y0016241D01*
X0089455Y0015972D01*
X0089425Y0015703D01*
X0089389Y0015436D01*
X0089346Y0015169D01*
X0089297Y0014904D01*
X0089241Y0014640D01*
X0089178Y0014377D01*
X0089110Y0014116D01*
X0089034Y0013857D01*
X0088953Y0013600D01*
X0088865Y0013344D01*
X0088771Y0013091D01*
X0088671Y0012840D01*
X0088564Y0012592D01*
X0088452Y0012347D01*
X0088333Y0012104D01*
X0088209Y0011865D01*
X0088079Y0011628D01*
X0087943Y0011395D01*
X0087801Y0011165D01*
X0087654Y0010939D01*
X0087501Y0010716D01*
X0087343Y0010497D01*
X0087180Y0010282D01*
X0087011Y0010072D01*
X0086837Y0009865D01*
X0086658Y0009663D01*
X0086475Y0009465D01*
X0086286Y0009272D01*
X0086093Y0009083D01*
X0085895Y0008900D01*
X0085693Y0008721D01*
X0085486Y0008547D01*
X0085276Y0008378D01*
X0085061Y0008215D01*
X0084842Y0008057D01*
X0084619Y0007904D01*
X0084393Y0007757D01*
X0084163Y0007615D01*
X0083930Y0007479D01*
X0083693Y0007349D01*
X0083454Y0007225D01*
X0083211Y0007106D01*
X0082966Y0006994D01*
X0082718Y0006887D01*
X0082467Y0006787D01*
X0082214Y0006693D01*
X0081958Y0006605D01*
X0081701Y0006524D01*
X0081442Y0006448D01*
X0081181Y0006380D01*
X0080918Y0006317D01*
X0080654Y0006261D01*
X0080389Y0006212D01*
X0080122Y0006169D01*
X0079855Y0006133D01*
X0079586Y0006103D01*
X0079317Y0006080D01*
X0079048Y0006063D01*
X0078778Y0006053D01*
X0078508Y0006050D01*
X0078238Y0006053D01*
X0077968Y0006063D01*
X0077699Y0006080D01*
X0077430Y0006103D01*
X0077161Y0006133D01*
X0076894Y0006169D01*
X0076627Y0006212D01*
X0076362Y0006261D01*
X0076098Y0006317D01*
X0075835Y0006380D01*
X0075574Y0006448D01*
X0075315Y0006524D01*
X0075058Y0006605D01*
X0074802Y0006693D01*
X0074549Y0006787D01*
X0074298Y0006887D01*
X0074050Y0006994D01*
X0073805Y0007106D01*
X0073562Y0007225D01*
X0073323Y0007349D01*
X0073086Y0007479D01*
X0072853Y0007615D01*
X0072623Y0007757D01*
X0072397Y0007904D01*
X0072174Y0008057D01*
X0071955Y0008215D01*
X0071740Y0008378D01*
X0071530Y0008547D01*
X0071323Y0008721D01*
X0071121Y0008900D01*
X0070923Y0009083D01*
X0070730Y0009272D01*
X0070541Y0009465D01*
X0070358Y0009663D01*
X0070179Y0009865D01*
X0070005Y0010072D01*
X0069836Y0010282D01*
X0069673Y0010497D01*
X0069515Y0010716D01*
X0069362Y0010939D01*
X0069215Y0011165D01*
X0069073Y0011395D01*
X0068937Y0011628D01*
X0068807Y0011865D01*
X0068683Y0012104D01*
X0068564Y0012347D01*
X0068452Y0012592D01*
X0068345Y0012840D01*
X0068245Y0013091D01*
X0068151Y0013344D01*
X0068063Y0013600D01*
X0067982Y0013857D01*
X0067906Y0014116D01*
X0067838Y0014377D01*
X0067775Y0014640D01*
X0067719Y0014904D01*
X0067670Y0015169D01*
X0067627Y0015436D01*
X0067591Y0015703D01*
X0067561Y0015972D01*
X0067538Y0016241D01*
X0067521Y0016510D01*
X0067511Y0016780D01*
X0067508Y0017050D01*
X0068008Y0017050D02*
X0070008Y0017050D01*
X0069008Y0018050D02*
X0069008Y0016050D01*
X0072008Y0017050D02*
X0075508Y0017050D01*
X0075508Y0012050D01*
X0077508Y0012050D01*
X0077508Y0022050D01*
X0075508Y0022050D01*
X0075508Y0017050D01*
D13*
X0063008Y0018062D02*
X0063008Y0023188D01*
X0063008Y0027125D02*
X0063008Y0032250D01*
X0058508Y0032250D01*
X0054571Y0032250D02*
X0050070Y0032250D01*
X0046133Y0032250D02*
X0041633Y0032250D01*
X0037696Y0032250D02*
X0033196Y0032250D01*
X0029259Y0032250D02*
X0024758Y0032250D01*
X0024758Y0027125D01*
X0024758Y0023188D02*
X0024758Y0018062D01*
X0024758Y0014125D02*
X0024758Y0009000D01*
X0029259Y0009000D01*
X0033196Y0009000D02*
X0037696Y0009000D01*
X0041633Y0009000D02*
X0046133Y0009000D01*
X0050070Y0009000D02*
X0054571Y0009000D01*
X0058508Y0009000D02*
X0063008Y0009000D01*
X0063008Y0014125D01*
X0094958Y0014125D02*
X0094958Y0009000D01*
X0099898Y0009000D01*
X0103835Y0009000D02*
X0108775Y0009000D01*
X0112712Y0009000D02*
X0117651Y0009000D01*
X0121588Y0009000D02*
X0126528Y0009000D01*
X0130465Y0009000D02*
X0135405Y0009000D01*
X0139342Y0009000D02*
X0144281Y0009000D01*
X0148218Y0009000D02*
X0153158Y0009000D01*
X0153158Y0014125D01*
X0153158Y0018062D02*
X0153158Y0023188D01*
X0153158Y0027125D02*
X0153158Y0032250D01*
X0148218Y0032250D01*
X0144281Y0032250D02*
X0139342Y0032250D01*
X0135405Y0032250D02*
X0130465Y0032250D01*
X0126528Y0032250D02*
X0121588Y0032250D01*
X0117651Y0032250D02*
X0112712Y0032250D01*
X0108775Y0032250D02*
X0103835Y0032250D01*
X0099898Y0032250D02*
X0094958Y0032250D01*
X0094958Y0027125D01*
X0094958Y0023188D02*
X0094958Y0018062D01*
X0093231Y0220395D02*
X0088229Y0220395D01*
X0084292Y0220395D02*
X0079289Y0220395D01*
X0075352Y0220395D02*
X0070350Y0220395D01*
X0066413Y0220395D02*
X0061410Y0220395D01*
X0061410Y0223427D01*
X0061410Y0227364D02*
X0061410Y0230395D01*
X0066413Y0230395D01*
X0070350Y0230395D02*
X0075352Y0230395D01*
X0079289Y0230395D02*
X0084292Y0230395D01*
X0088229Y0230395D02*
X0093231Y0230395D01*
X0097169Y0230395D02*
X0102171Y0230395D01*
X0106108Y0230395D02*
X0111110Y0230395D01*
X0111110Y0227364D01*
X0111110Y0223427D02*
X0111110Y0220395D01*
X0106108Y0220395D01*
X0102171Y0220395D02*
X0097169Y0220395D01*
X0116410Y0220395D02*
X0116410Y0222927D01*
X0116410Y0220395D02*
X0121101Y0220395D01*
X0125038Y0220395D02*
X0129728Y0220395D01*
X0133665Y0220395D02*
X0138356Y0220395D01*
X0142293Y0220395D02*
X0146983Y0220395D01*
X0150920Y0220395D02*
X0155610Y0220395D01*
X0155610Y0223427D01*
X0155610Y0227364D02*
X0155610Y0230395D01*
X0151160Y0230395D01*
X0147223Y0230395D02*
X0142773Y0230395D01*
X0138836Y0230395D02*
X0134385Y0230395D01*
X0130448Y0230395D02*
X0125998Y0230395D01*
X0122061Y0230395D02*
X0117610Y0230395D01*
X0116410Y0229395D02*
X0116410Y0226864D01*
X0051110Y0227364D02*
X0051110Y0230395D01*
X0046638Y0230395D01*
X0042701Y0230395D02*
X0038229Y0230395D01*
X0034292Y0230395D02*
X0029820Y0230395D01*
X0025883Y0230395D02*
X0021410Y0230395D01*
X0021410Y0227364D01*
X0021410Y0223427D02*
X0021410Y0220395D01*
X0025883Y0220395D01*
X0029820Y0220395D02*
X0034292Y0220395D01*
X0038229Y0220395D02*
X0042701Y0220395D01*
X0046638Y0220395D02*
X0051110Y0220395D01*
X0051110Y0223427D01*
D14*
X0080508Y0017050D03*
D15*
X0066382Y0041174D02*
X0060673Y0046883D01*
X0060673Y0055741D01*
X0060673Y0067159D01*
X0060673Y0076017D01*
X0066382Y0081726D01*
X0106343Y0081726D01*
X0106343Y0067159D01*
X0106343Y0055741D01*
X0106343Y0041174D01*
X0066382Y0041174D01*
X0102012Y0055938D02*
X0102139Y0056386D01*
X0102256Y0056837D01*
X0102362Y0057291D01*
X0102457Y0057747D01*
X0102540Y0058205D01*
X0102613Y0058665D01*
X0102675Y0059127D01*
X0102725Y0059590D01*
X0102764Y0060054D01*
X0102793Y0060519D01*
X0102809Y0060984D01*
X0102815Y0061450D01*
X0102809Y0061916D01*
X0102793Y0062381D01*
X0102764Y0062846D01*
X0102725Y0063310D01*
X0102675Y0063773D01*
X0102613Y0064235D01*
X0102540Y0064695D01*
X0102457Y0065153D01*
X0102362Y0065609D01*
X0102256Y0066063D01*
X0102139Y0066514D01*
X0102012Y0066962D01*
X0101872Y0067412D01*
X0101721Y0067858D01*
X0101559Y0068300D01*
X0101386Y0068739D01*
X0101203Y0069173D01*
X0101009Y0069603D01*
X0100805Y0070027D01*
X0100591Y0070447D01*
X0100366Y0070861D01*
X0100131Y0071270D01*
X0099887Y0071672D01*
X0099632Y0072069D01*
X0099369Y0072459D01*
X0099095Y0072843D01*
X0098812Y0073220D01*
X0098521Y0073590D01*
X0098220Y0073953D01*
X0097910Y0074308D01*
X0097592Y0074656D01*
X0097266Y0074995D01*
X0096931Y0075327D01*
X0096589Y0075651D01*
X0096238Y0075966D01*
X0095880Y0076272D01*
X0095515Y0076569D01*
X0095142Y0076858D01*
X0094763Y0077137D01*
X0094377Y0077407D01*
X0093984Y0077668D01*
X0093585Y0077919D01*
X0093180Y0078160D01*
X0092770Y0078391D01*
X0092353Y0078612D01*
X0091932Y0078822D01*
X0091506Y0079023D01*
X0091074Y0079213D01*
X0090639Y0079392D01*
X0090199Y0079561D01*
X0089755Y0079719D01*
X0089307Y0079866D01*
X0088856Y0080002D01*
X0088402Y0080127D01*
X0087944Y0080240D01*
X0087485Y0080343D01*
X0087022Y0080434D01*
X0086558Y0080515D01*
X0086092Y0080583D01*
X0085624Y0080641D01*
X0085155Y0080687D01*
X0084685Y0080721D01*
X0084215Y0080744D01*
X0083744Y0080756D01*
X0083272Y0080756D01*
X0082801Y0080744D01*
X0082331Y0080721D01*
X0081861Y0080687D01*
X0081392Y0080641D01*
X0080924Y0080583D01*
X0080458Y0080515D01*
X0079994Y0080434D01*
X0079531Y0080343D01*
X0079072Y0080240D01*
X0078614Y0080127D01*
X0078160Y0080002D01*
X0077709Y0079866D01*
X0077261Y0079719D01*
X0076817Y0079561D01*
X0076377Y0079392D01*
X0075942Y0079213D01*
X0075510Y0079023D01*
X0075084Y0078822D01*
X0074663Y0078612D01*
X0074246Y0078391D01*
X0073836Y0078160D01*
X0073431Y0077919D01*
X0073032Y0077668D01*
X0072639Y0077407D01*
X0072253Y0077137D01*
X0071874Y0076858D01*
X0071501Y0076569D01*
X0071136Y0076272D01*
X0070778Y0075966D01*
X0070427Y0075651D01*
X0070085Y0075327D01*
X0069750Y0074995D01*
X0069424Y0074656D01*
X0069106Y0074308D01*
X0068796Y0073953D01*
X0068495Y0073590D01*
X0068204Y0073220D01*
X0067921Y0072843D01*
X0067647Y0072459D01*
X0067384Y0072069D01*
X0067129Y0071672D01*
X0066885Y0071270D01*
X0066650Y0070861D01*
X0066425Y0070447D01*
X0066211Y0070027D01*
X0066007Y0069603D01*
X0065813Y0069173D01*
X0065630Y0068739D01*
X0065457Y0068300D01*
X0065295Y0067858D01*
X0065144Y0067412D01*
X0065004Y0066962D01*
X0064877Y0066514D01*
X0064760Y0066063D01*
X0064654Y0065609D01*
X0064559Y0065153D01*
X0064476Y0064695D01*
X0064403Y0064235D01*
X0064341Y0063773D01*
X0064291Y0063310D01*
X0064252Y0062846D01*
X0064223Y0062381D01*
X0064207Y0061916D01*
X0064201Y0061450D01*
X0064207Y0060984D01*
X0064223Y0060519D01*
X0064252Y0060054D01*
X0064291Y0059590D01*
X0064341Y0059127D01*
X0064403Y0058665D01*
X0064476Y0058205D01*
X0064559Y0057747D01*
X0064654Y0057291D01*
X0064760Y0056837D01*
X0064877Y0056386D01*
X0065004Y0055938D01*
X0065144Y0055488D01*
X0065295Y0055042D01*
X0065457Y0054600D01*
X0065630Y0054161D01*
X0065813Y0053727D01*
X0066007Y0053297D01*
X0066211Y0052873D01*
X0066425Y0052453D01*
X0066650Y0052039D01*
X0066885Y0051630D01*
X0067129Y0051228D01*
X0067384Y0050831D01*
X0067647Y0050441D01*
X0067921Y0050057D01*
X0068204Y0049680D01*
X0068495Y0049310D01*
X0068796Y0048947D01*
X0069106Y0048592D01*
X0069424Y0048244D01*
X0069750Y0047905D01*
X0070085Y0047573D01*
X0070427Y0047249D01*
X0070778Y0046934D01*
X0071136Y0046628D01*
X0071501Y0046331D01*
X0071874Y0046042D01*
X0072253Y0045763D01*
X0072639Y0045493D01*
X0073032Y0045232D01*
X0073431Y0044981D01*
X0073836Y0044740D01*
X0074246Y0044509D01*
X0074663Y0044288D01*
X0075084Y0044078D01*
X0075510Y0043877D01*
X0075942Y0043687D01*
X0076377Y0043508D01*
X0076817Y0043339D01*
X0077261Y0043181D01*
X0077709Y0043034D01*
X0078160Y0042898D01*
X0078614Y0042773D01*
X0079072Y0042660D01*
X0079531Y0042557D01*
X0079994Y0042466D01*
X0080458Y0042385D01*
X0080924Y0042317D01*
X0081392Y0042259D01*
X0081861Y0042213D01*
X0082331Y0042179D01*
X0082801Y0042156D01*
X0083272Y0042144D01*
X0083744Y0042144D01*
X0084215Y0042156D01*
X0084685Y0042179D01*
X0085155Y0042213D01*
X0085624Y0042259D01*
X0086092Y0042317D01*
X0086558Y0042385D01*
X0087022Y0042466D01*
X0087485Y0042557D01*
X0087944Y0042660D01*
X0088402Y0042773D01*
X0088856Y0042898D01*
X0089307Y0043034D01*
X0089755Y0043181D01*
X0090199Y0043339D01*
X0090639Y0043508D01*
X0091074Y0043687D01*
X0091506Y0043877D01*
X0091932Y0044078D01*
X0092353Y0044288D01*
X0092770Y0044509D01*
X0093180Y0044740D01*
X0093585Y0044981D01*
X0093984Y0045232D01*
X0094377Y0045493D01*
X0094763Y0045763D01*
X0095142Y0046042D01*
X0095515Y0046331D01*
X0095880Y0046628D01*
X0096238Y0046934D01*
X0096589Y0047249D01*
X0096931Y0047573D01*
X0097266Y0047905D01*
X0097592Y0048244D01*
X0097910Y0048592D01*
X0098220Y0048947D01*
X0098521Y0049310D01*
X0098812Y0049680D01*
X0099095Y0050057D01*
X0099369Y0050441D01*
X0099632Y0050831D01*
X0099887Y0051228D01*
X0100131Y0051630D01*
X0100366Y0052039D01*
X0100591Y0052453D01*
X0100805Y0052873D01*
X0101009Y0053297D01*
X0101203Y0053727D01*
X0101386Y0054161D01*
X0101559Y0054600D01*
X0101721Y0055042D01*
X0101872Y0055488D01*
X0102012Y0055938D01*
M02*
