G75*
%MOIN*%
%OFA0B0*%
%FSLAX25Y25*%
%IPPOS*%
%LPD*%
%AMOC8*
5,1,8,0,0,1.08239X$1,22.5*
%
%ADD10C,0.00000*%
%ADD11R,0.00100X0.00100*%
%ADD12R,0.00700X0.00100*%
%ADD13R,0.01500X0.00100*%
%ADD14R,0.01700X0.00100*%
%ADD15R,0.01800X0.00100*%
%ADD16R,0.02000X0.00100*%
%ADD17R,0.01900X0.00100*%
%ADD18R,0.00300X0.00100*%
%ADD19R,0.00600X0.00100*%
%ADD20R,0.01600X0.00100*%
%ADD21R,0.00900X0.00100*%
%ADD22R,0.01200X0.00100*%
%ADD23R,0.00200X0.00100*%
%ADD24R,0.01400X0.00100*%
%ADD25R,0.01100X0.00100*%
%ADD26R,0.02100X0.00100*%
%ADD27R,0.02300X0.00100*%
%ADD28R,0.02400X0.00100*%
%ADD29R,0.00400X0.00100*%
%ADD30R,0.02200X0.00100*%
%ADD31R,0.00500X0.00100*%
%ADD32R,0.01300X0.00100*%
%ADD33R,0.00800X0.00100*%
%ADD34R,0.02500X0.00100*%
%ADD35R,0.02700X0.00100*%
%ADD36R,0.02900X0.00100*%
%ADD37R,0.03100X0.00100*%
%ADD38R,0.03700X0.00100*%
%ADD39R,0.03800X0.00100*%
%ADD40R,0.03900X0.00100*%
%ADD41R,0.04000X0.00100*%
%ADD42R,0.05100X0.00100*%
%ADD43R,0.04800X0.00100*%
%ADD44R,0.04700X0.00100*%
%ADD45R,0.03000X0.00100*%
%ADD46R,0.06200X0.00100*%
%ADD47R,0.06000X0.00100*%
%ADD48R,0.07400X0.00100*%
%ADD49R,0.02800X0.00100*%
%ADD50R,0.07600X0.00100*%
%ADD51R,0.07700X0.00100*%
%ADD52R,0.08200X0.00100*%
%ADD53R,0.08600X0.00100*%
%ADD54R,0.05200X0.00100*%
%ADD55R,0.02600X0.00100*%
%ADD56R,0.01000X0.00100*%
%ADD57R,0.04100X0.00100*%
%ADD58R,0.03300X0.00100*%
%ADD59R,0.03600X0.00100*%
%ADD60R,0.04200X0.00100*%
%ADD61R,0.04400X0.00100*%
%ADD62R,0.04600X0.00100*%
%ADD63R,0.03200X0.00100*%
%ADD64R,0.05000X0.00100*%
%ADD65R,0.03500X0.00100*%
%ADD66R,0.09400X0.00100*%
%ADD67R,0.09300X0.00100*%
%ADD68R,0.09200X0.00100*%
%ADD69R,0.09100X0.00100*%
%ADD70R,0.09000X0.00100*%
%ADD71R,0.08900X0.00100*%
%ADD72R,0.08800X0.00100*%
%ADD73R,0.08700X0.00100*%
%ADD74R,0.08500X0.00100*%
%ADD75R,0.08400X0.00100*%
%ADD76R,0.08300X0.00100*%
%ADD77R,0.08100X0.00100*%
%ADD78R,0.06700X0.00100*%
%ADD79R,0.06400X0.00100*%
%ADD80R,0.05900X0.00100*%
%ADD81R,0.05700X0.00100*%
%ADD82R,0.05400X0.00100*%
%ADD83R,0.04300X0.00100*%
%ADD84R,0.04900X0.00100*%
%ADD85R,0.05600X0.00100*%
%ADD86R,0.06100X0.00100*%
%ADD87R,0.04500X0.00100*%
%ADD88R,0.03400X0.00100*%
%ADD89R,0.05800X0.00100*%
%ADD90R,0.05300X0.00100*%
%ADD91R,0.09000X0.10630*%
%ADD92R,0.05118X0.05906*%
%ADD93R,0.03543X0.04724*%
%ADD94R,0.05906X0.05118*%
%ADD95OC8,0.05150*%
%ADD96R,0.05000X0.02500*%
%ADD97R,0.06000X0.06000*%
%ADD98OC8,0.06000*%
%ADD99OC8,0.06200*%
%ADD100C,0.06200*%
%ADD101R,0.03937X0.05512*%
%ADD102C,0.07050*%
%ADD103R,0.06890X0.10433*%
%ADD104C,0.02400*%
%ADD105C,0.03200*%
%ADD106C,0.01600*%
%ADD107R,0.03562X0.03562*%
%ADD108C,0.02400*%
D10*
X0019610Y0005895D02*
X0019610Y0057029D01*
X0024532Y0057029D01*
X0024656Y0057031D01*
X0024779Y0057037D01*
X0024903Y0057046D01*
X0025025Y0057060D01*
X0025148Y0057077D01*
X0025270Y0057099D01*
X0025391Y0057124D01*
X0025511Y0057153D01*
X0025630Y0057185D01*
X0025749Y0057222D01*
X0025866Y0057262D01*
X0025981Y0057305D01*
X0026096Y0057353D01*
X0026208Y0057404D01*
X0026319Y0057458D01*
X0026429Y0057516D01*
X0026536Y0057577D01*
X0026642Y0057642D01*
X0026745Y0057710D01*
X0026846Y0057781D01*
X0026945Y0057855D01*
X0027042Y0057932D01*
X0027136Y0058013D01*
X0027227Y0058096D01*
X0027316Y0058182D01*
X0027402Y0058271D01*
X0027485Y0058362D01*
X0027566Y0058456D01*
X0027643Y0058553D01*
X0027717Y0058652D01*
X0027788Y0058753D01*
X0027856Y0058856D01*
X0027921Y0058962D01*
X0027982Y0059069D01*
X0028040Y0059179D01*
X0028094Y0059290D01*
X0028145Y0059402D01*
X0028193Y0059517D01*
X0028236Y0059632D01*
X0028276Y0059749D01*
X0028313Y0059868D01*
X0028345Y0059987D01*
X0028374Y0060107D01*
X0028399Y0060228D01*
X0028421Y0060350D01*
X0028438Y0060473D01*
X0028452Y0060595D01*
X0028461Y0060719D01*
X0028467Y0060842D01*
X0028469Y0060966D01*
X0028469Y0062934D01*
X0028467Y0063058D01*
X0028461Y0063181D01*
X0028452Y0063305D01*
X0028438Y0063427D01*
X0028421Y0063550D01*
X0028399Y0063672D01*
X0028374Y0063793D01*
X0028345Y0063913D01*
X0028313Y0064032D01*
X0028276Y0064151D01*
X0028236Y0064268D01*
X0028193Y0064383D01*
X0028145Y0064498D01*
X0028094Y0064610D01*
X0028040Y0064721D01*
X0027982Y0064831D01*
X0027921Y0064938D01*
X0027856Y0065044D01*
X0027788Y0065147D01*
X0027717Y0065248D01*
X0027643Y0065347D01*
X0027566Y0065444D01*
X0027485Y0065538D01*
X0027402Y0065629D01*
X0027316Y0065718D01*
X0027227Y0065804D01*
X0027136Y0065887D01*
X0027042Y0065968D01*
X0026945Y0066045D01*
X0026846Y0066119D01*
X0026745Y0066190D01*
X0026642Y0066258D01*
X0026536Y0066323D01*
X0026429Y0066384D01*
X0026319Y0066442D01*
X0026208Y0066496D01*
X0026096Y0066547D01*
X0025981Y0066595D01*
X0025866Y0066638D01*
X0025749Y0066678D01*
X0025630Y0066715D01*
X0025511Y0066747D01*
X0025391Y0066776D01*
X0025270Y0066801D01*
X0025148Y0066823D01*
X0025025Y0066840D01*
X0024903Y0066854D01*
X0024779Y0066863D01*
X0024656Y0066869D01*
X0024532Y0066871D01*
X0019610Y0066871D01*
X0019610Y0175139D01*
X0024532Y0175139D01*
X0024656Y0175141D01*
X0024779Y0175147D01*
X0024903Y0175156D01*
X0025025Y0175170D01*
X0025148Y0175187D01*
X0025270Y0175209D01*
X0025391Y0175234D01*
X0025511Y0175263D01*
X0025630Y0175295D01*
X0025749Y0175332D01*
X0025866Y0175372D01*
X0025981Y0175415D01*
X0026096Y0175463D01*
X0026208Y0175514D01*
X0026319Y0175568D01*
X0026429Y0175626D01*
X0026536Y0175687D01*
X0026642Y0175752D01*
X0026745Y0175820D01*
X0026846Y0175891D01*
X0026945Y0175965D01*
X0027042Y0176042D01*
X0027136Y0176123D01*
X0027227Y0176206D01*
X0027316Y0176292D01*
X0027402Y0176381D01*
X0027485Y0176472D01*
X0027566Y0176566D01*
X0027643Y0176663D01*
X0027717Y0176762D01*
X0027788Y0176863D01*
X0027856Y0176966D01*
X0027921Y0177072D01*
X0027982Y0177179D01*
X0028040Y0177289D01*
X0028094Y0177400D01*
X0028145Y0177512D01*
X0028193Y0177627D01*
X0028236Y0177742D01*
X0028276Y0177859D01*
X0028313Y0177978D01*
X0028345Y0178097D01*
X0028374Y0178217D01*
X0028399Y0178338D01*
X0028421Y0178460D01*
X0028438Y0178583D01*
X0028452Y0178705D01*
X0028461Y0178829D01*
X0028467Y0178952D01*
X0028469Y0179076D01*
X0028469Y0181045D01*
X0028467Y0181169D01*
X0028461Y0181292D01*
X0028452Y0181416D01*
X0028438Y0181538D01*
X0028421Y0181661D01*
X0028399Y0181783D01*
X0028374Y0181904D01*
X0028345Y0182024D01*
X0028313Y0182143D01*
X0028276Y0182262D01*
X0028236Y0182379D01*
X0028193Y0182494D01*
X0028145Y0182609D01*
X0028094Y0182721D01*
X0028040Y0182832D01*
X0027982Y0182942D01*
X0027921Y0183049D01*
X0027856Y0183155D01*
X0027788Y0183258D01*
X0027717Y0183359D01*
X0027643Y0183458D01*
X0027566Y0183555D01*
X0027485Y0183649D01*
X0027402Y0183740D01*
X0027316Y0183829D01*
X0027227Y0183915D01*
X0027136Y0183998D01*
X0027042Y0184079D01*
X0026945Y0184156D01*
X0026846Y0184230D01*
X0026745Y0184301D01*
X0026642Y0184369D01*
X0026536Y0184434D01*
X0026429Y0184495D01*
X0026319Y0184553D01*
X0026208Y0184607D01*
X0026096Y0184658D01*
X0025981Y0184706D01*
X0025866Y0184749D01*
X0025749Y0184789D01*
X0025630Y0184826D01*
X0025511Y0184858D01*
X0025391Y0184887D01*
X0025270Y0184912D01*
X0025148Y0184934D01*
X0025025Y0184951D01*
X0024903Y0184965D01*
X0024779Y0184974D01*
X0024656Y0184980D01*
X0024532Y0184982D01*
X0019610Y0184982D01*
X0019610Y0236130D01*
X0019612Y0236237D01*
X0019618Y0236344D01*
X0019628Y0236450D01*
X0019642Y0236556D01*
X0019659Y0236662D01*
X0019680Y0236766D01*
X0019705Y0236870D01*
X0019733Y0236973D01*
X0019765Y0237075D01*
X0019801Y0237176D01*
X0019841Y0237275D01*
X0019883Y0237373D01*
X0019930Y0237469D01*
X0019980Y0237564D01*
X0020033Y0237656D01*
X0020089Y0237747D01*
X0020149Y0237836D01*
X0020211Y0237922D01*
X0020277Y0238007D01*
X0020346Y0238088D01*
X0020417Y0238168D01*
X0020492Y0238244D01*
X0020569Y0238319D01*
X0020648Y0238390D01*
X0020731Y0238458D01*
X0020815Y0238523D01*
X0020902Y0238586D01*
X0020991Y0238645D01*
X0021082Y0238701D01*
X0021175Y0238753D01*
X0021270Y0238803D01*
X0021366Y0238849D01*
X0021464Y0238891D01*
X0021564Y0238930D01*
X0021665Y0238965D01*
X0021767Y0238997D01*
X0021870Y0239025D01*
X0021974Y0239049D01*
X0022079Y0239070D01*
X0022184Y0239087D01*
X0022290Y0239100D01*
X0022397Y0239109D01*
X0022503Y0239114D01*
X0022610Y0239116D01*
X0022610Y0239115D02*
X0154406Y0239115D01*
X0154406Y0239116D02*
X0154513Y0239114D01*
X0154619Y0239109D01*
X0154726Y0239100D01*
X0154832Y0239087D01*
X0154937Y0239070D01*
X0155042Y0239049D01*
X0155146Y0239025D01*
X0155249Y0238997D01*
X0155351Y0238965D01*
X0155452Y0238930D01*
X0155552Y0238891D01*
X0155650Y0238849D01*
X0155746Y0238803D01*
X0155841Y0238753D01*
X0155934Y0238701D01*
X0156025Y0238645D01*
X0156114Y0238586D01*
X0156201Y0238523D01*
X0156285Y0238458D01*
X0156368Y0238390D01*
X0156447Y0238319D01*
X0156524Y0238244D01*
X0156599Y0238168D01*
X0156670Y0238088D01*
X0156739Y0238007D01*
X0156805Y0237922D01*
X0156867Y0237836D01*
X0156927Y0237747D01*
X0156983Y0237656D01*
X0157036Y0237564D01*
X0157086Y0237469D01*
X0157133Y0237373D01*
X0157175Y0237275D01*
X0157215Y0237176D01*
X0157251Y0237075D01*
X0157283Y0236973D01*
X0157311Y0236870D01*
X0157336Y0236766D01*
X0157357Y0236662D01*
X0157374Y0236556D01*
X0157388Y0236450D01*
X0157398Y0236344D01*
X0157404Y0236237D01*
X0157406Y0236130D01*
X0157406Y0184982D01*
X0152485Y0184982D01*
X0152361Y0184980D01*
X0152238Y0184974D01*
X0152114Y0184965D01*
X0151992Y0184951D01*
X0151869Y0184934D01*
X0151747Y0184912D01*
X0151626Y0184887D01*
X0151506Y0184858D01*
X0151387Y0184826D01*
X0151268Y0184789D01*
X0151151Y0184749D01*
X0151036Y0184706D01*
X0150921Y0184658D01*
X0150809Y0184607D01*
X0150698Y0184553D01*
X0150588Y0184495D01*
X0150481Y0184434D01*
X0150375Y0184369D01*
X0150272Y0184301D01*
X0150171Y0184230D01*
X0150072Y0184156D01*
X0149975Y0184079D01*
X0149881Y0183998D01*
X0149790Y0183915D01*
X0149701Y0183829D01*
X0149615Y0183740D01*
X0149532Y0183649D01*
X0149451Y0183555D01*
X0149374Y0183458D01*
X0149300Y0183359D01*
X0149229Y0183258D01*
X0149161Y0183155D01*
X0149096Y0183049D01*
X0149035Y0182942D01*
X0148977Y0182832D01*
X0148923Y0182721D01*
X0148872Y0182609D01*
X0148824Y0182494D01*
X0148781Y0182379D01*
X0148741Y0182262D01*
X0148704Y0182143D01*
X0148672Y0182024D01*
X0148643Y0181904D01*
X0148618Y0181783D01*
X0148596Y0181661D01*
X0148579Y0181538D01*
X0148565Y0181416D01*
X0148556Y0181292D01*
X0148550Y0181169D01*
X0148548Y0181045D01*
X0148548Y0179076D01*
X0148550Y0178952D01*
X0148556Y0178829D01*
X0148565Y0178705D01*
X0148579Y0178583D01*
X0148596Y0178460D01*
X0148618Y0178338D01*
X0148643Y0178217D01*
X0148672Y0178097D01*
X0148704Y0177978D01*
X0148741Y0177859D01*
X0148781Y0177742D01*
X0148824Y0177627D01*
X0148872Y0177512D01*
X0148923Y0177400D01*
X0148977Y0177289D01*
X0149035Y0177179D01*
X0149096Y0177072D01*
X0149161Y0176966D01*
X0149229Y0176863D01*
X0149300Y0176762D01*
X0149374Y0176663D01*
X0149451Y0176566D01*
X0149532Y0176472D01*
X0149615Y0176381D01*
X0149701Y0176292D01*
X0149790Y0176206D01*
X0149881Y0176123D01*
X0149975Y0176042D01*
X0150072Y0175965D01*
X0150171Y0175891D01*
X0150272Y0175820D01*
X0150375Y0175752D01*
X0150481Y0175687D01*
X0150588Y0175626D01*
X0150698Y0175568D01*
X0150809Y0175514D01*
X0150921Y0175463D01*
X0151036Y0175415D01*
X0151151Y0175372D01*
X0151268Y0175332D01*
X0151387Y0175295D01*
X0151506Y0175263D01*
X0151626Y0175234D01*
X0151747Y0175209D01*
X0151869Y0175187D01*
X0151992Y0175170D01*
X0152114Y0175156D01*
X0152238Y0175147D01*
X0152361Y0175141D01*
X0152485Y0175139D01*
X0157406Y0175139D01*
X0157406Y0066871D01*
X0152485Y0066871D01*
X0152361Y0066869D01*
X0152238Y0066863D01*
X0152114Y0066854D01*
X0151992Y0066840D01*
X0151869Y0066823D01*
X0151747Y0066801D01*
X0151626Y0066776D01*
X0151506Y0066747D01*
X0151387Y0066715D01*
X0151268Y0066678D01*
X0151151Y0066638D01*
X0151036Y0066595D01*
X0150921Y0066547D01*
X0150809Y0066496D01*
X0150698Y0066442D01*
X0150588Y0066384D01*
X0150481Y0066323D01*
X0150375Y0066258D01*
X0150272Y0066190D01*
X0150171Y0066119D01*
X0150072Y0066045D01*
X0149975Y0065968D01*
X0149881Y0065887D01*
X0149790Y0065804D01*
X0149701Y0065718D01*
X0149615Y0065629D01*
X0149532Y0065538D01*
X0149451Y0065444D01*
X0149374Y0065347D01*
X0149300Y0065248D01*
X0149229Y0065147D01*
X0149161Y0065044D01*
X0149096Y0064938D01*
X0149035Y0064831D01*
X0148977Y0064721D01*
X0148923Y0064610D01*
X0148872Y0064498D01*
X0148824Y0064383D01*
X0148781Y0064268D01*
X0148741Y0064151D01*
X0148704Y0064032D01*
X0148672Y0063913D01*
X0148643Y0063793D01*
X0148618Y0063672D01*
X0148596Y0063550D01*
X0148579Y0063427D01*
X0148565Y0063305D01*
X0148556Y0063181D01*
X0148550Y0063058D01*
X0148548Y0062934D01*
X0148548Y0060966D01*
X0148550Y0060842D01*
X0148556Y0060719D01*
X0148565Y0060595D01*
X0148579Y0060473D01*
X0148596Y0060350D01*
X0148618Y0060228D01*
X0148643Y0060107D01*
X0148672Y0059987D01*
X0148704Y0059868D01*
X0148741Y0059749D01*
X0148781Y0059632D01*
X0148824Y0059517D01*
X0148872Y0059402D01*
X0148923Y0059290D01*
X0148977Y0059179D01*
X0149035Y0059069D01*
X0149096Y0058962D01*
X0149161Y0058856D01*
X0149229Y0058753D01*
X0149300Y0058652D01*
X0149374Y0058553D01*
X0149451Y0058456D01*
X0149532Y0058362D01*
X0149615Y0058271D01*
X0149701Y0058182D01*
X0149790Y0058096D01*
X0149881Y0058013D01*
X0149975Y0057932D01*
X0150072Y0057855D01*
X0150171Y0057781D01*
X0150272Y0057710D01*
X0150375Y0057642D01*
X0150481Y0057577D01*
X0150588Y0057516D01*
X0150698Y0057458D01*
X0150809Y0057404D01*
X0150921Y0057353D01*
X0151036Y0057305D01*
X0151151Y0057262D01*
X0151268Y0057222D01*
X0151387Y0057185D01*
X0151506Y0057153D01*
X0151626Y0057124D01*
X0151747Y0057099D01*
X0151869Y0057077D01*
X0151992Y0057060D01*
X0152114Y0057046D01*
X0152238Y0057037D01*
X0152361Y0057031D01*
X0152485Y0057029D01*
X0157406Y0057029D01*
X0157406Y0005895D01*
X0157404Y0005788D01*
X0157398Y0005681D01*
X0157389Y0005574D01*
X0157375Y0005468D01*
X0157358Y0005362D01*
X0157337Y0005257D01*
X0157313Y0005153D01*
X0157284Y0005050D01*
X0157252Y0004948D01*
X0157217Y0004847D01*
X0157178Y0004747D01*
X0157135Y0004649D01*
X0157089Y0004552D01*
X0157039Y0004457D01*
X0156986Y0004364D01*
X0156930Y0004273D01*
X0156870Y0004184D01*
X0156808Y0004097D01*
X0156742Y0004013D01*
X0156673Y0003930D01*
X0156602Y0003851D01*
X0156527Y0003774D01*
X0156450Y0003699D01*
X0156371Y0003628D01*
X0156288Y0003559D01*
X0156204Y0003493D01*
X0156117Y0003431D01*
X0156028Y0003371D01*
X0155937Y0003315D01*
X0155844Y0003262D01*
X0155749Y0003212D01*
X0155652Y0003166D01*
X0155554Y0003123D01*
X0155454Y0003084D01*
X0155353Y0003049D01*
X0155251Y0003017D01*
X0155148Y0002988D01*
X0155044Y0002964D01*
X0154939Y0002943D01*
X0154833Y0002926D01*
X0154727Y0002912D01*
X0154620Y0002903D01*
X0154513Y0002897D01*
X0154406Y0002895D01*
X0022610Y0002895D01*
X0022503Y0002897D01*
X0022396Y0002903D01*
X0022289Y0002912D01*
X0022183Y0002926D01*
X0022077Y0002943D01*
X0021972Y0002964D01*
X0021868Y0002988D01*
X0021765Y0003017D01*
X0021663Y0003049D01*
X0021562Y0003084D01*
X0021462Y0003123D01*
X0021364Y0003166D01*
X0021267Y0003212D01*
X0021172Y0003262D01*
X0021079Y0003315D01*
X0020988Y0003371D01*
X0020899Y0003431D01*
X0020812Y0003493D01*
X0020728Y0003559D01*
X0020645Y0003628D01*
X0020566Y0003699D01*
X0020489Y0003774D01*
X0020414Y0003851D01*
X0020343Y0003930D01*
X0020274Y0004013D01*
X0020208Y0004097D01*
X0020146Y0004184D01*
X0020086Y0004273D01*
X0020030Y0004364D01*
X0019977Y0004457D01*
X0019927Y0004552D01*
X0019881Y0004649D01*
X0019838Y0004747D01*
X0019799Y0004847D01*
X0019764Y0004948D01*
X0019732Y0005050D01*
X0019703Y0005153D01*
X0019679Y0005257D01*
X0019658Y0005362D01*
X0019641Y0005468D01*
X0019627Y0005574D01*
X0019618Y0005681D01*
X0019612Y0005788D01*
X0019610Y0005895D01*
X0083587Y0121005D02*
X0083589Y0121145D01*
X0083595Y0121285D01*
X0083605Y0121424D01*
X0083619Y0121563D01*
X0083637Y0121702D01*
X0083658Y0121840D01*
X0083684Y0121978D01*
X0083714Y0122115D01*
X0083747Y0122250D01*
X0083785Y0122385D01*
X0083826Y0122519D01*
X0083871Y0122652D01*
X0083919Y0122783D01*
X0083972Y0122912D01*
X0084028Y0123041D01*
X0084087Y0123167D01*
X0084151Y0123292D01*
X0084217Y0123415D01*
X0084288Y0123536D01*
X0084361Y0123655D01*
X0084438Y0123772D01*
X0084519Y0123886D01*
X0084602Y0123998D01*
X0084689Y0124108D01*
X0084779Y0124216D01*
X0084871Y0124320D01*
X0084967Y0124422D01*
X0085066Y0124522D01*
X0085167Y0124618D01*
X0085271Y0124712D01*
X0085378Y0124802D01*
X0085487Y0124889D01*
X0085599Y0124974D01*
X0085713Y0125055D01*
X0085829Y0125133D01*
X0085947Y0125207D01*
X0086068Y0125278D01*
X0086190Y0125346D01*
X0086315Y0125410D01*
X0086441Y0125471D01*
X0086568Y0125528D01*
X0086698Y0125581D01*
X0086829Y0125631D01*
X0086961Y0125676D01*
X0087094Y0125719D01*
X0087229Y0125757D01*
X0087364Y0125791D01*
X0087501Y0125822D01*
X0087638Y0125849D01*
X0087776Y0125871D01*
X0087915Y0125890D01*
X0088054Y0125905D01*
X0088193Y0125916D01*
X0088333Y0125923D01*
X0088473Y0125926D01*
X0088613Y0125925D01*
X0088753Y0125920D01*
X0088892Y0125911D01*
X0089032Y0125898D01*
X0089171Y0125881D01*
X0089309Y0125860D01*
X0089447Y0125836D01*
X0089584Y0125807D01*
X0089720Y0125775D01*
X0089855Y0125738D01*
X0089989Y0125698D01*
X0090122Y0125654D01*
X0090253Y0125606D01*
X0090383Y0125555D01*
X0090512Y0125500D01*
X0090639Y0125441D01*
X0090764Y0125378D01*
X0090887Y0125313D01*
X0091009Y0125243D01*
X0091128Y0125170D01*
X0091246Y0125094D01*
X0091361Y0125015D01*
X0091474Y0124932D01*
X0091584Y0124846D01*
X0091692Y0124757D01*
X0091797Y0124665D01*
X0091900Y0124570D01*
X0092000Y0124472D01*
X0092097Y0124372D01*
X0092191Y0124268D01*
X0092283Y0124162D01*
X0092371Y0124054D01*
X0092456Y0123943D01*
X0092538Y0123829D01*
X0092617Y0123713D01*
X0092692Y0123596D01*
X0092764Y0123476D01*
X0092832Y0123354D01*
X0092897Y0123230D01*
X0092959Y0123104D01*
X0093017Y0122977D01*
X0093071Y0122848D01*
X0093122Y0122717D01*
X0093168Y0122585D01*
X0093211Y0122452D01*
X0093251Y0122318D01*
X0093286Y0122183D01*
X0093318Y0122046D01*
X0093345Y0121909D01*
X0093369Y0121771D01*
X0093389Y0121633D01*
X0093405Y0121494D01*
X0093417Y0121354D01*
X0093425Y0121215D01*
X0093429Y0121075D01*
X0093429Y0120935D01*
X0093425Y0120795D01*
X0093417Y0120656D01*
X0093405Y0120516D01*
X0093389Y0120377D01*
X0093369Y0120239D01*
X0093345Y0120101D01*
X0093318Y0119964D01*
X0093286Y0119827D01*
X0093251Y0119692D01*
X0093211Y0119558D01*
X0093168Y0119425D01*
X0093122Y0119293D01*
X0093071Y0119162D01*
X0093017Y0119033D01*
X0092959Y0118906D01*
X0092897Y0118780D01*
X0092832Y0118656D01*
X0092764Y0118534D01*
X0092692Y0118414D01*
X0092617Y0118297D01*
X0092538Y0118181D01*
X0092456Y0118067D01*
X0092371Y0117956D01*
X0092283Y0117848D01*
X0092191Y0117742D01*
X0092097Y0117638D01*
X0092000Y0117538D01*
X0091900Y0117440D01*
X0091797Y0117345D01*
X0091692Y0117253D01*
X0091584Y0117164D01*
X0091474Y0117078D01*
X0091361Y0116995D01*
X0091246Y0116916D01*
X0091128Y0116840D01*
X0091009Y0116767D01*
X0090887Y0116697D01*
X0090764Y0116632D01*
X0090639Y0116569D01*
X0090512Y0116510D01*
X0090383Y0116455D01*
X0090253Y0116404D01*
X0090122Y0116356D01*
X0089989Y0116312D01*
X0089855Y0116272D01*
X0089720Y0116235D01*
X0089584Y0116203D01*
X0089447Y0116174D01*
X0089309Y0116150D01*
X0089171Y0116129D01*
X0089032Y0116112D01*
X0088892Y0116099D01*
X0088753Y0116090D01*
X0088613Y0116085D01*
X0088473Y0116084D01*
X0088333Y0116087D01*
X0088193Y0116094D01*
X0088054Y0116105D01*
X0087915Y0116120D01*
X0087776Y0116139D01*
X0087638Y0116161D01*
X0087501Y0116188D01*
X0087364Y0116219D01*
X0087229Y0116253D01*
X0087094Y0116291D01*
X0086961Y0116334D01*
X0086829Y0116379D01*
X0086698Y0116429D01*
X0086568Y0116482D01*
X0086441Y0116539D01*
X0086315Y0116600D01*
X0086190Y0116664D01*
X0086068Y0116732D01*
X0085947Y0116803D01*
X0085829Y0116877D01*
X0085713Y0116955D01*
X0085599Y0117036D01*
X0085487Y0117121D01*
X0085378Y0117208D01*
X0085271Y0117298D01*
X0085167Y0117392D01*
X0085066Y0117488D01*
X0084967Y0117588D01*
X0084871Y0117690D01*
X0084779Y0117794D01*
X0084689Y0117902D01*
X0084602Y0118012D01*
X0084519Y0118124D01*
X0084438Y0118238D01*
X0084361Y0118355D01*
X0084288Y0118474D01*
X0084217Y0118595D01*
X0084151Y0118718D01*
X0084087Y0118843D01*
X0084028Y0118969D01*
X0083972Y0119098D01*
X0083919Y0119227D01*
X0083871Y0119358D01*
X0083826Y0119491D01*
X0083785Y0119625D01*
X0083747Y0119760D01*
X0083714Y0119895D01*
X0083684Y0120032D01*
X0083658Y0120170D01*
X0083637Y0120308D01*
X0083619Y0120447D01*
X0083605Y0120586D01*
X0083595Y0120725D01*
X0083589Y0120865D01*
X0083587Y0121005D01*
D11*
X0086375Y0136257D03*
X0079375Y0142557D03*
X0083575Y0149157D03*
X0083575Y0149257D03*
X0093475Y0145657D03*
D12*
X0086575Y0136357D03*
X0079275Y0142257D03*
X0076375Y0142157D03*
X0083775Y0149857D03*
D13*
X0084075Y0150357D03*
X0088675Y0155857D03*
X0098175Y0148357D03*
X0088875Y0139257D03*
X0089375Y0138357D03*
X0089375Y0138257D03*
X0086875Y0139457D03*
X0086875Y0139557D03*
X0086975Y0139657D03*
X0086475Y0137257D03*
X0086775Y0136457D03*
D14*
X0086775Y0136557D03*
X0086575Y0137057D03*
X0086075Y0138057D03*
X0086075Y0138157D03*
X0086075Y0138257D03*
X0087075Y0139857D03*
X0087075Y0139957D03*
X0087175Y0140057D03*
X0087175Y0140157D03*
X0088875Y0139157D03*
D15*
X0088925Y0139057D03*
X0089525Y0138057D03*
X0086625Y0136957D03*
X0086725Y0136657D03*
X0086025Y0137957D03*
X0087225Y0140257D03*
X0087325Y0140357D03*
X0087325Y0140457D03*
X0090325Y0146157D03*
X0090225Y0146257D03*
X0098025Y0148257D03*
X0088725Y0155757D03*
D16*
X0084025Y0150457D03*
X0089725Y0146757D03*
X0089825Y0146657D03*
X0089925Y0146557D03*
X0090025Y0146457D03*
X0097825Y0148157D03*
X0089625Y0137957D03*
X0086725Y0136757D03*
D17*
X0086675Y0136857D03*
X0089775Y0137457D03*
X0090175Y0146357D03*
X0076275Y0141957D03*
D18*
X0079375Y0142457D03*
X0079675Y0140457D03*
X0085175Y0137657D03*
X0085275Y0137757D03*
X0085075Y0137457D03*
X0087675Y0138257D03*
X0087775Y0138357D03*
X0087875Y0138457D03*
X0087975Y0138657D03*
X0088075Y0138857D03*
X0088175Y0138957D03*
X0089975Y0136957D03*
X0083675Y0149457D03*
X0073775Y0138357D03*
D19*
X0074325Y0138757D03*
X0089625Y0152257D03*
X0089925Y0137057D03*
D20*
X0089825Y0137357D03*
X0089425Y0138157D03*
X0087025Y0139757D03*
X0086125Y0138457D03*
X0086125Y0138357D03*
X0086525Y0137157D03*
D21*
X0089875Y0137157D03*
X0079375Y0140557D03*
D22*
X0086325Y0137857D03*
X0086425Y0137457D03*
X0088825Y0139457D03*
X0088925Y0140457D03*
X0089825Y0137257D03*
D23*
X0087725Y0138157D03*
X0087925Y0138557D03*
X0088025Y0138757D03*
X0085125Y0137557D03*
X0085125Y0137357D03*
X0083625Y0149357D03*
X0083125Y0150357D03*
X0089625Y0152157D03*
X0073725Y0138257D03*
D24*
X0076325Y0142057D03*
X0086125Y0138557D03*
X0086525Y0139057D03*
X0086625Y0139157D03*
X0086725Y0139257D03*
X0086825Y0139357D03*
X0088825Y0139357D03*
X0089125Y0138957D03*
X0089225Y0138857D03*
X0089225Y0138757D03*
X0089325Y0138657D03*
X0089325Y0138557D03*
X0089325Y0138457D03*
X0086425Y0137357D03*
D25*
X0086375Y0137557D03*
X0086375Y0137657D03*
X0086375Y0137757D03*
X0088775Y0139557D03*
X0088875Y0139657D03*
X0088875Y0139757D03*
X0088875Y0139857D03*
X0088875Y0139957D03*
X0088875Y0140057D03*
X0088875Y0140157D03*
X0088875Y0140257D03*
X0088875Y0140357D03*
X0098275Y0148457D03*
X0074775Y0138957D03*
D26*
X0089275Y0147157D03*
X0089375Y0147057D03*
X0089475Y0146957D03*
X0089575Y0146857D03*
X0088775Y0155657D03*
X0089775Y0137557D03*
D27*
X0089775Y0137657D03*
X0088975Y0142357D03*
X0089075Y0142457D03*
X0097475Y0147957D03*
X0097675Y0148057D03*
X0088775Y0155557D03*
X0074675Y0139057D03*
D28*
X0076225Y0141857D03*
X0088825Y0142157D03*
X0088925Y0142257D03*
X0089125Y0142757D03*
X0089825Y0137757D03*
X0096925Y0147757D03*
X0097225Y0147857D03*
D29*
X0098525Y0148657D03*
X0093125Y0145657D03*
X0083725Y0149557D03*
X0083725Y0149657D03*
X0079325Y0142357D03*
X0085325Y0137857D03*
X0074025Y0138557D03*
X0073925Y0138457D03*
D30*
X0089125Y0142557D03*
X0089225Y0142657D03*
X0089725Y0137857D03*
D31*
X0083775Y0149757D03*
X0072875Y0141857D03*
X0074175Y0138657D03*
D32*
X0083875Y0150157D03*
X0083975Y0150257D03*
X0086475Y0138957D03*
X0086375Y0138857D03*
X0086275Y0138757D03*
X0086175Y0138657D03*
D33*
X0079225Y0142157D03*
X0083825Y0149957D03*
X0074525Y0138857D03*
X0098425Y0148557D03*
D34*
X0096675Y0147657D03*
X0096375Y0147557D03*
X0088775Y0142057D03*
X0088675Y0141857D03*
X0088775Y0155457D03*
X0074975Y0139157D03*
D35*
X0075275Y0139257D03*
X0085275Y0147657D03*
X0085575Y0147857D03*
X0090775Y0145457D03*
X0088475Y0141557D03*
X0088475Y0141457D03*
X0088375Y0141357D03*
X0095575Y0147257D03*
X0088775Y0155357D03*
D36*
X0088775Y0155257D03*
X0088775Y0155157D03*
X0085775Y0148057D03*
X0085675Y0147957D03*
X0085075Y0147557D03*
X0088975Y0142857D03*
X0088275Y0141157D03*
X0088175Y0140957D03*
X0088175Y0140857D03*
X0088075Y0140757D03*
X0075375Y0139357D03*
D37*
X0075475Y0139457D03*
X0075675Y0139557D03*
X0081775Y0142157D03*
X0084675Y0146957D03*
X0084775Y0147157D03*
X0084875Y0147357D03*
X0085875Y0148157D03*
X0088775Y0155057D03*
X0092875Y0146157D03*
D38*
X0089675Y0147957D03*
X0088775Y0154557D03*
X0080075Y0141657D03*
X0075575Y0139757D03*
X0075475Y0139657D03*
D39*
X0075625Y0139857D03*
X0080225Y0141757D03*
X0082225Y0142457D03*
X0084825Y0146557D03*
X0088625Y0143157D03*
X0089725Y0147857D03*
X0088725Y0154457D03*
D40*
X0088675Y0154357D03*
X0088675Y0154257D03*
X0087275Y0150457D03*
X0087375Y0150357D03*
X0089875Y0147757D03*
X0080475Y0141857D03*
X0075675Y0139957D03*
D41*
X0075725Y0140057D03*
X0082425Y0142557D03*
X0087325Y0150257D03*
X0088625Y0154157D03*
X0091925Y0145857D03*
D42*
X0093575Y0146957D03*
X0088075Y0152757D03*
X0087475Y0152457D03*
X0085875Y0151757D03*
X0085275Y0146057D03*
X0083575Y0143157D03*
X0075375Y0140257D03*
X0075275Y0140157D03*
D43*
X0075625Y0140357D03*
X0075725Y0140457D03*
X0083225Y0142957D03*
X0087325Y0149557D03*
X0087325Y0149657D03*
X0088225Y0153057D03*
D44*
X0086175Y0152057D03*
X0085075Y0146257D03*
X0091975Y0146057D03*
X0075875Y0140557D03*
D45*
X0076125Y0141757D03*
X0081525Y0142057D03*
X0084825Y0147257D03*
X0084925Y0147457D03*
X0088025Y0140657D03*
X0088025Y0140557D03*
D46*
X0085625Y0145657D03*
X0087525Y0148557D03*
X0086025Y0150657D03*
X0076825Y0140957D03*
X0076825Y0140757D03*
X0076725Y0140657D03*
D47*
X0076925Y0140857D03*
X0087425Y0148657D03*
X0086125Y0150557D03*
X0085725Y0151057D03*
D48*
X0076425Y0141057D03*
D49*
X0088225Y0141057D03*
X0088325Y0141257D03*
X0093025Y0146257D03*
X0093225Y0146357D03*
X0093425Y0146457D03*
D50*
X0076625Y0141157D03*
D51*
X0076875Y0141257D03*
X0077175Y0141357D03*
D52*
X0077225Y0141457D03*
D53*
X0077325Y0141557D03*
X0086325Y0144357D03*
D54*
X0087325Y0149257D03*
X0087725Y0152557D03*
X0075425Y0141657D03*
D55*
X0085525Y0147757D03*
X0091025Y0145557D03*
X0091325Y0145657D03*
X0088725Y0141957D03*
X0088625Y0141757D03*
X0088525Y0141657D03*
X0095825Y0147357D03*
X0096125Y0147457D03*
D56*
X0088625Y0155957D03*
X0083825Y0150057D03*
X0079225Y0142057D03*
X0073225Y0141757D03*
D57*
X0080675Y0141957D03*
X0084875Y0146457D03*
X0089975Y0147657D03*
X0093575Y0146757D03*
X0088575Y0154057D03*
D58*
X0088775Y0154857D03*
X0088775Y0154957D03*
X0089375Y0148257D03*
X0085975Y0148357D03*
X0084575Y0146757D03*
X0081975Y0142257D03*
D59*
X0082125Y0142357D03*
X0091825Y0145757D03*
X0093525Y0146657D03*
X0088725Y0154657D03*
D60*
X0088525Y0153957D03*
X0088525Y0153857D03*
X0088425Y0153757D03*
X0088325Y0153557D03*
X0086525Y0152257D03*
X0087325Y0150157D03*
X0090125Y0147557D03*
X0082625Y0142657D03*
D61*
X0082825Y0142757D03*
X0087325Y0149957D03*
X0088225Y0153357D03*
X0090225Y0147457D03*
D62*
X0093625Y0146857D03*
X0087325Y0149757D03*
X0087325Y0149857D03*
X0086325Y0152157D03*
X0088225Y0153157D03*
X0083025Y0142857D03*
D63*
X0084625Y0146857D03*
X0084725Y0147057D03*
X0085925Y0148257D03*
X0089325Y0148357D03*
X0093525Y0146557D03*
X0088825Y0142957D03*
D64*
X0083425Y0143057D03*
X0087325Y0149357D03*
X0087325Y0149457D03*
X0085925Y0151857D03*
X0087825Y0152657D03*
X0088125Y0152857D03*
D65*
X0088775Y0154757D03*
X0089575Y0148057D03*
X0088675Y0143057D03*
X0084675Y0146657D03*
D66*
X0087125Y0145257D03*
X0085925Y0143457D03*
X0085825Y0143257D03*
D67*
X0085875Y0143357D03*
X0085975Y0143557D03*
X0087175Y0145357D03*
D68*
X0087025Y0145157D03*
X0086925Y0145057D03*
X0086025Y0143657D03*
D69*
X0086075Y0143757D03*
D70*
X0086125Y0143857D03*
D71*
X0086175Y0143957D03*
X0086175Y0144057D03*
X0086775Y0144957D03*
D72*
X0086225Y0144157D03*
D73*
X0086275Y0144257D03*
D74*
X0086275Y0144457D03*
D75*
X0086325Y0144557D03*
D76*
X0086275Y0144657D03*
D77*
X0086275Y0144757D03*
X0086375Y0144857D03*
D78*
X0085875Y0145457D03*
D79*
X0085725Y0145557D03*
X0087525Y0148457D03*
D80*
X0085975Y0150857D03*
X0085575Y0151357D03*
X0085575Y0145757D03*
X0091175Y0147257D03*
D81*
X0087375Y0148857D03*
X0085575Y0151457D03*
X0085475Y0145857D03*
D82*
X0085325Y0145957D03*
X0087325Y0149057D03*
X0085725Y0151557D03*
D83*
X0087375Y0150057D03*
X0084975Y0146357D03*
X0088275Y0153457D03*
X0088375Y0153657D03*
X0091875Y0145957D03*
D84*
X0088175Y0152957D03*
X0086075Y0151957D03*
X0085175Y0146157D03*
D85*
X0087325Y0148957D03*
X0093625Y0147057D03*
D86*
X0093575Y0147157D03*
X0085975Y0150757D03*
D87*
X0088275Y0153257D03*
X0090375Y0147357D03*
D88*
X0089525Y0148157D03*
D89*
X0087425Y0148757D03*
X0085925Y0150957D03*
X0085725Y0151157D03*
X0085625Y0151257D03*
D90*
X0085775Y0151657D03*
X0087375Y0152357D03*
X0087275Y0149157D03*
D91*
X0058122Y0048395D03*
X0045099Y0048395D03*
D92*
X0047870Y0058895D03*
X0055351Y0058895D03*
X0094870Y0064895D03*
X0102351Y0064895D03*
X0132370Y0064895D03*
X0139851Y0064895D03*
D93*
X0102351Y0054619D03*
X0094870Y0054619D03*
X0098610Y0045171D03*
D94*
X0110665Y0045607D03*
X0110665Y0053088D03*
X0072758Y0053090D03*
X0072758Y0045610D03*
X0072310Y0207155D03*
X0072310Y0214635D03*
X0063310Y0214635D03*
X0063310Y0207155D03*
X0036610Y0207655D03*
X0036610Y0215135D03*
X0026158Y0214690D03*
X0026158Y0207210D03*
X0142158Y0207210D03*
X0142158Y0214690D03*
X0151158Y0214690D03*
X0151158Y0207210D03*
D95*
X0133658Y0179450D03*
X0133658Y0169450D03*
X0133658Y0159450D03*
X0133658Y0149450D03*
X0133658Y0139450D03*
X0133658Y0129450D03*
X0133658Y0119450D03*
X0133658Y0109450D03*
X0043658Y0109450D03*
X0043658Y0119450D03*
X0043658Y0129450D03*
X0043658Y0139450D03*
X0043658Y0149450D03*
X0043658Y0159450D03*
X0043658Y0169450D03*
X0043658Y0179450D03*
D96*
X0087110Y0051167D03*
X0087110Y0047623D03*
X0124610Y0048623D03*
X0124610Y0052167D03*
D97*
X0072310Y0190245D03*
X0072310Y0197545D03*
X0066110Y0225395D03*
X0046110Y0225395D03*
X0046563Y0214990D03*
X0046563Y0207690D03*
X0121110Y0225395D03*
D98*
X0131110Y0225395D03*
X0141110Y0225395D03*
X0151110Y0225395D03*
X0106110Y0225395D03*
X0096110Y0225395D03*
X0086110Y0225395D03*
X0076110Y0225395D03*
X0036110Y0225395D03*
X0026110Y0225395D03*
D99*
X0083508Y0017050D03*
D100*
X0073508Y0017050D03*
D101*
X0132370Y0054226D03*
X0136110Y0045564D03*
X0139851Y0054226D03*
D102*
X0143658Y0024475D02*
X0143658Y0017425D01*
X0123658Y0017425D02*
X0123658Y0024475D01*
X0103658Y0024475D02*
X0103658Y0017425D01*
X0053658Y0017425D02*
X0053658Y0024475D01*
X0033658Y0024475D02*
X0033658Y0017425D01*
D103*
X0083610Y0196930D03*
X0096860Y0196930D03*
X0110110Y0196930D03*
X0110110Y0213860D03*
X0096860Y0213860D03*
X0083610Y0213860D03*
D104*
X0073309Y0219994D02*
X0072390Y0219994D01*
X0072390Y0214715D01*
X0072231Y0214715D01*
X0072231Y0219994D01*
X0070631Y0219994D01*
X0070697Y0220021D01*
X0071484Y0220809D01*
X0071780Y0221523D01*
X0073309Y0219994D01*
X0072390Y0218761D02*
X0072231Y0218761D01*
X0072231Y0216363D02*
X0072390Y0216363D01*
X0072231Y0214715D02*
X0072231Y0214556D01*
X0063390Y0214556D01*
X0063390Y0214715D01*
X0066558Y0214715D01*
X0072231Y0214715D01*
X0072144Y0221160D02*
X0071629Y0221160D01*
X0076110Y0225395D02*
X0076110Y0231195D01*
X0073708Y0231195D01*
X0071780Y0229267D01*
X0071484Y0229981D01*
X0070697Y0230769D01*
X0069667Y0231195D01*
X0062554Y0231195D01*
X0061524Y0230769D01*
X0060737Y0229981D01*
X0060328Y0228995D01*
X0051893Y0228995D01*
X0051484Y0229981D01*
X0050697Y0230769D01*
X0049667Y0231195D01*
X0042554Y0231195D01*
X0041524Y0230769D01*
X0040737Y0229981D01*
X0040441Y0229267D01*
X0038513Y0231195D01*
X0033708Y0231195D01*
X0031110Y0228597D01*
X0028513Y0231195D01*
X0026111Y0231195D01*
X0026111Y0225395D01*
X0026111Y0219595D01*
X0026238Y0219595D01*
X0026238Y0214770D01*
X0026079Y0214770D01*
X0026079Y0219595D01*
X0026110Y0219595D01*
X0026110Y0225395D01*
X0026111Y0225395D01*
X0026110Y0225395D01*
X0026110Y0231195D01*
X0023708Y0231195D01*
X0022410Y0229897D01*
X0022410Y0236123D01*
X0022414Y0236161D01*
X0022443Y0236230D01*
X0022497Y0236283D01*
X0022566Y0236312D01*
X0022604Y0236315D01*
X0022609Y0236315D01*
X0023161Y0236314D01*
X0023164Y0236315D01*
X0153852Y0236315D01*
X0153856Y0236314D01*
X0154408Y0236315D01*
X0154413Y0236315D01*
X0154450Y0236312D01*
X0154520Y0236283D01*
X0154573Y0236230D01*
X0154602Y0236161D01*
X0154606Y0236123D01*
X0154606Y0230102D01*
X0153513Y0231195D01*
X0148902Y0231195D01*
X0146650Y0233447D01*
X0145327Y0233995D01*
X0116394Y0233995D01*
X0115071Y0233447D01*
X0114059Y0232434D01*
X0111559Y0229934D01*
X0111036Y0228672D01*
X0108513Y0231195D01*
X0103708Y0231195D01*
X0101110Y0228597D01*
X0098513Y0231195D01*
X0093708Y0231195D01*
X0091110Y0228597D01*
X0088513Y0231195D01*
X0083708Y0231195D01*
X0081110Y0228597D01*
X0078513Y0231195D01*
X0076111Y0231195D01*
X0076111Y0225395D01*
X0076110Y0225395D01*
X0076110Y0225957D02*
X0076111Y0225957D01*
X0076110Y0228355D02*
X0076111Y0228355D01*
X0076110Y0230754D02*
X0076111Y0230754D01*
X0078954Y0230754D02*
X0083267Y0230754D01*
X0088954Y0230754D02*
X0093267Y0230754D01*
X0098954Y0230754D02*
X0103267Y0230754D01*
X0108954Y0230754D02*
X0112378Y0230754D01*
X0114776Y0233152D02*
X0022410Y0233152D01*
X0022410Y0230754D02*
X0023267Y0230754D01*
X0026110Y0230754D02*
X0026111Y0230754D01*
X0026110Y0228355D02*
X0026111Y0228355D01*
X0026110Y0225957D02*
X0026111Y0225957D01*
X0026110Y0223558D02*
X0026111Y0223558D01*
X0026110Y0221160D02*
X0026111Y0221160D01*
X0026079Y0218761D02*
X0026238Y0218761D01*
X0026238Y0216363D02*
X0026079Y0216363D01*
X0026260Y0201851D02*
X0022648Y0201851D01*
X0022410Y0201949D01*
X0022410Y0187782D01*
X0025872Y0187782D01*
X0028348Y0186756D01*
X0028348Y0186756D01*
X0030243Y0184861D01*
X0030243Y0184861D01*
X0031269Y0182385D01*
X0031269Y0177736D01*
X0030243Y0175260D01*
X0030243Y0175260D01*
X0028348Y0173365D01*
X0028348Y0173365D01*
X0025872Y0172339D01*
X0022410Y0172339D01*
X0022410Y0069671D01*
X0025872Y0069671D01*
X0028348Y0068646D01*
X0028348Y0068646D01*
X0030243Y0066751D01*
X0030243Y0066751D01*
X0031269Y0064274D01*
X0031269Y0059626D01*
X0030243Y0057150D01*
X0030243Y0057150D01*
X0028348Y0055255D01*
X0028348Y0055255D01*
X0025872Y0054229D01*
X0022410Y0054229D01*
X0022410Y0005895D01*
X0022414Y0005856D01*
X0022444Y0005784D01*
X0022499Y0005729D01*
X0022571Y0005699D01*
X0022610Y0005695D01*
X0032088Y0005695D01*
X0030880Y0006903D01*
X0030210Y0008520D01*
X0030210Y0012007D01*
X0030075Y0012063D01*
X0028296Y0013842D01*
X0027333Y0016167D01*
X0027333Y0025733D01*
X0028296Y0028058D01*
X0030075Y0029837D01*
X0030210Y0029893D01*
X0030210Y0038770D01*
X0030880Y0040387D01*
X0037799Y0047306D01*
X0037799Y0054267D01*
X0038225Y0055296D01*
X0039013Y0056084D01*
X0040042Y0056510D01*
X0042511Y0056510D01*
X0042511Y0058772D01*
X0033380Y0067903D01*
X0032710Y0069520D01*
X0032710Y0173770D01*
X0033380Y0175387D01*
X0034618Y0176625D01*
X0038283Y0180290D01*
X0038283Y0181676D01*
X0041432Y0184825D01*
X0045884Y0184825D01*
X0046010Y0184699D01*
X0046010Y0201404D01*
X0045860Y0201554D01*
X0044150Y0199843D01*
X0042827Y0199295D01*
X0031394Y0199295D01*
X0030071Y0199843D01*
X0029059Y0200856D01*
X0028119Y0201795D01*
X0027274Y0201795D01*
X0026723Y0201745D01*
X0026562Y0201795D01*
X0026394Y0201795D01*
X0026260Y0201851D01*
X0022410Y0199573D02*
X0030723Y0199573D01*
X0022410Y0197174D02*
X0046010Y0197174D01*
X0046010Y0194776D02*
X0022410Y0194776D01*
X0022410Y0192377D02*
X0046010Y0192377D01*
X0046010Y0189979D02*
X0022410Y0189979D01*
X0026358Y0187580D02*
X0046010Y0187580D01*
X0046010Y0185182D02*
X0029922Y0185182D01*
X0031104Y0182783D02*
X0039390Y0182783D01*
X0038283Y0180385D02*
X0031269Y0180385D01*
X0031269Y0177986D02*
X0035979Y0177986D01*
X0033581Y0175588D02*
X0030379Y0175588D01*
X0032710Y0173189D02*
X0027924Y0173189D01*
X0032710Y0170791D02*
X0022410Y0170791D01*
X0022410Y0168392D02*
X0032710Y0168392D01*
X0032710Y0165994D02*
X0022410Y0165994D01*
X0022410Y0163595D02*
X0032710Y0163595D01*
X0032710Y0161197D02*
X0022410Y0161197D01*
X0022410Y0158798D02*
X0032710Y0158798D01*
X0032710Y0156400D02*
X0022410Y0156400D01*
X0022410Y0154001D02*
X0032710Y0154001D01*
X0032710Y0151603D02*
X0022410Y0151603D01*
X0022410Y0149204D02*
X0032710Y0149204D01*
X0032710Y0146806D02*
X0022410Y0146806D01*
X0022410Y0144407D02*
X0032710Y0144407D01*
X0032710Y0142009D02*
X0022410Y0142009D01*
X0022410Y0139610D02*
X0032710Y0139610D01*
X0032710Y0137212D02*
X0022410Y0137212D01*
X0022410Y0134813D02*
X0032710Y0134813D01*
X0032710Y0132415D02*
X0022410Y0132415D01*
X0022410Y0130016D02*
X0032710Y0130016D01*
X0032710Y0127618D02*
X0022410Y0127618D01*
X0022410Y0125219D02*
X0032710Y0125219D01*
X0032710Y0122821D02*
X0022410Y0122821D01*
X0022410Y0120422D02*
X0032710Y0120422D01*
X0032710Y0118024D02*
X0022410Y0118024D01*
X0022410Y0115625D02*
X0032710Y0115625D01*
X0032710Y0113227D02*
X0022410Y0113227D01*
X0022410Y0110828D02*
X0032710Y0110828D01*
X0032710Y0108430D02*
X0022410Y0108430D01*
X0022410Y0106031D02*
X0032710Y0106031D01*
X0032710Y0103632D02*
X0022410Y0103632D01*
X0022410Y0101234D02*
X0032710Y0101234D01*
X0032710Y0098835D02*
X0022410Y0098835D01*
X0022410Y0096437D02*
X0032710Y0096437D01*
X0032710Y0094038D02*
X0022410Y0094038D01*
X0022410Y0091640D02*
X0032710Y0091640D01*
X0032710Y0089241D02*
X0022410Y0089241D01*
X0022410Y0086843D02*
X0032710Y0086843D01*
X0032710Y0084444D02*
X0022410Y0084444D01*
X0022410Y0082046D02*
X0032710Y0082046D01*
X0032710Y0079647D02*
X0022410Y0079647D01*
X0022410Y0077249D02*
X0032710Y0077249D01*
X0032710Y0074850D02*
X0022410Y0074850D01*
X0022410Y0072452D02*
X0032710Y0072452D01*
X0032710Y0070053D02*
X0022410Y0070053D01*
X0029339Y0067655D02*
X0033628Y0067655D01*
X0036027Y0065256D02*
X0030862Y0065256D01*
X0031269Y0062858D02*
X0038425Y0062858D01*
X0040824Y0060459D02*
X0031269Y0060459D01*
X0030620Y0058061D02*
X0042511Y0058061D01*
X0038591Y0055662D02*
X0028756Y0055662D01*
X0022410Y0053264D02*
X0037799Y0053264D01*
X0037799Y0050865D02*
X0022410Y0050865D01*
X0022410Y0048467D02*
X0037799Y0048467D01*
X0036561Y0046068D02*
X0022410Y0046068D01*
X0022410Y0043670D02*
X0034163Y0043670D01*
X0031764Y0041271D02*
X0022410Y0041271D01*
X0022410Y0038873D02*
X0030253Y0038873D01*
X0030210Y0036474D02*
X0022410Y0036474D01*
X0022410Y0034076D02*
X0030210Y0034076D01*
X0030210Y0031677D02*
X0022410Y0031677D01*
X0022410Y0029279D02*
X0029517Y0029279D01*
X0027808Y0026880D02*
X0022410Y0026880D01*
X0022410Y0024482D02*
X0027333Y0024482D01*
X0027333Y0022083D02*
X0022410Y0022083D01*
X0022410Y0019685D02*
X0027333Y0019685D01*
X0027333Y0017286D02*
X0022410Y0017286D01*
X0022410Y0014888D02*
X0027863Y0014888D01*
X0029649Y0012489D02*
X0022410Y0012489D01*
X0022410Y0010091D02*
X0030210Y0010091D01*
X0030553Y0007692D02*
X0022410Y0007692D01*
X0039010Y0013795D02*
X0039010Y0013832D01*
X0039020Y0013842D01*
X0039983Y0016167D01*
X0039983Y0025733D01*
X0039020Y0028058D01*
X0039010Y0028068D01*
X0039010Y0036072D01*
X0043218Y0040280D01*
X0050156Y0040280D01*
X0051185Y0040706D01*
X0051610Y0041132D01*
X0051837Y0040905D01*
X0052296Y0040599D01*
X0052806Y0040388D01*
X0053347Y0040280D01*
X0057072Y0040280D01*
X0057072Y0047345D01*
X0059172Y0047345D01*
X0059172Y0040280D01*
X0062898Y0040280D01*
X0063439Y0040388D01*
X0063949Y0040599D01*
X0064407Y0040905D01*
X0064797Y0041295D01*
X0065104Y0041754D01*
X0065315Y0042263D01*
X0065422Y0042804D01*
X0065422Y0047345D01*
X0059172Y0047345D01*
X0059172Y0049445D01*
X0065422Y0049445D01*
X0065422Y0053986D01*
X0065315Y0054527D01*
X0065104Y0055036D01*
X0064797Y0055495D01*
X0064407Y0055885D01*
X0063949Y0056191D01*
X0063439Y0056402D01*
X0062898Y0056510D01*
X0060710Y0056510D01*
X0060710Y0058815D01*
X0055430Y0058815D01*
X0055430Y0058975D01*
X0060710Y0058975D01*
X0060710Y0061795D01*
X0089511Y0061795D01*
X0089511Y0061385D01*
X0089938Y0060356D01*
X0090725Y0059569D01*
X0091010Y0059450D01*
X0091010Y0058853D01*
X0090725Y0058568D01*
X0090299Y0057539D01*
X0090299Y0055245D01*
X0086394Y0055245D01*
X0086326Y0055217D01*
X0084054Y0055217D01*
X0083024Y0054790D01*
X0082237Y0054003D01*
X0081810Y0052974D01*
X0081810Y0051495D01*
X0081102Y0051495D01*
X0078511Y0054086D01*
X0078511Y0056206D01*
X0078085Y0057235D01*
X0077297Y0058023D01*
X0076268Y0058449D01*
X0069248Y0058449D01*
X0068219Y0058023D01*
X0067432Y0057235D01*
X0067005Y0056206D01*
X0067005Y0049974D01*
X0067264Y0049350D01*
X0067005Y0048726D01*
X0067005Y0042494D01*
X0067432Y0041465D01*
X0068219Y0040677D01*
X0069210Y0040266D01*
X0069210Y0021096D01*
X0068506Y0020392D01*
X0067608Y0018224D01*
X0067608Y0017115D01*
X0064288Y0013795D01*
X0058839Y0013795D01*
X0059068Y0014110D01*
X0059520Y0014997D01*
X0059827Y0015944D01*
X0059983Y0016927D01*
X0059983Y0020950D01*
X0059983Y0024973D01*
X0059827Y0025956D01*
X0059520Y0026903D01*
X0059068Y0027790D01*
X0058483Y0028595D01*
X0057779Y0029299D01*
X0056973Y0029885D01*
X0056086Y0030337D01*
X0055139Y0030644D01*
X0054156Y0030800D01*
X0053658Y0030800D01*
X0053160Y0030800D01*
X0052177Y0030644D01*
X0051230Y0030337D01*
X0050343Y0029885D01*
X0049538Y0029299D01*
X0048834Y0028595D01*
X0048249Y0027790D01*
X0047797Y0026903D01*
X0047489Y0025956D01*
X0047333Y0024973D01*
X0047333Y0020950D01*
X0053658Y0020950D01*
X0053658Y0020950D01*
X0047333Y0020950D01*
X0047333Y0016927D01*
X0047489Y0015944D01*
X0047797Y0014997D01*
X0048249Y0014110D01*
X0048477Y0013795D01*
X0039010Y0013795D01*
X0039453Y0014888D02*
X0047852Y0014888D01*
X0047333Y0017286D02*
X0039983Y0017286D01*
X0039983Y0019685D02*
X0047333Y0019685D01*
X0047333Y0022083D02*
X0039983Y0022083D01*
X0039983Y0024482D02*
X0047333Y0024482D01*
X0047789Y0026880D02*
X0039508Y0026880D01*
X0039010Y0029279D02*
X0049517Y0029279D01*
X0053658Y0029279D02*
X0053658Y0029279D01*
X0053658Y0030800D02*
X0053658Y0020950D01*
X0053658Y0020950D01*
X0053658Y0030800D01*
X0053658Y0026880D02*
X0053658Y0026880D01*
X0053658Y0024482D02*
X0053658Y0024482D01*
X0053658Y0022083D02*
X0053658Y0022083D01*
X0053658Y0020950D02*
X0059983Y0020950D01*
X0053658Y0020950D01*
X0053658Y0020950D01*
X0059527Y0026880D02*
X0069210Y0026880D01*
X0069210Y0024482D02*
X0059983Y0024482D01*
X0059983Y0022083D02*
X0069210Y0022083D01*
X0068213Y0019685D02*
X0059983Y0019685D01*
X0059983Y0017286D02*
X0067608Y0017286D01*
X0065381Y0014888D02*
X0059464Y0014888D01*
X0068633Y0005695D02*
X0074088Y0011150D01*
X0074682Y0011150D01*
X0076850Y0012048D01*
X0078508Y0013706D01*
X0081064Y0011150D01*
X0083508Y0011150D01*
X0083508Y0017050D01*
X0083508Y0017050D01*
X0083508Y0011150D01*
X0085952Y0011150D01*
X0089408Y0014606D01*
X0089408Y0017050D01*
X0089408Y0018495D01*
X0097333Y0018495D01*
X0097333Y0016167D01*
X0098296Y0013842D01*
X0100075Y0012063D01*
X0102400Y0011100D01*
X0104916Y0011100D01*
X0107241Y0012063D01*
X0109020Y0013842D01*
X0109983Y0016167D01*
X0109983Y0025733D01*
X0109020Y0028058D01*
X0107241Y0029837D01*
X0104916Y0030800D01*
X0102400Y0030800D01*
X0100075Y0029837D01*
X0098296Y0028058D01*
X0097980Y0027295D01*
X0078010Y0027295D01*
X0078010Y0041391D01*
X0078085Y0041465D01*
X0078511Y0042494D01*
X0078511Y0044454D01*
X0078894Y0044295D01*
X0082729Y0044295D01*
X0083024Y0044000D01*
X0084054Y0043573D01*
X0086341Y0043573D01*
X0087571Y0042343D01*
X0088894Y0041795D01*
X0094228Y0041795D01*
X0094465Y0041222D01*
X0095253Y0040435D01*
X0096282Y0040008D01*
X0097406Y0040008D01*
X0097571Y0039843D01*
X0097608Y0039828D01*
X0097637Y0039800D01*
X0098268Y0039554D01*
X0098894Y0039295D01*
X0098934Y0039295D01*
X0098971Y0039281D01*
X0099649Y0039295D01*
X0100327Y0039295D01*
X0100363Y0039310D01*
X0100403Y0039311D01*
X0101024Y0039584D01*
X0101650Y0039843D01*
X0101678Y0039871D01*
X0101714Y0039887D01*
X0102183Y0040377D01*
X0104913Y0043106D01*
X0104913Y0042491D01*
X0105339Y0041462D01*
X0106127Y0040674D01*
X0107156Y0040248D01*
X0108510Y0040248D01*
X0108510Y0032179D01*
X0109059Y0030856D01*
X0117333Y0022581D01*
X0117333Y0016167D01*
X0118296Y0013842D01*
X0120075Y0012063D01*
X0122400Y0011100D01*
X0124916Y0011100D01*
X0127241Y0012063D01*
X0129020Y0013842D01*
X0129983Y0016167D01*
X0129983Y0025733D01*
X0129020Y0028058D01*
X0127241Y0029837D01*
X0124916Y0030800D01*
X0122400Y0030800D01*
X0120206Y0029891D01*
X0115710Y0034386D01*
X0115710Y0041181D01*
X0115992Y0041462D01*
X0116418Y0042491D01*
X0116418Y0048723D01*
X0116160Y0049347D01*
X0116418Y0049972D01*
X0116418Y0056204D01*
X0115992Y0057233D01*
X0115204Y0058020D01*
X0114175Y0058447D01*
X0107156Y0058447D01*
X0106635Y0058231D01*
X0106496Y0058568D01*
X0105788Y0059275D01*
X0106496Y0059569D01*
X0107283Y0060356D01*
X0107710Y0061385D01*
X0107710Y0061795D01*
X0127011Y0061795D01*
X0127011Y0061385D01*
X0127438Y0060356D01*
X0128225Y0059569D01*
X0128848Y0059311D01*
X0128617Y0059157D01*
X0128227Y0058767D01*
X0127921Y0058308D01*
X0127709Y0057798D01*
X0127602Y0057257D01*
X0127602Y0056174D01*
X0127386Y0056217D01*
X0124611Y0056217D01*
X0124611Y0052673D01*
X0124610Y0052673D01*
X0124610Y0056217D01*
X0121835Y0056217D01*
X0121294Y0056109D01*
X0120784Y0055898D01*
X0120326Y0055592D01*
X0119936Y0055202D01*
X0119629Y0054743D01*
X0119418Y0054233D01*
X0119310Y0053692D01*
X0119310Y0052167D01*
X0120444Y0052167D01*
X0120444Y0052167D01*
X0119310Y0052167D01*
X0119310Y0050641D01*
X0119339Y0050499D01*
X0119310Y0050430D01*
X0119310Y0046816D01*
X0119737Y0045787D01*
X0120524Y0045000D01*
X0121554Y0044573D01*
X0121710Y0044573D01*
X0122118Y0044165D01*
X0123735Y0043495D01*
X0131342Y0043495D01*
X0131342Y0042251D01*
X0131768Y0041222D01*
X0132556Y0040435D01*
X0132710Y0040371D01*
X0132710Y0027020D01*
X0133380Y0025403D01*
X0137333Y0021450D01*
X0137333Y0016167D01*
X0138296Y0013842D01*
X0140075Y0012063D01*
X0142400Y0011100D01*
X0144916Y0011100D01*
X0147241Y0012063D01*
X0149020Y0013842D01*
X0149983Y0016167D01*
X0149983Y0025733D01*
X0149020Y0028058D01*
X0147241Y0029837D01*
X0144916Y0030800D01*
X0142400Y0030800D01*
X0141510Y0030432D01*
X0141510Y0046270D01*
X0140879Y0047795D01*
X0140879Y0048670D01*
X0142376Y0048670D01*
X0143405Y0049096D01*
X0144193Y0049884D01*
X0144619Y0050913D01*
X0144619Y0057539D01*
X0144193Y0058568D01*
X0143427Y0059333D01*
X0143996Y0059569D01*
X0144783Y0060356D01*
X0145210Y0061385D01*
X0145210Y0068405D01*
X0144783Y0069434D01*
X0143996Y0070221D01*
X0143170Y0070564D01*
X0142206Y0072891D01*
X0141784Y0073313D01*
X0141277Y0073819D01*
X0140771Y0074326D01*
X0139150Y0075947D01*
X0137827Y0076495D01*
X0134102Y0076495D01*
X0133210Y0077386D01*
X0133210Y0101111D01*
X0132662Y0102434D01*
X0127528Y0107568D01*
X0127106Y0107990D01*
X0124681Y0108995D01*
X0061102Y0108995D01*
X0059902Y0110195D01*
X0059502Y0111161D01*
X0058376Y0112286D01*
X0056906Y0112895D01*
X0055315Y0112895D01*
X0053845Y0112286D01*
X0053210Y0111652D01*
X0053210Y0123611D01*
X0052662Y0124934D01*
X0049033Y0128564D01*
X0049033Y0131676D01*
X0046259Y0134450D01*
X0049033Y0137224D01*
X0049033Y0139726D01*
X0051650Y0142343D01*
X0052662Y0143356D01*
X0053210Y0144679D01*
X0053210Y0203611D01*
X0052662Y0204934D01*
X0052363Y0205234D01*
X0052363Y0211247D01*
X0052324Y0211340D01*
X0052363Y0211433D01*
X0052363Y0218547D01*
X0051937Y0219576D01*
X0051149Y0220364D01*
X0051071Y0220396D01*
X0051484Y0220809D01*
X0051893Y0221795D01*
X0060328Y0221795D01*
X0060737Y0220809D01*
X0061524Y0220021D01*
X0061590Y0219994D01*
X0060082Y0219994D01*
X0059541Y0219887D01*
X0059031Y0219676D01*
X0058573Y0219369D01*
X0058183Y0218979D01*
X0057876Y0218521D01*
X0057665Y0218011D01*
X0057558Y0217470D01*
X0057558Y0214715D01*
X0063231Y0214715D01*
X0063231Y0214556D01*
X0057558Y0214556D01*
X0057558Y0211800D01*
X0057665Y0211259D01*
X0057816Y0210895D01*
X0057558Y0210271D01*
X0057558Y0204039D01*
X0057984Y0203010D01*
X0058772Y0202222D01*
X0059801Y0201796D01*
X0061010Y0201796D01*
X0061010Y0194679D01*
X0061559Y0193356D01*
X0066510Y0188404D01*
X0066510Y0186688D01*
X0066937Y0185659D01*
X0067724Y0184871D01*
X0068754Y0184445D01*
X0070944Y0184445D01*
X0071092Y0184369D01*
X0071249Y0184355D01*
X0071394Y0184295D01*
X0071958Y0184295D01*
X0072519Y0184247D01*
X0072669Y0184295D01*
X0072827Y0184295D01*
X0073189Y0184445D01*
X0075867Y0184445D01*
X0076897Y0184871D01*
X0077684Y0185659D01*
X0078110Y0186688D01*
X0078110Y0188804D01*
X0078627Y0189320D01*
X0079609Y0188914D01*
X0087612Y0188914D01*
X0088641Y0189340D01*
X0089429Y0190128D01*
X0089855Y0191157D01*
X0089855Y0194295D01*
X0090616Y0194295D01*
X0090616Y0191157D01*
X0091042Y0190128D01*
X0091830Y0189340D01*
X0092859Y0188914D01*
X0100862Y0188914D01*
X0101891Y0189340D01*
X0102679Y0190128D01*
X0103105Y0191157D01*
X0103105Y0194295D01*
X0103866Y0194295D01*
X0103866Y0191157D01*
X0104292Y0190128D01*
X0105080Y0189340D01*
X0106109Y0188914D01*
X0114112Y0188914D01*
X0115141Y0189340D01*
X0115929Y0190128D01*
X0116355Y0191157D01*
X0116355Y0198559D01*
X0118510Y0196404D01*
X0118510Y0149679D01*
X0119059Y0148356D01*
X0128283Y0139131D01*
X0128283Y0137224D01*
X0131057Y0134450D01*
X0128283Y0131676D01*
X0128283Y0127224D01*
X0131057Y0124450D01*
X0128283Y0121676D01*
X0128283Y0117224D01*
X0131057Y0114450D01*
X0128283Y0111676D01*
X0128283Y0107224D01*
X0131432Y0104075D01*
X0135884Y0104075D01*
X0139033Y0107224D01*
X0139033Y0111676D01*
X0136259Y0114450D01*
X0139033Y0117224D01*
X0139033Y0121676D01*
X0136259Y0124450D01*
X0139033Y0127224D01*
X0139033Y0131676D01*
X0136259Y0134450D01*
X0139033Y0137224D01*
X0139033Y0141676D01*
X0136259Y0144450D01*
X0139033Y0147224D01*
X0139033Y0151676D01*
X0136259Y0154450D01*
X0139033Y0157224D01*
X0139033Y0161676D01*
X0136259Y0164450D01*
X0139033Y0167224D01*
X0139033Y0171676D01*
X0136259Y0174450D01*
X0139033Y0177224D01*
X0139033Y0179726D01*
X0145162Y0185856D01*
X0145710Y0187179D01*
X0145710Y0201868D01*
X0146658Y0202261D01*
X0147648Y0201851D01*
X0154606Y0201851D01*
X0154606Y0187782D01*
X0151144Y0187782D01*
X0148668Y0186756D01*
X0146773Y0184861D01*
X0146773Y0184861D01*
X0145748Y0182385D01*
X0145748Y0177736D01*
X0146773Y0175260D01*
X0148668Y0173365D01*
X0148668Y0173365D01*
X0148668Y0173365D01*
X0151144Y0172339D01*
X0154606Y0172339D01*
X0154606Y0069671D01*
X0151144Y0069671D01*
X0148668Y0068646D01*
X0146773Y0066751D01*
X0146773Y0066751D01*
X0145748Y0064274D01*
X0145748Y0059626D01*
X0146773Y0057150D01*
X0146773Y0057150D01*
X0148668Y0055255D01*
X0148668Y0055255D01*
X0151144Y0054229D01*
X0154606Y0054229D01*
X0154606Y0005895D01*
X0154602Y0005856D01*
X0154572Y0005784D01*
X0154517Y0005729D01*
X0154445Y0005699D01*
X0154406Y0005695D01*
X0068633Y0005695D01*
X0070630Y0007692D02*
X0154606Y0007692D01*
X0154606Y0010091D02*
X0073029Y0010091D01*
X0077291Y0012489D02*
X0079725Y0012489D01*
X0083508Y0012489D02*
X0083508Y0012489D01*
X0083508Y0014888D02*
X0083508Y0014888D01*
X0083508Y0017050D02*
X0083508Y0017050D01*
X0089408Y0017050D01*
X0083508Y0017050D01*
X0089408Y0017286D02*
X0097333Y0017286D01*
X0097863Y0014888D02*
X0089408Y0014888D01*
X0087291Y0012489D02*
X0099649Y0012489D01*
X0107667Y0012489D02*
X0119649Y0012489D01*
X0117863Y0014888D02*
X0109453Y0014888D01*
X0109983Y0017286D02*
X0117333Y0017286D01*
X0117333Y0019685D02*
X0109983Y0019685D01*
X0109983Y0022083D02*
X0117333Y0022083D01*
X0115433Y0024482D02*
X0109983Y0024482D01*
X0109508Y0026880D02*
X0113034Y0026880D01*
X0110636Y0029279D02*
X0107799Y0029279D01*
X0108718Y0031677D02*
X0078010Y0031677D01*
X0078010Y0029279D02*
X0099517Y0029279D01*
X0108510Y0034076D02*
X0078010Y0034076D01*
X0078010Y0036474D02*
X0108510Y0036474D01*
X0108510Y0038873D02*
X0078010Y0038873D01*
X0078010Y0041271D02*
X0094445Y0041271D01*
X0103078Y0041271D02*
X0105530Y0041271D01*
X0115801Y0041271D02*
X0131748Y0041271D01*
X0132710Y0038873D02*
X0115710Y0038873D01*
X0115710Y0036474D02*
X0132710Y0036474D01*
X0132710Y0034076D02*
X0116021Y0034076D01*
X0118420Y0031677D02*
X0132710Y0031677D01*
X0132710Y0029279D02*
X0127799Y0029279D01*
X0129508Y0026880D02*
X0132768Y0026880D01*
X0134301Y0024482D02*
X0129983Y0024482D01*
X0129983Y0022083D02*
X0136700Y0022083D01*
X0137333Y0019685D02*
X0129983Y0019685D01*
X0129983Y0017286D02*
X0137333Y0017286D01*
X0137863Y0014888D02*
X0129453Y0014888D01*
X0127667Y0012489D02*
X0139649Y0012489D01*
X0147667Y0012489D02*
X0154606Y0012489D01*
X0154606Y0014888D02*
X0149453Y0014888D01*
X0149983Y0017286D02*
X0154606Y0017286D01*
X0154606Y0019685D02*
X0149983Y0019685D01*
X0149983Y0022083D02*
X0154606Y0022083D01*
X0154606Y0024482D02*
X0149983Y0024482D01*
X0149508Y0026880D02*
X0154606Y0026880D01*
X0154606Y0029279D02*
X0147799Y0029279D01*
X0141510Y0031677D02*
X0154606Y0031677D01*
X0154606Y0034076D02*
X0141510Y0034076D01*
X0141510Y0036474D02*
X0154606Y0036474D01*
X0154606Y0038873D02*
X0141510Y0038873D01*
X0141510Y0041271D02*
X0154606Y0041271D01*
X0154606Y0043670D02*
X0141510Y0043670D01*
X0141510Y0046068D02*
X0154606Y0046068D01*
X0154606Y0048467D02*
X0140879Y0048467D01*
X0144599Y0050865D02*
X0154606Y0050865D01*
X0154606Y0053264D02*
X0144619Y0053264D01*
X0144619Y0055662D02*
X0148261Y0055662D01*
X0146396Y0058061D02*
X0144403Y0058061D01*
X0144826Y0060459D02*
X0145748Y0060459D01*
X0145748Y0062858D02*
X0145210Y0062858D01*
X0145210Y0065256D02*
X0146154Y0065256D01*
X0145210Y0067655D02*
X0147677Y0067655D01*
X0148668Y0068646D02*
X0148668Y0068646D01*
X0144164Y0070053D02*
X0154606Y0070053D01*
X0154606Y0072452D02*
X0142388Y0072452D01*
X0142206Y0072891D02*
X0142206Y0072891D01*
X0140771Y0074326D02*
X0140771Y0074326D01*
X0140246Y0074850D02*
X0154606Y0074850D01*
X0154606Y0077249D02*
X0133348Y0077249D01*
X0133210Y0079647D02*
X0154606Y0079647D01*
X0154606Y0082046D02*
X0133210Y0082046D01*
X0133210Y0084444D02*
X0154606Y0084444D01*
X0154606Y0086843D02*
X0133210Y0086843D01*
X0133210Y0089241D02*
X0154606Y0089241D01*
X0154606Y0091640D02*
X0133210Y0091640D01*
X0133210Y0094038D02*
X0154606Y0094038D01*
X0154606Y0096437D02*
X0133210Y0096437D01*
X0133210Y0098835D02*
X0154606Y0098835D01*
X0154606Y0101234D02*
X0133160Y0101234D01*
X0131464Y0103632D02*
X0154606Y0103632D01*
X0154606Y0106031D02*
X0137840Y0106031D01*
X0139033Y0108430D02*
X0154606Y0108430D01*
X0154606Y0110828D02*
X0139033Y0110828D01*
X0137483Y0113227D02*
X0154606Y0113227D01*
X0154606Y0115625D02*
X0137434Y0115625D01*
X0139033Y0118024D02*
X0154606Y0118024D01*
X0154606Y0120422D02*
X0139033Y0120422D01*
X0137889Y0122821D02*
X0154606Y0122821D01*
X0154606Y0125219D02*
X0137028Y0125219D01*
X0139033Y0127618D02*
X0154606Y0127618D01*
X0154606Y0130016D02*
X0139033Y0130016D01*
X0138295Y0132415D02*
X0154606Y0132415D01*
X0154606Y0134813D02*
X0136622Y0134813D01*
X0139021Y0137212D02*
X0154606Y0137212D01*
X0154606Y0139610D02*
X0139033Y0139610D01*
X0138701Y0142009D02*
X0154606Y0142009D01*
X0154606Y0144407D02*
X0136302Y0144407D01*
X0138615Y0146806D02*
X0154606Y0146806D01*
X0154606Y0149204D02*
X0139033Y0149204D01*
X0139033Y0151603D02*
X0154606Y0151603D01*
X0154606Y0154001D02*
X0136708Y0154001D01*
X0138209Y0156400D02*
X0154606Y0156400D01*
X0154606Y0158798D02*
X0139033Y0158798D01*
X0139033Y0161197D02*
X0154606Y0161197D01*
X0154606Y0163595D02*
X0137114Y0163595D01*
X0137803Y0165994D02*
X0154606Y0165994D01*
X0154606Y0168392D02*
X0139033Y0168392D01*
X0139033Y0170791D02*
X0154606Y0170791D01*
X0149092Y0173189D02*
X0137520Y0173189D01*
X0137397Y0175588D02*
X0146637Y0175588D01*
X0146773Y0175260D02*
X0146773Y0175260D01*
X0145748Y0177986D02*
X0139033Y0177986D01*
X0139691Y0180385D02*
X0145748Y0180385D01*
X0145913Y0182783D02*
X0142090Y0182783D01*
X0144489Y0185182D02*
X0147094Y0185182D01*
X0148668Y0186756D02*
X0148668Y0186756D01*
X0150659Y0187580D02*
X0145710Y0187580D01*
X0145710Y0189979D02*
X0154606Y0189979D01*
X0154606Y0192377D02*
X0145710Y0192377D01*
X0145710Y0194776D02*
X0154606Y0194776D01*
X0154606Y0197174D02*
X0145710Y0197174D01*
X0145710Y0199573D02*
X0154606Y0199573D01*
X0147357Y0201971D02*
X0145959Y0201971D01*
X0138510Y0201908D02*
X0138510Y0189386D01*
X0133949Y0184825D01*
X0131432Y0184825D01*
X0128283Y0181676D01*
X0128283Y0177224D01*
X0131057Y0174450D01*
X0128283Y0171676D01*
X0128283Y0169313D01*
X0128210Y0169386D01*
X0128210Y0213611D01*
X0127791Y0214623D01*
X0136405Y0206009D01*
X0136405Y0204094D01*
X0136832Y0203065D01*
X0137619Y0202277D01*
X0138510Y0201908D01*
X0138357Y0201971D02*
X0128210Y0201971D01*
X0128210Y0199573D02*
X0138510Y0199573D01*
X0138510Y0197174D02*
X0128210Y0197174D01*
X0128210Y0194776D02*
X0138510Y0194776D01*
X0138510Y0192377D02*
X0128210Y0192377D01*
X0128210Y0189979D02*
X0138510Y0189979D01*
X0136705Y0187580D02*
X0128210Y0187580D01*
X0128210Y0185182D02*
X0134306Y0185182D01*
X0129390Y0182783D02*
X0128210Y0182783D01*
X0128210Y0180385D02*
X0128283Y0180385D01*
X0128283Y0177986D02*
X0128210Y0177986D01*
X0128210Y0175588D02*
X0129919Y0175588D01*
X0129796Y0173189D02*
X0128210Y0173189D01*
X0128210Y0170791D02*
X0128283Y0170791D01*
X0118510Y0170791D02*
X0053210Y0170791D01*
X0053210Y0173189D02*
X0118510Y0173189D01*
X0118510Y0175588D02*
X0053210Y0175588D01*
X0053210Y0177986D02*
X0118510Y0177986D01*
X0118510Y0180385D02*
X0053210Y0180385D01*
X0053210Y0182783D02*
X0118510Y0182783D01*
X0118510Y0185182D02*
X0077207Y0185182D01*
X0078110Y0187580D02*
X0118510Y0187580D01*
X0118510Y0189979D02*
X0115780Y0189979D01*
X0116355Y0192377D02*
X0118510Y0192377D01*
X0118510Y0194776D02*
X0116355Y0194776D01*
X0116355Y0197174D02*
X0117740Y0197174D01*
X0128210Y0204370D02*
X0136405Y0204370D01*
X0135646Y0206768D02*
X0128210Y0206768D01*
X0128210Y0209167D02*
X0133247Y0209167D01*
X0130849Y0211565D02*
X0128210Y0211565D01*
X0128064Y0213964D02*
X0128450Y0213964D01*
X0146945Y0233152D02*
X0154606Y0233152D01*
X0154606Y0230754D02*
X0153954Y0230754D01*
X0154606Y0235551D02*
X0022410Y0235551D01*
X0028954Y0230754D02*
X0033267Y0230754D01*
X0038954Y0230754D02*
X0041509Y0230754D01*
X0050712Y0230754D02*
X0061509Y0230754D01*
X0060592Y0221160D02*
X0051629Y0221160D01*
X0052274Y0218761D02*
X0058037Y0218761D01*
X0057558Y0216363D02*
X0052363Y0216363D01*
X0052363Y0213964D02*
X0057558Y0213964D01*
X0057604Y0211565D02*
X0052363Y0211565D01*
X0052363Y0209167D02*
X0057558Y0209167D01*
X0057558Y0206768D02*
X0052363Y0206768D01*
X0052896Y0204370D02*
X0057558Y0204370D01*
X0059377Y0201971D02*
X0053210Y0201971D01*
X0053210Y0199573D02*
X0061010Y0199573D01*
X0061010Y0197174D02*
X0053210Y0197174D01*
X0053210Y0194776D02*
X0061010Y0194776D01*
X0062537Y0192377D02*
X0053210Y0192377D01*
X0053210Y0189979D02*
X0064935Y0189979D01*
X0066510Y0187580D02*
X0053210Y0187580D01*
X0053210Y0185182D02*
X0067414Y0185182D01*
X0053210Y0168392D02*
X0118510Y0168392D01*
X0118510Y0165994D02*
X0053210Y0165994D01*
X0053210Y0163595D02*
X0118510Y0163595D01*
X0118510Y0161197D02*
X0053210Y0161197D01*
X0053210Y0158798D02*
X0087546Y0158798D01*
X0087568Y0158807D02*
X0086539Y0158381D01*
X0086510Y0158352D01*
X0086339Y0158281D01*
X0085552Y0157494D01*
X0085452Y0157394D01*
X0085352Y0157294D01*
X0085252Y0157194D01*
X0085152Y0157094D01*
X0085052Y0156994D01*
X0084952Y0156894D01*
X0084881Y0156723D01*
X0084852Y0156694D01*
X0084752Y0156594D01*
X0084681Y0156423D01*
X0084652Y0156394D01*
X0084552Y0156294D01*
X0084481Y0156123D01*
X0084452Y0156094D01*
X0084352Y0155994D01*
X0084281Y0155823D01*
X0084252Y0155794D01*
X0084152Y0155694D01*
X0084052Y0155594D01*
X0083981Y0155423D01*
X0083952Y0155394D01*
X0083852Y0155294D01*
X0083781Y0155123D01*
X0083752Y0155094D01*
X0083739Y0155081D01*
X0083710Y0155052D01*
X0083603Y0155007D01*
X0083468Y0155007D01*
X0082439Y0154581D01*
X0082410Y0154552D01*
X0082239Y0154481D01*
X0082210Y0154452D01*
X0082039Y0154381D01*
X0082010Y0154352D01*
X0081839Y0154281D01*
X0081710Y0154152D01*
X0081539Y0154081D01*
X0081481Y0154023D01*
X0081139Y0153881D01*
X0080352Y0153094D01*
X0080252Y0152994D01*
X0079825Y0151964D01*
X0079825Y0150751D01*
X0079925Y0150509D01*
X0079925Y0150451D01*
X0080352Y0149421D01*
X0080369Y0149404D01*
X0080652Y0148721D01*
X0080725Y0148648D01*
X0080725Y0148630D01*
X0080681Y0148523D01*
X0080652Y0148494D01*
X0080552Y0148394D01*
X0080125Y0147364D01*
X0080125Y0147347D01*
X0079925Y0146864D01*
X0079925Y0146806D01*
X0079825Y0146564D01*
X0079825Y0146506D01*
X0079725Y0146264D01*
X0079725Y0146230D01*
X0079681Y0146123D01*
X0079652Y0146094D01*
X0079581Y0145923D01*
X0079552Y0145894D01*
X0079452Y0145794D01*
X0079352Y0145694D01*
X0079281Y0145523D01*
X0079252Y0145494D01*
X0079166Y0145407D01*
X0078768Y0145407D01*
X0077739Y0144981D01*
X0077641Y0144883D01*
X0077582Y0144907D01*
X0077524Y0144907D01*
X0077282Y0145007D01*
X0075468Y0145007D01*
X0075227Y0144907D01*
X0075068Y0144907D01*
X0074827Y0144807D01*
X0074768Y0144807D01*
X0074527Y0144707D01*
X0074468Y0144707D01*
X0074227Y0144607D01*
X0073924Y0144607D01*
X0073682Y0144707D01*
X0072068Y0144707D01*
X0071039Y0144281D01*
X0070252Y0143494D01*
X0069825Y0142464D01*
X0069825Y0141251D01*
X0069925Y0141009D01*
X0069925Y0139551D01*
X0070352Y0138521D01*
X0070825Y0138048D01*
X0070825Y0137751D01*
X0070825Y0137651D01*
X0071252Y0136621D01*
X0072039Y0135834D01*
X0073068Y0135407D01*
X0074382Y0135407D01*
X0075412Y0135834D01*
X0075512Y0135934D01*
X0075541Y0135963D01*
X0075712Y0136034D01*
X0075785Y0136107D01*
X0075882Y0136107D01*
X0076124Y0136207D01*
X0076382Y0136207D01*
X0076624Y0136307D01*
X0076782Y0136307D01*
X0077024Y0136407D01*
X0077182Y0136407D01*
X0078212Y0136834D01*
X0078241Y0136863D01*
X0078412Y0136934D01*
X0078441Y0136963D01*
X0078612Y0137034D01*
X0078641Y0137063D01*
X0078812Y0137134D01*
X0078912Y0137234D01*
X0079012Y0137334D01*
X0079112Y0137434D01*
X0079212Y0137534D01*
X0079285Y0137607D01*
X0080382Y0137607D01*
X0081412Y0138034D01*
X0082058Y0138680D01*
X0082124Y0138707D01*
X0082182Y0138707D01*
X0082424Y0138807D01*
X0082425Y0138807D01*
X0082425Y0138806D01*
X0082325Y0138564D01*
X0082325Y0138547D01*
X0082125Y0138064D01*
X0082125Y0136851D01*
X0082552Y0135821D01*
X0083339Y0135034D01*
X0083439Y0134934D01*
X0083610Y0134863D01*
X0084139Y0134334D01*
X0084239Y0134234D01*
X0084339Y0134134D01*
X0084339Y0134134D01*
X0084439Y0134034D01*
X0084610Y0133963D01*
X0084639Y0133934D01*
X0084639Y0133934D01*
X0084739Y0133834D01*
X0085768Y0133407D01*
X0086982Y0133407D01*
X0087224Y0133507D01*
X0087482Y0133507D01*
X0087724Y0133607D01*
X0088082Y0133607D01*
X0089112Y0134034D01*
X0089210Y0134132D01*
X0089268Y0134107D01*
X0090682Y0134107D01*
X0091712Y0134534D01*
X0091812Y0134634D01*
X0091912Y0134734D01*
X0092012Y0134834D01*
X0092041Y0134863D01*
X0092212Y0134934D01*
X0092312Y0135034D01*
X0092412Y0135134D01*
X0092512Y0135234D01*
X0092612Y0135334D01*
X0093399Y0136121D01*
X0093825Y0137151D01*
X0093825Y0138364D01*
X0093399Y0139394D01*
X0092612Y0140181D01*
X0092441Y0140252D01*
X0092425Y0140267D01*
X0092425Y0140309D01*
X0092525Y0140551D01*
X0092525Y0140609D01*
X0092625Y0140851D01*
X0092625Y0140868D01*
X0092682Y0141004D01*
X0092699Y0141021D01*
X0092770Y0141192D01*
X0092799Y0141221D01*
X0093225Y0142251D01*
X0093225Y0142309D01*
X0093325Y0142551D01*
X0093325Y0142609D01*
X0093408Y0142807D01*
X0094082Y0142807D01*
X0095112Y0143234D01*
X0095170Y0143292D01*
X0095512Y0143434D01*
X0095570Y0143492D01*
X0095912Y0143634D01*
X0096012Y0143734D01*
X0096187Y0143909D01*
X0096424Y0144007D01*
X0096482Y0144007D01*
X0096965Y0144207D01*
X0096982Y0144207D01*
X0097465Y0144407D01*
X0097464Y0144407D02*
X0123007Y0144407D01*
X0125406Y0142009D02*
X0093125Y0142009D01*
X0093183Y0139610D02*
X0127804Y0139610D01*
X0128295Y0137212D02*
X0093825Y0137212D01*
X0091991Y0134813D02*
X0130694Y0134813D01*
X0129022Y0132415D02*
X0048295Y0132415D01*
X0049033Y0130016D02*
X0128283Y0130016D01*
X0128283Y0127618D02*
X0092721Y0127618D01*
X0092882Y0127551D02*
X0090044Y0128726D01*
X0086972Y0128726D01*
X0084134Y0127551D01*
X0081962Y0125379D01*
X0080787Y0122541D01*
X0080787Y0119469D01*
X0081962Y0116631D01*
X0084134Y0114459D01*
X0086972Y0113284D01*
X0090044Y0113284D01*
X0092882Y0114459D01*
X0095054Y0116631D01*
X0096229Y0119469D01*
X0096229Y0122541D01*
X0095054Y0125379D01*
X0092882Y0127551D01*
X0095120Y0125219D02*
X0130288Y0125219D01*
X0129428Y0122821D02*
X0096114Y0122821D01*
X0096229Y0120422D02*
X0128283Y0120422D01*
X0128283Y0118024D02*
X0095630Y0118024D01*
X0094047Y0115625D02*
X0129882Y0115625D01*
X0129834Y0113227D02*
X0053210Y0113227D01*
X0053210Y0115625D02*
X0082969Y0115625D01*
X0081386Y0118024D02*
X0053210Y0118024D01*
X0053210Y0120422D02*
X0080787Y0120422D01*
X0080903Y0122821D02*
X0053210Y0122821D01*
X0052378Y0125219D02*
X0081896Y0125219D01*
X0084295Y0127618D02*
X0049979Y0127618D01*
X0046622Y0134813D02*
X0083660Y0134813D01*
X0082125Y0137212D02*
X0078889Y0137212D01*
X0075512Y0135934D02*
X0075512Y0135934D01*
X0071007Y0137212D02*
X0049021Y0137212D01*
X0049033Y0139610D02*
X0069925Y0139610D01*
X0069825Y0142009D02*
X0051315Y0142009D01*
X0053098Y0144407D02*
X0071344Y0144407D01*
X0079925Y0146806D02*
X0053210Y0146806D01*
X0053210Y0149204D02*
X0080452Y0149204D01*
X0079825Y0151603D02*
X0053210Y0151603D01*
X0053210Y0154001D02*
X0081429Y0154001D01*
X0083739Y0155081D02*
X0083739Y0155081D01*
X0084658Y0156400D02*
X0053210Y0156400D01*
X0046010Y0199573D02*
X0043498Y0199573D01*
X0070712Y0230754D02*
X0073267Y0230754D01*
X0089855Y0192377D02*
X0090616Y0192377D01*
X0091191Y0189979D02*
X0089280Y0189979D01*
X0102530Y0189979D02*
X0104441Y0189979D01*
X0103866Y0192377D02*
X0103105Y0192377D01*
X0089982Y0158707D02*
X0089924Y0158707D01*
X0089682Y0158807D01*
X0087568Y0158807D01*
X0089705Y0158798D02*
X0118510Y0158798D01*
X0118510Y0156400D02*
X0092893Y0156400D01*
X0092899Y0156394D02*
X0092870Y0156423D01*
X0092799Y0156594D01*
X0092699Y0156694D01*
X0092670Y0156723D01*
X0092599Y0156894D01*
X0092499Y0156994D01*
X0092399Y0157094D01*
X0092299Y0157194D01*
X0092199Y0157294D01*
X0091412Y0158081D01*
X0091241Y0158152D01*
X0091212Y0158181D01*
X0091041Y0158252D01*
X0091012Y0158281D01*
X0089982Y0158707D01*
X0092899Y0156394D02*
X0092970Y0156223D01*
X0092999Y0156194D01*
X0093425Y0155164D01*
X0093425Y0152151D01*
X0092999Y0151121D01*
X0092585Y0150707D01*
X0092641Y0150652D01*
X0092812Y0150581D01*
X0092941Y0150452D01*
X0093112Y0150381D01*
X0093241Y0150252D01*
X0093412Y0150181D01*
X0093441Y0150152D01*
X0093548Y0150107D01*
X0093727Y0150107D01*
X0093968Y0150207D01*
X0094027Y0150207D01*
X0094268Y0150307D01*
X0094327Y0150307D01*
X0094568Y0150407D01*
X0094627Y0150407D01*
X0094868Y0150507D01*
X0094927Y0150507D01*
X0095168Y0150607D01*
X0095227Y0150607D01*
X0095468Y0150707D01*
X0095486Y0150707D01*
X0095968Y0150907D01*
X0096027Y0150907D01*
X0096268Y0151007D01*
X0096327Y0151007D01*
X0096568Y0151107D01*
X0096627Y0151107D01*
X0096868Y0151207D01*
X0096927Y0151207D01*
X0097168Y0151307D01*
X0097227Y0151307D01*
X0097468Y0151407D01*
X0097527Y0151407D01*
X0097768Y0151507D01*
X0099282Y0151507D01*
X0100312Y0151081D01*
X0101099Y0150294D01*
X0101199Y0150194D01*
X0101270Y0150023D01*
X0101299Y0149994D01*
X0101725Y0148964D01*
X0101725Y0147651D01*
X0101299Y0146621D01*
X0101270Y0146592D01*
X0101199Y0146421D01*
X0100412Y0145634D01*
X0100241Y0145563D01*
X0100212Y0145534D01*
X0100041Y0145463D01*
X0100012Y0145434D01*
X0098982Y0145007D01*
X0098965Y0145007D01*
X0098482Y0144807D01*
X0098465Y0144807D01*
X0097982Y0144607D01*
X0097965Y0144607D01*
X0097482Y0144407D01*
X0097465Y0144407D01*
X0096012Y0143734D02*
X0096012Y0143734D01*
X0101376Y0146806D02*
X0120609Y0146806D01*
X0118707Y0149204D02*
X0101626Y0149204D01*
X0093199Y0151603D02*
X0118510Y0151603D01*
X0118510Y0154001D02*
X0093425Y0154001D01*
X0059639Y0110828D02*
X0128283Y0110828D01*
X0128283Y0108430D02*
X0126046Y0108430D01*
X0127106Y0107990D02*
X0127106Y0107990D01*
X0127528Y0107568D02*
X0127528Y0107568D01*
X0129066Y0106031D02*
X0129476Y0106031D01*
X0127395Y0060459D02*
X0107326Y0060459D01*
X0115107Y0058061D02*
X0127818Y0058061D01*
X0124610Y0055662D02*
X0124611Y0055662D01*
X0124610Y0053264D02*
X0124611Y0053264D01*
X0120431Y0055662D02*
X0116418Y0055662D01*
X0116418Y0053264D02*
X0119310Y0053264D01*
X0119310Y0050865D02*
X0116418Y0050865D01*
X0116418Y0048467D02*
X0119310Y0048467D01*
X0119620Y0046068D02*
X0116418Y0046068D01*
X0116418Y0043670D02*
X0123314Y0043670D01*
X0090299Y0055662D02*
X0078511Y0055662D01*
X0079333Y0053264D02*
X0081931Y0053264D01*
X0077206Y0058061D02*
X0090515Y0058061D01*
X0089895Y0060459D02*
X0060710Y0060459D01*
X0060710Y0058061D02*
X0068311Y0058061D01*
X0067005Y0055662D02*
X0064630Y0055662D01*
X0065422Y0053264D02*
X0067005Y0053264D01*
X0067005Y0050865D02*
X0065422Y0050865D01*
X0067005Y0048467D02*
X0059172Y0048467D01*
X0059172Y0046068D02*
X0057072Y0046068D01*
X0057072Y0043670D02*
X0059172Y0043670D01*
X0059172Y0041271D02*
X0057072Y0041271D01*
X0064773Y0041271D02*
X0067625Y0041271D01*
X0067005Y0043670D02*
X0065422Y0043670D01*
X0065422Y0046068D02*
X0067005Y0046068D01*
X0069210Y0038873D02*
X0041811Y0038873D01*
X0039412Y0036474D02*
X0069210Y0036474D01*
X0069210Y0034076D02*
X0039010Y0034076D01*
X0039010Y0031677D02*
X0069210Y0031677D01*
X0069210Y0029279D02*
X0057799Y0029279D01*
X0078511Y0043670D02*
X0083821Y0043670D01*
X0055267Y0064648D02*
X0047571Y0072343D01*
X0046559Y0073356D01*
X0046010Y0074679D01*
X0046010Y0104201D01*
X0045884Y0104075D01*
X0041510Y0104075D01*
X0041510Y0072218D01*
X0049080Y0064648D01*
X0050986Y0064648D01*
X0051610Y0064389D01*
X0051975Y0064540D01*
X0052516Y0064648D01*
X0055267Y0064648D01*
X0054658Y0065256D02*
X0048472Y0065256D01*
X0046073Y0067655D02*
X0052260Y0067655D01*
X0049861Y0070053D02*
X0043675Y0070053D01*
X0041510Y0072452D02*
X0047462Y0072452D01*
X0046010Y0074850D02*
X0041510Y0074850D01*
X0041510Y0077249D02*
X0046010Y0077249D01*
X0046010Y0079647D02*
X0041510Y0079647D01*
X0041510Y0082046D02*
X0046010Y0082046D01*
X0046010Y0084444D02*
X0041510Y0084444D01*
X0041510Y0086843D02*
X0046010Y0086843D01*
X0046010Y0089241D02*
X0041510Y0089241D01*
X0041510Y0091640D02*
X0046010Y0091640D01*
X0046010Y0094038D02*
X0041510Y0094038D01*
X0041510Y0096437D02*
X0046010Y0096437D01*
X0046010Y0098835D02*
X0041510Y0098835D01*
X0041510Y0101234D02*
X0046010Y0101234D01*
X0046010Y0103632D02*
X0041510Y0103632D01*
D105*
X0037110Y0070395D02*
X0047110Y0060395D01*
X0047110Y0057895D02*
X0047110Y0050395D01*
X0044610Y0047895D02*
X0034610Y0037895D01*
X0034610Y0022895D01*
X0033658Y0020950D01*
X0034610Y0022895D02*
X0034610Y0009395D01*
X0066110Y0009395D01*
X0073610Y0016895D01*
X0073508Y0017050D01*
X0073610Y0016895D02*
X0073610Y0022895D01*
X0102110Y0022895D01*
X0103658Y0020950D01*
X0124610Y0047895D02*
X0134610Y0047895D01*
X0137110Y0045395D02*
X0137110Y0027895D01*
X0142110Y0022895D01*
X0143658Y0020950D01*
X0132110Y0052895D02*
X0124610Y0052895D01*
X0073610Y0045395D02*
X0073610Y0022895D01*
X0058110Y0036895D02*
X0058110Y0048366D01*
X0058122Y0048395D02*
X0058122Y0054881D01*
X0057244Y0057002D02*
X0055351Y0058895D01*
X0057243Y0057002D02*
X0057318Y0056925D01*
X0057389Y0056846D01*
X0057458Y0056763D01*
X0057524Y0056679D01*
X0057586Y0056592D01*
X0057646Y0056503D01*
X0057702Y0056412D01*
X0057755Y0056319D01*
X0057805Y0056224D01*
X0057851Y0056127D01*
X0057894Y0056029D01*
X0057933Y0055929D01*
X0057968Y0055828D01*
X0058000Y0055726D01*
X0058029Y0055623D01*
X0058053Y0055519D01*
X0058074Y0055414D01*
X0058091Y0055308D01*
X0058105Y0055202D01*
X0058114Y0055095D01*
X0058120Y0054988D01*
X0058122Y0054881D01*
X0058123Y0048394D02*
X0058116Y0048386D01*
X0058112Y0048376D01*
X0058111Y0048366D01*
X0058110Y0036895D02*
X0054537Y0033321D01*
X0053658Y0031200D02*
X0053658Y0020950D01*
X0053658Y0031200D02*
X0053660Y0031307D01*
X0053666Y0031414D01*
X0053675Y0031521D01*
X0053689Y0031627D01*
X0053706Y0031733D01*
X0053727Y0031838D01*
X0053751Y0031942D01*
X0053780Y0032045D01*
X0053812Y0032147D01*
X0053847Y0032248D01*
X0053886Y0032348D01*
X0053929Y0032446D01*
X0053975Y0032543D01*
X0054025Y0032638D01*
X0054078Y0032731D01*
X0054134Y0032822D01*
X0054194Y0032911D01*
X0054256Y0032998D01*
X0054322Y0033082D01*
X0054391Y0033165D01*
X0054462Y0033244D01*
X0054537Y0033321D01*
X0037110Y0070395D02*
X0037110Y0172895D01*
X0042110Y0177895D01*
X0043658Y0179450D01*
D106*
X0042110Y0202895D02*
X0032110Y0202895D01*
X0029610Y0205395D01*
X0027110Y0205395D01*
X0026158Y0207210D01*
X0032110Y0207895D02*
X0032110Y0210395D01*
X0027110Y0215395D01*
X0026158Y0214690D01*
X0027110Y0215395D02*
X0030860Y0219145D01*
X0030860Y0227895D01*
X0033360Y0230395D01*
X0072110Y0230395D01*
X0072110Y0222895D01*
X0074610Y0220395D01*
X0074610Y0216645D01*
X0073360Y0215395D01*
X0072390Y0215395D01*
X0072310Y0207155D02*
X0074610Y0205395D01*
X0114610Y0205395D01*
X0122110Y0197895D01*
X0122110Y0150395D01*
X0132110Y0140395D01*
X0133658Y0139450D01*
X0133658Y0159450D02*
X0132110Y0160395D01*
X0124610Y0167895D01*
X0124610Y0212895D01*
X0114610Y0222895D01*
X0114610Y0227895D01*
X0117110Y0230395D01*
X0144610Y0230395D01*
X0149610Y0225395D01*
X0151110Y0225395D01*
X0152110Y0225395D01*
X0152110Y0215395D01*
X0151158Y0214690D01*
X0149610Y0207895D02*
X0144610Y0207895D01*
X0142158Y0207210D01*
X0142110Y0205395D01*
X0122110Y0225395D01*
X0121110Y0225395D01*
X0109610Y0222895D02*
X0109610Y0215395D01*
X0110110Y0213860D01*
X0109610Y0222895D02*
X0107110Y0225395D01*
X0106110Y0225395D01*
X0097110Y0225395D02*
X0097110Y0215395D01*
X0096860Y0213860D01*
X0097110Y0225395D02*
X0096110Y0225395D01*
X0086110Y0225395D02*
X0084610Y0225395D01*
X0084610Y0215395D01*
X0083610Y0213860D01*
X0084610Y0197895D02*
X0083610Y0196930D01*
X0082110Y0197895D01*
X0074610Y0190395D01*
X0072310Y0190245D01*
X0072110Y0187895D01*
X0064610Y0195395D01*
X0064610Y0205395D01*
X0063310Y0207155D01*
X0072110Y0205395D02*
X0072110Y0197895D01*
X0072310Y0197545D01*
X0072110Y0205395D02*
X0072310Y0207155D01*
X0084610Y0197895D02*
X0094610Y0197895D01*
X0096860Y0196930D01*
X0097110Y0197895D01*
X0109610Y0197895D01*
X0110110Y0196930D01*
X0089855Y0192895D02*
X0089610Y0192895D01*
X0066110Y0225395D02*
X0046110Y0225395D01*
X0037110Y0225395D02*
X0037110Y0215395D01*
X0036610Y0215135D01*
X0037110Y0215395D02*
X0044610Y0215395D01*
X0046563Y0214990D01*
X0046563Y0207690D02*
X0047110Y0205395D01*
X0049610Y0202895D01*
X0049610Y0145395D01*
X0044610Y0140395D01*
X0043658Y0139450D01*
X0043658Y0129450D02*
X0044610Y0127895D01*
X0049610Y0122895D01*
X0049610Y0075395D01*
X0059610Y0065395D01*
X0094610Y0065395D01*
X0094870Y0064895D01*
X0094610Y0062895D01*
X0094610Y0055395D01*
X0094870Y0054619D01*
X0094610Y0054145D01*
X0094610Y0051645D01*
X0087110Y0051645D01*
X0087110Y0051167D01*
X0087110Y0047895D02*
X0087110Y0047623D01*
X0087110Y0047895D02*
X0079610Y0047895D01*
X0074610Y0052895D01*
X0072758Y0053090D01*
X0072758Y0045610D02*
X0073610Y0045395D01*
X0087110Y0047895D02*
X0089610Y0045395D01*
X0097110Y0045395D01*
X0098610Y0045171D01*
X0099610Y0042895D01*
X0109610Y0052895D01*
X0110665Y0053088D01*
X0110665Y0045607D02*
X0112110Y0045395D01*
X0112110Y0032895D01*
X0122110Y0022895D01*
X0123658Y0020950D01*
X0136110Y0045564D02*
X0137110Y0045395D01*
X0136110Y0045564D02*
X0134610Y0047895D01*
X0132110Y0052895D02*
X0132370Y0054226D01*
X0139610Y0055395D02*
X0132110Y0062895D01*
X0132370Y0064895D01*
X0132110Y0065395D01*
X0104610Y0065395D01*
X0102351Y0064895D01*
X0102110Y0062895D01*
X0102110Y0055395D01*
X0102351Y0054619D01*
X0124610Y0052895D02*
X0124610Y0052167D01*
X0124610Y0048623D02*
X0124610Y0047895D01*
X0139851Y0054226D02*
X0139610Y0055395D01*
X0139851Y0064895D02*
X0139610Y0065395D01*
X0139610Y0069152D01*
X0138732Y0071274D02*
X0137110Y0072895D01*
X0132610Y0072895D01*
X0129610Y0075895D01*
X0129610Y0100395D01*
X0125489Y0104516D01*
X0123368Y0105395D02*
X0059610Y0105395D01*
X0056110Y0108895D01*
X0047110Y0060395D02*
X0047870Y0058895D01*
X0047110Y0057895D01*
X0047110Y0050395D02*
X0045099Y0048395D01*
X0044610Y0047895D01*
X0123368Y0105395D02*
X0123475Y0105393D01*
X0123582Y0105387D01*
X0123689Y0105378D01*
X0123795Y0105364D01*
X0123901Y0105347D01*
X0124006Y0105326D01*
X0124110Y0105302D01*
X0124213Y0105273D01*
X0124315Y0105241D01*
X0124416Y0105206D01*
X0124516Y0105167D01*
X0124614Y0105124D01*
X0124711Y0105078D01*
X0124806Y0105028D01*
X0124899Y0104975D01*
X0124990Y0104919D01*
X0125079Y0104859D01*
X0125166Y0104797D01*
X0125250Y0104731D01*
X0125333Y0104662D01*
X0125412Y0104591D01*
X0125489Y0104516D01*
X0138731Y0071273D02*
X0138806Y0071196D01*
X0138877Y0071117D01*
X0138946Y0071034D01*
X0139012Y0070950D01*
X0139074Y0070863D01*
X0139134Y0070774D01*
X0139190Y0070683D01*
X0139243Y0070590D01*
X0139293Y0070495D01*
X0139339Y0070398D01*
X0139382Y0070300D01*
X0139421Y0070200D01*
X0139456Y0070099D01*
X0139488Y0069997D01*
X0139517Y0069894D01*
X0139541Y0069790D01*
X0139562Y0069685D01*
X0139579Y0069579D01*
X0139593Y0069473D01*
X0139602Y0069366D01*
X0139608Y0069259D01*
X0139610Y0069152D01*
X0133658Y0179450D02*
X0134610Y0180395D01*
X0142110Y0187895D01*
X0142110Y0205395D01*
X0149610Y0207895D02*
X0151158Y0207210D01*
X0142158Y0214690D02*
X0142110Y0215395D01*
X0142110Y0225395D01*
X0141110Y0225395D01*
X0046563Y0207690D02*
X0044610Y0205395D01*
X0042110Y0202895D01*
X0036610Y0207655D02*
X0035860Y0207895D01*
X0032110Y0207895D01*
X0036110Y0225395D02*
X0037110Y0225395D01*
D107*
X0055110Y0218702D03*
X0027610Y0192202D03*
X0027610Y0164206D03*
X0027610Y0136647D03*
X0027610Y0109088D03*
X0043610Y0087395D03*
X0027610Y0077592D03*
X0027610Y0050033D03*
X0072110Y0111895D03*
X0105610Y0111895D03*
X0149658Y0124836D03*
X0149658Y0152395D03*
X0133110Y0191395D03*
X0149658Y0194202D03*
X0149658Y0093340D03*
X0149658Y0050033D03*
X0087166Y0038785D03*
D108*
X0056110Y0108895D03*
M02*
