G75*
%MOIN*%
%OFA0B0*%
%FSLAX25Y25*%
%IPPOS*%
%LPD*%
%AMOC8*
5,1,8,0,0,1.08239X$1,22.5*
%
%ADD10C,0.00000*%
D10*
X0019610Y0005895D02*
X0019610Y0057029D01*
X0024532Y0057029D01*
X0024656Y0057031D01*
X0024779Y0057037D01*
X0024903Y0057046D01*
X0025025Y0057060D01*
X0025148Y0057077D01*
X0025270Y0057099D01*
X0025391Y0057124D01*
X0025511Y0057153D01*
X0025630Y0057185D01*
X0025749Y0057222D01*
X0025866Y0057262D01*
X0025981Y0057305D01*
X0026096Y0057353D01*
X0026208Y0057404D01*
X0026319Y0057458D01*
X0026429Y0057516D01*
X0026536Y0057577D01*
X0026642Y0057642D01*
X0026745Y0057710D01*
X0026846Y0057781D01*
X0026945Y0057855D01*
X0027042Y0057932D01*
X0027136Y0058013D01*
X0027227Y0058096D01*
X0027316Y0058182D01*
X0027402Y0058271D01*
X0027485Y0058362D01*
X0027566Y0058456D01*
X0027643Y0058553D01*
X0027717Y0058652D01*
X0027788Y0058753D01*
X0027856Y0058856D01*
X0027921Y0058962D01*
X0027982Y0059069D01*
X0028040Y0059179D01*
X0028094Y0059290D01*
X0028145Y0059402D01*
X0028193Y0059517D01*
X0028236Y0059632D01*
X0028276Y0059749D01*
X0028313Y0059868D01*
X0028345Y0059987D01*
X0028374Y0060107D01*
X0028399Y0060228D01*
X0028421Y0060350D01*
X0028438Y0060473D01*
X0028452Y0060595D01*
X0028461Y0060719D01*
X0028467Y0060842D01*
X0028469Y0060966D01*
X0028469Y0062934D01*
X0028467Y0063058D01*
X0028461Y0063181D01*
X0028452Y0063305D01*
X0028438Y0063427D01*
X0028421Y0063550D01*
X0028399Y0063672D01*
X0028374Y0063793D01*
X0028345Y0063913D01*
X0028313Y0064032D01*
X0028276Y0064151D01*
X0028236Y0064268D01*
X0028193Y0064383D01*
X0028145Y0064498D01*
X0028094Y0064610D01*
X0028040Y0064721D01*
X0027982Y0064831D01*
X0027921Y0064938D01*
X0027856Y0065044D01*
X0027788Y0065147D01*
X0027717Y0065248D01*
X0027643Y0065347D01*
X0027566Y0065444D01*
X0027485Y0065538D01*
X0027402Y0065629D01*
X0027316Y0065718D01*
X0027227Y0065804D01*
X0027136Y0065887D01*
X0027042Y0065968D01*
X0026945Y0066045D01*
X0026846Y0066119D01*
X0026745Y0066190D01*
X0026642Y0066258D01*
X0026536Y0066323D01*
X0026429Y0066384D01*
X0026319Y0066442D01*
X0026208Y0066496D01*
X0026096Y0066547D01*
X0025981Y0066595D01*
X0025866Y0066638D01*
X0025749Y0066678D01*
X0025630Y0066715D01*
X0025511Y0066747D01*
X0025391Y0066776D01*
X0025270Y0066801D01*
X0025148Y0066823D01*
X0025025Y0066840D01*
X0024903Y0066854D01*
X0024779Y0066863D01*
X0024656Y0066869D01*
X0024532Y0066871D01*
X0019610Y0066871D01*
X0019610Y0175139D01*
X0024532Y0175139D01*
X0024656Y0175141D01*
X0024779Y0175147D01*
X0024903Y0175156D01*
X0025025Y0175170D01*
X0025148Y0175187D01*
X0025270Y0175209D01*
X0025391Y0175234D01*
X0025511Y0175263D01*
X0025630Y0175295D01*
X0025749Y0175332D01*
X0025866Y0175372D01*
X0025981Y0175415D01*
X0026096Y0175463D01*
X0026208Y0175514D01*
X0026319Y0175568D01*
X0026429Y0175626D01*
X0026536Y0175687D01*
X0026642Y0175752D01*
X0026745Y0175820D01*
X0026846Y0175891D01*
X0026945Y0175965D01*
X0027042Y0176042D01*
X0027136Y0176123D01*
X0027227Y0176206D01*
X0027316Y0176292D01*
X0027402Y0176381D01*
X0027485Y0176472D01*
X0027566Y0176566D01*
X0027643Y0176663D01*
X0027717Y0176762D01*
X0027788Y0176863D01*
X0027856Y0176966D01*
X0027921Y0177072D01*
X0027982Y0177179D01*
X0028040Y0177289D01*
X0028094Y0177400D01*
X0028145Y0177512D01*
X0028193Y0177627D01*
X0028236Y0177742D01*
X0028276Y0177859D01*
X0028313Y0177978D01*
X0028345Y0178097D01*
X0028374Y0178217D01*
X0028399Y0178338D01*
X0028421Y0178460D01*
X0028438Y0178583D01*
X0028452Y0178705D01*
X0028461Y0178829D01*
X0028467Y0178952D01*
X0028469Y0179076D01*
X0028469Y0181045D01*
X0028467Y0181169D01*
X0028461Y0181292D01*
X0028452Y0181416D01*
X0028438Y0181538D01*
X0028421Y0181661D01*
X0028399Y0181783D01*
X0028374Y0181904D01*
X0028345Y0182024D01*
X0028313Y0182143D01*
X0028276Y0182262D01*
X0028236Y0182379D01*
X0028193Y0182494D01*
X0028145Y0182609D01*
X0028094Y0182721D01*
X0028040Y0182832D01*
X0027982Y0182942D01*
X0027921Y0183049D01*
X0027856Y0183155D01*
X0027788Y0183258D01*
X0027717Y0183359D01*
X0027643Y0183458D01*
X0027566Y0183555D01*
X0027485Y0183649D01*
X0027402Y0183740D01*
X0027316Y0183829D01*
X0027227Y0183915D01*
X0027136Y0183998D01*
X0027042Y0184079D01*
X0026945Y0184156D01*
X0026846Y0184230D01*
X0026745Y0184301D01*
X0026642Y0184369D01*
X0026536Y0184434D01*
X0026429Y0184495D01*
X0026319Y0184553D01*
X0026208Y0184607D01*
X0026096Y0184658D01*
X0025981Y0184706D01*
X0025866Y0184749D01*
X0025749Y0184789D01*
X0025630Y0184826D01*
X0025511Y0184858D01*
X0025391Y0184887D01*
X0025270Y0184912D01*
X0025148Y0184934D01*
X0025025Y0184951D01*
X0024903Y0184965D01*
X0024779Y0184974D01*
X0024656Y0184980D01*
X0024532Y0184982D01*
X0019610Y0184982D01*
X0019610Y0236130D01*
X0019612Y0236237D01*
X0019618Y0236344D01*
X0019628Y0236450D01*
X0019642Y0236556D01*
X0019659Y0236662D01*
X0019680Y0236766D01*
X0019705Y0236870D01*
X0019733Y0236973D01*
X0019765Y0237075D01*
X0019801Y0237176D01*
X0019841Y0237275D01*
X0019883Y0237373D01*
X0019930Y0237469D01*
X0019980Y0237564D01*
X0020033Y0237656D01*
X0020089Y0237747D01*
X0020149Y0237836D01*
X0020211Y0237922D01*
X0020277Y0238007D01*
X0020346Y0238088D01*
X0020417Y0238168D01*
X0020492Y0238244D01*
X0020569Y0238319D01*
X0020648Y0238390D01*
X0020731Y0238458D01*
X0020815Y0238523D01*
X0020902Y0238586D01*
X0020991Y0238645D01*
X0021082Y0238701D01*
X0021175Y0238753D01*
X0021270Y0238803D01*
X0021366Y0238849D01*
X0021464Y0238891D01*
X0021564Y0238930D01*
X0021665Y0238965D01*
X0021767Y0238997D01*
X0021870Y0239025D01*
X0021974Y0239049D01*
X0022079Y0239070D01*
X0022184Y0239087D01*
X0022290Y0239100D01*
X0022397Y0239109D01*
X0022503Y0239114D01*
X0022610Y0239116D01*
X0022610Y0239115D02*
X0154406Y0239115D01*
X0154406Y0239116D02*
X0154513Y0239114D01*
X0154619Y0239109D01*
X0154726Y0239100D01*
X0154832Y0239087D01*
X0154937Y0239070D01*
X0155042Y0239049D01*
X0155146Y0239025D01*
X0155249Y0238997D01*
X0155351Y0238965D01*
X0155452Y0238930D01*
X0155552Y0238891D01*
X0155650Y0238849D01*
X0155746Y0238803D01*
X0155841Y0238753D01*
X0155934Y0238701D01*
X0156025Y0238645D01*
X0156114Y0238586D01*
X0156201Y0238523D01*
X0156285Y0238458D01*
X0156368Y0238390D01*
X0156447Y0238319D01*
X0156524Y0238244D01*
X0156599Y0238168D01*
X0156670Y0238088D01*
X0156739Y0238007D01*
X0156805Y0237922D01*
X0156867Y0237836D01*
X0156927Y0237747D01*
X0156983Y0237656D01*
X0157036Y0237564D01*
X0157086Y0237469D01*
X0157133Y0237373D01*
X0157175Y0237275D01*
X0157215Y0237176D01*
X0157251Y0237075D01*
X0157283Y0236973D01*
X0157311Y0236870D01*
X0157336Y0236766D01*
X0157357Y0236662D01*
X0157374Y0236556D01*
X0157388Y0236450D01*
X0157398Y0236344D01*
X0157404Y0236237D01*
X0157406Y0236130D01*
X0157406Y0184982D01*
X0152485Y0184982D01*
X0152361Y0184980D01*
X0152238Y0184974D01*
X0152114Y0184965D01*
X0151992Y0184951D01*
X0151869Y0184934D01*
X0151747Y0184912D01*
X0151626Y0184887D01*
X0151506Y0184858D01*
X0151387Y0184826D01*
X0151268Y0184789D01*
X0151151Y0184749D01*
X0151036Y0184706D01*
X0150921Y0184658D01*
X0150809Y0184607D01*
X0150698Y0184553D01*
X0150588Y0184495D01*
X0150481Y0184434D01*
X0150375Y0184369D01*
X0150272Y0184301D01*
X0150171Y0184230D01*
X0150072Y0184156D01*
X0149975Y0184079D01*
X0149881Y0183998D01*
X0149790Y0183915D01*
X0149701Y0183829D01*
X0149615Y0183740D01*
X0149532Y0183649D01*
X0149451Y0183555D01*
X0149374Y0183458D01*
X0149300Y0183359D01*
X0149229Y0183258D01*
X0149161Y0183155D01*
X0149096Y0183049D01*
X0149035Y0182942D01*
X0148977Y0182832D01*
X0148923Y0182721D01*
X0148872Y0182609D01*
X0148824Y0182494D01*
X0148781Y0182379D01*
X0148741Y0182262D01*
X0148704Y0182143D01*
X0148672Y0182024D01*
X0148643Y0181904D01*
X0148618Y0181783D01*
X0148596Y0181661D01*
X0148579Y0181538D01*
X0148565Y0181416D01*
X0148556Y0181292D01*
X0148550Y0181169D01*
X0148548Y0181045D01*
X0148548Y0179076D01*
X0148550Y0178952D01*
X0148556Y0178829D01*
X0148565Y0178705D01*
X0148579Y0178583D01*
X0148596Y0178460D01*
X0148618Y0178338D01*
X0148643Y0178217D01*
X0148672Y0178097D01*
X0148704Y0177978D01*
X0148741Y0177859D01*
X0148781Y0177742D01*
X0148824Y0177627D01*
X0148872Y0177512D01*
X0148923Y0177400D01*
X0148977Y0177289D01*
X0149035Y0177179D01*
X0149096Y0177072D01*
X0149161Y0176966D01*
X0149229Y0176863D01*
X0149300Y0176762D01*
X0149374Y0176663D01*
X0149451Y0176566D01*
X0149532Y0176472D01*
X0149615Y0176381D01*
X0149701Y0176292D01*
X0149790Y0176206D01*
X0149881Y0176123D01*
X0149975Y0176042D01*
X0150072Y0175965D01*
X0150171Y0175891D01*
X0150272Y0175820D01*
X0150375Y0175752D01*
X0150481Y0175687D01*
X0150588Y0175626D01*
X0150698Y0175568D01*
X0150809Y0175514D01*
X0150921Y0175463D01*
X0151036Y0175415D01*
X0151151Y0175372D01*
X0151268Y0175332D01*
X0151387Y0175295D01*
X0151506Y0175263D01*
X0151626Y0175234D01*
X0151747Y0175209D01*
X0151869Y0175187D01*
X0151992Y0175170D01*
X0152114Y0175156D01*
X0152238Y0175147D01*
X0152361Y0175141D01*
X0152485Y0175139D01*
X0157406Y0175139D01*
X0157406Y0066871D01*
X0152485Y0066871D01*
X0152361Y0066869D01*
X0152238Y0066863D01*
X0152114Y0066854D01*
X0151992Y0066840D01*
X0151869Y0066823D01*
X0151747Y0066801D01*
X0151626Y0066776D01*
X0151506Y0066747D01*
X0151387Y0066715D01*
X0151268Y0066678D01*
X0151151Y0066638D01*
X0151036Y0066595D01*
X0150921Y0066547D01*
X0150809Y0066496D01*
X0150698Y0066442D01*
X0150588Y0066384D01*
X0150481Y0066323D01*
X0150375Y0066258D01*
X0150272Y0066190D01*
X0150171Y0066119D01*
X0150072Y0066045D01*
X0149975Y0065968D01*
X0149881Y0065887D01*
X0149790Y0065804D01*
X0149701Y0065718D01*
X0149615Y0065629D01*
X0149532Y0065538D01*
X0149451Y0065444D01*
X0149374Y0065347D01*
X0149300Y0065248D01*
X0149229Y0065147D01*
X0149161Y0065044D01*
X0149096Y0064938D01*
X0149035Y0064831D01*
X0148977Y0064721D01*
X0148923Y0064610D01*
X0148872Y0064498D01*
X0148824Y0064383D01*
X0148781Y0064268D01*
X0148741Y0064151D01*
X0148704Y0064032D01*
X0148672Y0063913D01*
X0148643Y0063793D01*
X0148618Y0063672D01*
X0148596Y0063550D01*
X0148579Y0063427D01*
X0148565Y0063305D01*
X0148556Y0063181D01*
X0148550Y0063058D01*
X0148548Y0062934D01*
X0148548Y0060966D01*
X0148550Y0060842D01*
X0148556Y0060719D01*
X0148565Y0060595D01*
X0148579Y0060473D01*
X0148596Y0060350D01*
X0148618Y0060228D01*
X0148643Y0060107D01*
X0148672Y0059987D01*
X0148704Y0059868D01*
X0148741Y0059749D01*
X0148781Y0059632D01*
X0148824Y0059517D01*
X0148872Y0059402D01*
X0148923Y0059290D01*
X0148977Y0059179D01*
X0149035Y0059069D01*
X0149096Y0058962D01*
X0149161Y0058856D01*
X0149229Y0058753D01*
X0149300Y0058652D01*
X0149374Y0058553D01*
X0149451Y0058456D01*
X0149532Y0058362D01*
X0149615Y0058271D01*
X0149701Y0058182D01*
X0149790Y0058096D01*
X0149881Y0058013D01*
X0149975Y0057932D01*
X0150072Y0057855D01*
X0150171Y0057781D01*
X0150272Y0057710D01*
X0150375Y0057642D01*
X0150481Y0057577D01*
X0150588Y0057516D01*
X0150698Y0057458D01*
X0150809Y0057404D01*
X0150921Y0057353D01*
X0151036Y0057305D01*
X0151151Y0057262D01*
X0151268Y0057222D01*
X0151387Y0057185D01*
X0151506Y0057153D01*
X0151626Y0057124D01*
X0151747Y0057099D01*
X0151869Y0057077D01*
X0151992Y0057060D01*
X0152114Y0057046D01*
X0152238Y0057037D01*
X0152361Y0057031D01*
X0152485Y0057029D01*
X0157406Y0057029D01*
X0157406Y0005895D01*
X0157404Y0005788D01*
X0157398Y0005681D01*
X0157389Y0005574D01*
X0157375Y0005468D01*
X0157358Y0005362D01*
X0157337Y0005257D01*
X0157313Y0005153D01*
X0157284Y0005050D01*
X0157252Y0004948D01*
X0157217Y0004847D01*
X0157178Y0004747D01*
X0157135Y0004649D01*
X0157089Y0004552D01*
X0157039Y0004457D01*
X0156986Y0004364D01*
X0156930Y0004273D01*
X0156870Y0004184D01*
X0156808Y0004097D01*
X0156742Y0004013D01*
X0156673Y0003930D01*
X0156602Y0003851D01*
X0156527Y0003774D01*
X0156450Y0003699D01*
X0156371Y0003628D01*
X0156288Y0003559D01*
X0156204Y0003493D01*
X0156117Y0003431D01*
X0156028Y0003371D01*
X0155937Y0003315D01*
X0155844Y0003262D01*
X0155749Y0003212D01*
X0155652Y0003166D01*
X0155554Y0003123D01*
X0155454Y0003084D01*
X0155353Y0003049D01*
X0155251Y0003017D01*
X0155148Y0002988D01*
X0155044Y0002964D01*
X0154939Y0002943D01*
X0154833Y0002926D01*
X0154727Y0002912D01*
X0154620Y0002903D01*
X0154513Y0002897D01*
X0154406Y0002895D01*
X0022610Y0002895D01*
X0022503Y0002897D01*
X0022396Y0002903D01*
X0022289Y0002912D01*
X0022183Y0002926D01*
X0022077Y0002943D01*
X0021972Y0002964D01*
X0021868Y0002988D01*
X0021765Y0003017D01*
X0021663Y0003049D01*
X0021562Y0003084D01*
X0021462Y0003123D01*
X0021364Y0003166D01*
X0021267Y0003212D01*
X0021172Y0003262D01*
X0021079Y0003315D01*
X0020988Y0003371D01*
X0020899Y0003431D01*
X0020812Y0003493D01*
X0020728Y0003559D01*
X0020645Y0003628D01*
X0020566Y0003699D01*
X0020489Y0003774D01*
X0020414Y0003851D01*
X0020343Y0003930D01*
X0020274Y0004013D01*
X0020208Y0004097D01*
X0020146Y0004184D01*
X0020086Y0004273D01*
X0020030Y0004364D01*
X0019977Y0004457D01*
X0019927Y0004552D01*
X0019881Y0004649D01*
X0019838Y0004747D01*
X0019799Y0004847D01*
X0019764Y0004948D01*
X0019732Y0005050D01*
X0019703Y0005153D01*
X0019679Y0005257D01*
X0019658Y0005362D01*
X0019641Y0005468D01*
X0019627Y0005574D01*
X0019618Y0005681D01*
X0019612Y0005788D01*
X0019610Y0005895D01*
X0083587Y0121005D02*
X0083589Y0121145D01*
X0083595Y0121285D01*
X0083605Y0121424D01*
X0083619Y0121563D01*
X0083637Y0121702D01*
X0083658Y0121840D01*
X0083684Y0121978D01*
X0083714Y0122115D01*
X0083747Y0122250D01*
X0083785Y0122385D01*
X0083826Y0122519D01*
X0083871Y0122652D01*
X0083919Y0122783D01*
X0083972Y0122912D01*
X0084028Y0123041D01*
X0084087Y0123167D01*
X0084151Y0123292D01*
X0084217Y0123415D01*
X0084288Y0123536D01*
X0084361Y0123655D01*
X0084438Y0123772D01*
X0084519Y0123886D01*
X0084602Y0123998D01*
X0084689Y0124108D01*
X0084779Y0124216D01*
X0084871Y0124320D01*
X0084967Y0124422D01*
X0085066Y0124522D01*
X0085167Y0124618D01*
X0085271Y0124712D01*
X0085378Y0124802D01*
X0085487Y0124889D01*
X0085599Y0124974D01*
X0085713Y0125055D01*
X0085829Y0125133D01*
X0085947Y0125207D01*
X0086068Y0125278D01*
X0086190Y0125346D01*
X0086315Y0125410D01*
X0086441Y0125471D01*
X0086568Y0125528D01*
X0086698Y0125581D01*
X0086829Y0125631D01*
X0086961Y0125676D01*
X0087094Y0125719D01*
X0087229Y0125757D01*
X0087364Y0125791D01*
X0087501Y0125822D01*
X0087638Y0125849D01*
X0087776Y0125871D01*
X0087915Y0125890D01*
X0088054Y0125905D01*
X0088193Y0125916D01*
X0088333Y0125923D01*
X0088473Y0125926D01*
X0088613Y0125925D01*
X0088753Y0125920D01*
X0088892Y0125911D01*
X0089032Y0125898D01*
X0089171Y0125881D01*
X0089309Y0125860D01*
X0089447Y0125836D01*
X0089584Y0125807D01*
X0089720Y0125775D01*
X0089855Y0125738D01*
X0089989Y0125698D01*
X0090122Y0125654D01*
X0090253Y0125606D01*
X0090383Y0125555D01*
X0090512Y0125500D01*
X0090639Y0125441D01*
X0090764Y0125378D01*
X0090887Y0125313D01*
X0091009Y0125243D01*
X0091128Y0125170D01*
X0091246Y0125094D01*
X0091361Y0125015D01*
X0091474Y0124932D01*
X0091584Y0124846D01*
X0091692Y0124757D01*
X0091797Y0124665D01*
X0091900Y0124570D01*
X0092000Y0124472D01*
X0092097Y0124372D01*
X0092191Y0124268D01*
X0092283Y0124162D01*
X0092371Y0124054D01*
X0092456Y0123943D01*
X0092538Y0123829D01*
X0092617Y0123713D01*
X0092692Y0123596D01*
X0092764Y0123476D01*
X0092832Y0123354D01*
X0092897Y0123230D01*
X0092959Y0123104D01*
X0093017Y0122977D01*
X0093071Y0122848D01*
X0093122Y0122717D01*
X0093168Y0122585D01*
X0093211Y0122452D01*
X0093251Y0122318D01*
X0093286Y0122183D01*
X0093318Y0122046D01*
X0093345Y0121909D01*
X0093369Y0121771D01*
X0093389Y0121633D01*
X0093405Y0121494D01*
X0093417Y0121354D01*
X0093425Y0121215D01*
X0093429Y0121075D01*
X0093429Y0120935D01*
X0093425Y0120795D01*
X0093417Y0120656D01*
X0093405Y0120516D01*
X0093389Y0120377D01*
X0093369Y0120239D01*
X0093345Y0120101D01*
X0093318Y0119964D01*
X0093286Y0119827D01*
X0093251Y0119692D01*
X0093211Y0119558D01*
X0093168Y0119425D01*
X0093122Y0119293D01*
X0093071Y0119162D01*
X0093017Y0119033D01*
X0092959Y0118906D01*
X0092897Y0118780D01*
X0092832Y0118656D01*
X0092764Y0118534D01*
X0092692Y0118414D01*
X0092617Y0118297D01*
X0092538Y0118181D01*
X0092456Y0118067D01*
X0092371Y0117956D01*
X0092283Y0117848D01*
X0092191Y0117742D01*
X0092097Y0117638D01*
X0092000Y0117538D01*
X0091900Y0117440D01*
X0091797Y0117345D01*
X0091692Y0117253D01*
X0091584Y0117164D01*
X0091474Y0117078D01*
X0091361Y0116995D01*
X0091246Y0116916D01*
X0091128Y0116840D01*
X0091009Y0116767D01*
X0090887Y0116697D01*
X0090764Y0116632D01*
X0090639Y0116569D01*
X0090512Y0116510D01*
X0090383Y0116455D01*
X0090253Y0116404D01*
X0090122Y0116356D01*
X0089989Y0116312D01*
X0089855Y0116272D01*
X0089720Y0116235D01*
X0089584Y0116203D01*
X0089447Y0116174D01*
X0089309Y0116150D01*
X0089171Y0116129D01*
X0089032Y0116112D01*
X0088892Y0116099D01*
X0088753Y0116090D01*
X0088613Y0116085D01*
X0088473Y0116084D01*
X0088333Y0116087D01*
X0088193Y0116094D01*
X0088054Y0116105D01*
X0087915Y0116120D01*
X0087776Y0116139D01*
X0087638Y0116161D01*
X0087501Y0116188D01*
X0087364Y0116219D01*
X0087229Y0116253D01*
X0087094Y0116291D01*
X0086961Y0116334D01*
X0086829Y0116379D01*
X0086698Y0116429D01*
X0086568Y0116482D01*
X0086441Y0116539D01*
X0086315Y0116600D01*
X0086190Y0116664D01*
X0086068Y0116732D01*
X0085947Y0116803D01*
X0085829Y0116877D01*
X0085713Y0116955D01*
X0085599Y0117036D01*
X0085487Y0117121D01*
X0085378Y0117208D01*
X0085271Y0117298D01*
X0085167Y0117392D01*
X0085066Y0117488D01*
X0084967Y0117588D01*
X0084871Y0117690D01*
X0084779Y0117794D01*
X0084689Y0117902D01*
X0084602Y0118012D01*
X0084519Y0118124D01*
X0084438Y0118238D01*
X0084361Y0118355D01*
X0084288Y0118474D01*
X0084217Y0118595D01*
X0084151Y0118718D01*
X0084087Y0118843D01*
X0084028Y0118969D01*
X0083972Y0119098D01*
X0083919Y0119227D01*
X0083871Y0119358D01*
X0083826Y0119491D01*
X0083785Y0119625D01*
X0083747Y0119760D01*
X0083714Y0119895D01*
X0083684Y0120032D01*
X0083658Y0120170D01*
X0083637Y0120308D01*
X0083619Y0120447D01*
X0083605Y0120586D01*
X0083595Y0120725D01*
X0083589Y0120865D01*
X0083587Y0121005D01*
M02*
